%TF.GenerationSoftware,KiCad,Pcbnew,10.0.6-10.0.6~ubuntu24.04.1*%
%TF.CreationDate,2026-09-23T20:41:45+00:00*%
%TF.ProjectId,ViRa_V1.0,56695261-5f56-4312-9e30-2e6b69636164,rev?*%
%TF.SameCoordinates,Original*%
%TF.FileFunction,OtherDrawing,Comment*%
%FSLAX46Y46*%
G04 Gerber Fmt 4.6, Leading zero omitted, Abs format (unit mm)*
G04 Created by KiCad (PCBNEW 10.0.6-10.0.6~ubuntu24.04.1) date 2026-09-23 20:41:45*
%MOMM*%
%LPD*%
G01*
G04 APERTURE LIST*
%ADD10C,0.150000*%
%ADD11C,0.100000*%
%ADD12C,0.120000*%
G04 APERTURE END LIST*
D10*
X47304819Y-87238095D02*
X47304819Y-87714285D01*
X47304819Y-87714285D02*
X47781009Y-87761904D01*
X47781009Y-87761904D02*
X47733390Y-87714285D01*
X47733390Y-87714285D02*
X47685771Y-87619047D01*
X47685771Y-87619047D02*
X47685771Y-87380952D01*
X47685771Y-87380952D02*
X47733390Y-87285714D01*
X47733390Y-87285714D02*
X47781009Y-87238095D01*
X47781009Y-87238095D02*
X47876247Y-87190476D01*
X47876247Y-87190476D02*
X48114342Y-87190476D01*
X48114342Y-87190476D02*
X48209580Y-87238095D01*
X48209580Y-87238095D02*
X48257200Y-87285714D01*
X48257200Y-87285714D02*
X48304819Y-87380952D01*
X48304819Y-87380952D02*
X48304819Y-87619047D01*
X48304819Y-87619047D02*
X48257200Y-87714285D01*
X48257200Y-87714285D02*
X48209580Y-87761904D01*
X47733390Y-86619047D02*
X47685771Y-86714285D01*
X47685771Y-86714285D02*
X47638152Y-86761904D01*
X47638152Y-86761904D02*
X47542914Y-86809523D01*
X47542914Y-86809523D02*
X47495295Y-86809523D01*
X47495295Y-86809523D02*
X47400057Y-86761904D01*
X47400057Y-86761904D02*
X47352438Y-86714285D01*
X47352438Y-86714285D02*
X47304819Y-86619047D01*
X47304819Y-86619047D02*
X47304819Y-86428571D01*
X47304819Y-86428571D02*
X47352438Y-86333333D01*
X47352438Y-86333333D02*
X47400057Y-86285714D01*
X47400057Y-86285714D02*
X47495295Y-86238095D01*
X47495295Y-86238095D02*
X47542914Y-86238095D01*
X47542914Y-86238095D02*
X47638152Y-86285714D01*
X47638152Y-86285714D02*
X47685771Y-86333333D01*
X47685771Y-86333333D02*
X47733390Y-86428571D01*
X47733390Y-86428571D02*
X47733390Y-86619047D01*
X47733390Y-86619047D02*
X47781009Y-86714285D01*
X47781009Y-86714285D02*
X47828628Y-86761904D01*
X47828628Y-86761904D02*
X47923866Y-86809523D01*
X47923866Y-86809523D02*
X48114342Y-86809523D01*
X48114342Y-86809523D02*
X48209580Y-86761904D01*
X48209580Y-86761904D02*
X48257200Y-86714285D01*
X48257200Y-86714285D02*
X48304819Y-86619047D01*
X48304819Y-86619047D02*
X48304819Y-86428571D01*
X48304819Y-86428571D02*
X48257200Y-86333333D01*
X48257200Y-86333333D02*
X48209580Y-86285714D01*
X48209580Y-86285714D02*
X48114342Y-86238095D01*
X48114342Y-86238095D02*
X47923866Y-86238095D01*
X47923866Y-86238095D02*
X47828628Y-86285714D01*
X47828628Y-86285714D02*
X47781009Y-86333333D01*
X47781009Y-86333333D02*
X47733390Y-86428571D01*
D11*
X60500000Y-58000000D02*
X48413580Y-58000000D01*
X48413580Y-116000000D02*
X60500000Y-116000000D01*
X49000000Y-58000000D02*
X49000000Y-116000000D01*
X49000000Y-58000000D02*
X49586421Y-59126504D01*
X49000000Y-58000000D02*
X48413579Y-59126504D01*
X49000000Y-116000000D02*
X48413579Y-114873496D01*
X49000000Y-116000000D02*
X49586421Y-114873496D01*
D10*
X112833333Y-47304819D02*
X112261905Y-47304819D01*
X112547619Y-47304819D02*
X112547619Y-46304819D01*
X112547619Y-46304819D02*
X112452381Y-46447676D01*
X112452381Y-46447676D02*
X112357143Y-46542914D01*
X112357143Y-46542914D02*
X112261905Y-46590533D01*
X113452381Y-46304819D02*
X113547619Y-46304819D01*
X113547619Y-46304819D02*
X113642857Y-46352438D01*
X113642857Y-46352438D02*
X113690476Y-46400057D01*
X113690476Y-46400057D02*
X113738095Y-46495295D01*
X113738095Y-46495295D02*
X113785714Y-46685771D01*
X113785714Y-46685771D02*
X113785714Y-46923866D01*
X113785714Y-46923866D02*
X113738095Y-47114342D01*
X113738095Y-47114342D02*
X113690476Y-47209580D01*
X113690476Y-47209580D02*
X113642857Y-47257200D01*
X113642857Y-47257200D02*
X113547619Y-47304819D01*
X113547619Y-47304819D02*
X113452381Y-47304819D01*
X113452381Y-47304819D02*
X113357143Y-47257200D01*
X113357143Y-47257200D02*
X113309524Y-47209580D01*
X113309524Y-47209580D02*
X113261905Y-47114342D01*
X113261905Y-47114342D02*
X113214286Y-46923866D01*
X113214286Y-46923866D02*
X113214286Y-46685771D01*
X113214286Y-46685771D02*
X113261905Y-46495295D01*
X113261905Y-46495295D02*
X113309524Y-46400057D01*
X113309524Y-46400057D02*
X113357143Y-46352438D01*
X113357143Y-46352438D02*
X113452381Y-46304819D01*
X114690476Y-46304819D02*
X114214286Y-46304819D01*
X114214286Y-46304819D02*
X114166667Y-46781009D01*
X114166667Y-46781009D02*
X114214286Y-46733390D01*
X114214286Y-46733390D02*
X114309524Y-46685771D01*
X114309524Y-46685771D02*
X114547619Y-46685771D01*
X114547619Y-46685771D02*
X114642857Y-46733390D01*
X114642857Y-46733390D02*
X114690476Y-46781009D01*
X114690476Y-46781009D02*
X114738095Y-46876247D01*
X114738095Y-46876247D02*
X114738095Y-47114342D01*
X114738095Y-47114342D02*
X114690476Y-47209580D01*
X114690476Y-47209580D02*
X114642857Y-47257200D01*
X114642857Y-47257200D02*
X114547619Y-47304819D01*
X114547619Y-47304819D02*
X114309524Y-47304819D01*
X114309524Y-47304819D02*
X114214286Y-47257200D01*
X114214286Y-47257200D02*
X114166667Y-47209580D01*
D11*
X61000000Y-57500000D02*
X61000000Y-47413580D01*
X166000000Y-47413580D02*
X166000000Y-57500000D01*
X61000000Y-48000000D02*
X166000000Y-48000000D01*
X61000000Y-48000000D02*
X62126504Y-47413579D01*
X61000000Y-48000000D02*
X62126504Y-48586421D01*
X166000000Y-48000000D02*
X164873496Y-48586421D01*
X166000000Y-48000000D02*
X164873496Y-47413579D01*
%TO.C,J2*%
D12*
X61500000Y-75000000D02*
X63500000Y-75000000D01*
X62500000Y-74500000D02*
X63500000Y-75000000D01*
X62500000Y-75500000D02*
X62500000Y-74500000D01*
X63500000Y-75000000D02*
X62500000Y-75500000D01*
%TD*%
M02*
