%TF.GenerationSoftware,KiCad,Pcbnew,10.0.6-10.0.6~ubuntu24.04.1*%
%TF.CreationDate,2026-09-23T20:41:45+00:00*%
%TF.ProjectId,ViRa_V1.0,56695261-5f56-4312-9e30-2e6b69636164,rev?*%
%TF.SameCoordinates,Original*%
%TF.FileFunction,Other,User*%
%FSLAX46Y46*%
G04 Gerber Fmt 4.6, Leading zero omitted, Abs format (unit mm)*
G04 Created by KiCad (PCBNEW 10.0.6-10.0.6~ubuntu24.04.1) date 2026-09-23 20:41:45*
%MOMM*%
%LPD*%
G01*
G04 APERTURE LIST*
%ADD10C,0.050000*%
%ADD11C,0.152400*%
G04 APERTURE END LIST*
%TO.C,U3*%
D10*
X73500000Y-43750000D02*
X73500000Y-64750000D01*
X73500000Y-64750000D02*
X87750000Y-64750000D01*
X87750000Y-84950000D02*
X87750000Y-64750000D01*
X87750000Y-84950000D02*
X107250000Y-84950000D01*
X107250000Y-64750000D02*
X107250000Y-84950000D01*
X107250000Y-64750000D02*
X121500000Y-64750000D01*
X121500000Y-43750000D02*
X73500000Y-43750000D01*
X121500000Y-64750000D02*
X121500000Y-43750000D01*
%TO.C,FID3*%
X165000000Y-59500000D02*
G75*
G02*
X163000000Y-59500000I-1000000J0D01*
G01*
X163000000Y-59500000D02*
G75*
G02*
X165000000Y-59500000I1000000J0D01*
G01*
%TO.C,SW2*%
X106250000Y-95750000D02*
X106500000Y-95750000D01*
X106250000Y-96000000D02*
X106250000Y-95750000D01*
X106250000Y-103000000D02*
X106250000Y-96000000D01*
X106250000Y-103000000D02*
X106250000Y-103250000D01*
X106250000Y-103250000D02*
X106500000Y-103250000D01*
X106500000Y-95750000D02*
X115500000Y-95750000D01*
X115500000Y-95750000D02*
X115750000Y-95750000D01*
X115500000Y-103250000D02*
X106500000Y-103250000D01*
X115500000Y-103250000D02*
X115750000Y-103250000D01*
X115750000Y-95750000D02*
X115750000Y-96000000D01*
X115750000Y-96000000D02*
X115750000Y-103000000D01*
X115750000Y-103250000D02*
X115750000Y-103000000D01*
%TO.C,D4*%
X128520000Y-80770000D02*
X131480000Y-80770000D01*
X131480000Y-82230000D01*
X128520000Y-82230000D01*
X128520000Y-80770000D01*
%TO.C,R13*%
X80520000Y-104270000D02*
X83480000Y-104270000D01*
X83480000Y-105730000D01*
X80520000Y-105730000D01*
X80520000Y-104270000D01*
%TO.C,D3*%
X132650000Y-80350000D02*
X137350000Y-80350000D01*
X132650000Y-82650000D02*
X132650000Y-80350000D01*
X137350000Y-82650000D02*
X132650000Y-82650000D01*
X137350000Y-82650000D02*
X137350000Y-80350000D01*
%TO.C,C1*%
X148250000Y-68750000D02*
X154750000Y-68750000D01*
X154750000Y-82250000D01*
X148250000Y-82250000D01*
X148250000Y-68750000D01*
%TO.C,D5*%
X60985000Y-98290000D02*
X65825000Y-98290000D01*
X65825000Y-102710000D01*
X60985000Y-102710000D01*
X60985000Y-98290000D01*
%TO.C,R17*%
X78760000Y-85345000D02*
X80220000Y-85345000D01*
X80220000Y-88305000D01*
X78760000Y-88305000D01*
X78760000Y-85345000D01*
%TO.C,R9*%
X120020000Y-87270000D02*
X122980000Y-87270000D01*
X122980000Y-88730000D01*
X120020000Y-88730000D01*
X120020000Y-87270000D01*
%TO.C,SW5*%
X95100000Y-106000000D02*
X95350000Y-106000000D01*
X95100000Y-106250000D02*
X95100000Y-106000000D01*
X95100000Y-115250000D02*
X95100000Y-106250000D01*
X95100000Y-115500000D02*
X95100000Y-115250000D01*
X95350000Y-106000000D02*
X102350000Y-106000000D01*
X95350000Y-115500000D02*
X95100000Y-115500000D01*
X102350000Y-115500000D02*
X95350000Y-115500000D01*
X102350000Y-115500000D02*
X102600000Y-115500000D01*
X102600000Y-106000000D02*
X102350000Y-106000000D01*
X102600000Y-106250000D02*
X102600000Y-106000000D01*
X102600000Y-106250000D02*
X102600000Y-115250000D01*
X102600000Y-115500000D02*
X102600000Y-115250000D01*
%TO.C,U4*%
X70500000Y-77900000D02*
X70500000Y-80100000D01*
X70500000Y-77900000D02*
X73500000Y-77900000D01*
X70500000Y-80100000D02*
X73500000Y-80100000D01*
X73500000Y-80100000D02*
X73500000Y-77900000D01*
%TO.C,R6*%
X75020000Y-78260000D02*
X77980000Y-78260000D01*
X77980000Y-79720000D01*
X75020000Y-79720000D01*
X75020000Y-78260000D01*
%TO.C,TP7*%
X135525000Y-112775000D02*
G75*
G02*
X133025000Y-112775000I-1250000J0D01*
G01*
X133025000Y-112775000D02*
G75*
G02*
X135525000Y-112775000I1250000J0D01*
G01*
%TO.C,C3*%
X120300000Y-93010000D02*
X123700000Y-93010000D01*
X123700000Y-94970000D01*
X120300000Y-94970000D01*
X120300000Y-93010000D01*
%TO.C,F1*%
X161300000Y-71150000D02*
X161300000Y-62150000D01*
X161300000Y-71150000D02*
X165800000Y-71150000D01*
X165800000Y-62150000D02*
X161300000Y-62150000D01*
X165800000Y-62150000D02*
X165800000Y-71150000D01*
%TO.C,R3*%
X83520000Y-74270000D02*
X86480000Y-74270000D01*
X86480000Y-75730000D01*
X83520000Y-75730000D01*
X83520000Y-74270000D01*
%TO.C,D2*%
X67350000Y-82150000D02*
X69650000Y-82150000D01*
X67350000Y-86850000D02*
X67350000Y-82150000D01*
X67350000Y-86850000D02*
X69650000Y-86850000D01*
X69650000Y-82150000D02*
X69650000Y-86850000D01*
%TO.C,FID2*%
X68350000Y-61000000D02*
G75*
G02*
X66350000Y-61000000I-1000000J0D01*
G01*
X66350000Y-61000000D02*
G75*
G02*
X68350000Y-61000000I1000000J0D01*
G01*
%TO.C,R4*%
X72020000Y-74270000D02*
X74980000Y-74270000D01*
X74980000Y-75730000D01*
X72020000Y-75730000D01*
X72020000Y-74270000D01*
%TO.C,R22*%
X77290000Y-70345000D02*
X78750000Y-70345000D01*
X78750000Y-73305000D01*
X77290000Y-73305000D01*
X77290000Y-70345000D01*
%TO.C,C2*%
X107600000Y-84600000D02*
X110500000Y-84600000D01*
X107600000Y-92250000D02*
X107600000Y-84600000D01*
X108750000Y-93400000D02*
X107600000Y-92250000D01*
X108750000Y-93400000D02*
X110500000Y-93400000D01*
X110500000Y-83750000D02*
X113500000Y-83750000D01*
X110500000Y-84600000D02*
X110500000Y-83750000D01*
X110500000Y-93400000D02*
X110500000Y-94250000D01*
X110500000Y-94250000D02*
X113500000Y-94250000D01*
X113500000Y-83750000D02*
X113500000Y-84600000D01*
X113500000Y-84600000D02*
X116400000Y-84600000D01*
X113500000Y-93400000D02*
X115250000Y-93400000D01*
X113500000Y-94250000D02*
X113500000Y-93400000D01*
X115250000Y-93400000D02*
X116400000Y-92250000D01*
X116400000Y-92250000D02*
X116400000Y-84600000D01*
%TO.C,TP4*%
X132250000Y-112500000D02*
G75*
G02*
X129750000Y-112500000I-1250000J0D01*
G01*
X129750000Y-112500000D02*
G75*
G02*
X132250000Y-112500000I1250000J0D01*
G01*
%TO.C,TP3*%
X128700000Y-112500000D02*
G75*
G02*
X126200000Y-112500000I-1250000J0D01*
G01*
X126200000Y-112500000D02*
G75*
G02*
X128700000Y-112500000I1250000J0D01*
G01*
%TO.C,J3*%
X61230000Y-65730000D02*
X72390000Y-65730000D01*
X72390000Y-69270000D01*
X61230000Y-69270000D01*
X61230000Y-65730000D01*
%TO.C,C14*%
X62520000Y-82770000D02*
X65480000Y-82770000D01*
X65480000Y-84230000D01*
X62520000Y-84230000D01*
X62520000Y-82770000D01*
%TO.C,C9*%
X81770000Y-66520000D02*
X83230000Y-66520000D01*
X83230000Y-69480000D01*
X81770000Y-69480000D01*
X81770000Y-66520000D01*
%TO.C,SW4*%
X86550000Y-106000000D02*
X86800000Y-106000000D01*
X86550000Y-106250000D02*
X86550000Y-106000000D01*
X86550000Y-115250000D02*
X86550000Y-106250000D01*
X86550000Y-115500000D02*
X86550000Y-115250000D01*
X86800000Y-106000000D02*
X93800000Y-106000000D01*
X86800000Y-115500000D02*
X86550000Y-115500000D01*
X93800000Y-115500000D02*
X86800000Y-115500000D01*
X93800000Y-115500000D02*
X94050000Y-115500000D01*
X94050000Y-106000000D02*
X93800000Y-106000000D01*
X94050000Y-106250000D02*
X94050000Y-106000000D01*
X94050000Y-106250000D02*
X94050000Y-115250000D01*
X94050000Y-115500000D02*
X94050000Y-115250000D01*
%TO.C,R20*%
X72270000Y-70345000D02*
X73730000Y-70345000D01*
X73730000Y-73305000D01*
X72270000Y-73305000D01*
X72270000Y-70345000D01*
%TO.C,D1*%
X60985000Y-91350000D02*
X65825000Y-91350000D01*
X65825000Y-95770000D01*
X60985000Y-95770000D01*
X60985000Y-91350000D01*
%TO.C,R15*%
X97520000Y-104270000D02*
X100480000Y-104270000D01*
X100480000Y-105730000D01*
X97520000Y-105730000D01*
X97520000Y-104270000D01*
%TO.C,R2*%
X61695000Y-87270000D02*
X64655000Y-87270000D01*
X64655000Y-88730000D01*
X61695000Y-88730000D01*
X61695000Y-87270000D01*
%TO.C,R8*%
X120020000Y-85270000D02*
X122980000Y-85270000D01*
X122980000Y-86730000D01*
X120020000Y-86730000D01*
X120020000Y-85270000D01*
%TO.C,R12*%
X61695000Y-103270000D02*
X64655000Y-103270000D01*
X64655000Y-104730000D01*
X61695000Y-104730000D01*
X61695000Y-103270000D01*
%TO.C,R19*%
X79270000Y-73845000D02*
X80730000Y-73845000D01*
X80730000Y-76805000D01*
X79270000Y-76805000D01*
X79270000Y-73845000D01*
%TO.C,SW3*%
X78000000Y-106000000D02*
X78250000Y-106000000D01*
X78000000Y-106250000D02*
X78000000Y-106000000D01*
X78000000Y-115250000D02*
X78000000Y-106250000D01*
X78000000Y-115500000D02*
X78000000Y-115250000D01*
X78250000Y-106000000D02*
X85250000Y-106000000D01*
X78250000Y-115500000D02*
X78000000Y-115500000D01*
X85250000Y-115500000D02*
X78250000Y-115500000D01*
X85250000Y-115500000D02*
X85500000Y-115500000D01*
X85500000Y-106000000D02*
X85250000Y-106000000D01*
X85500000Y-106250000D02*
X85500000Y-106000000D01*
X85500000Y-106250000D02*
X85500000Y-115250000D01*
X85500000Y-115500000D02*
X85500000Y-115250000D01*
%TO.C,R16*%
X106020000Y-104270000D02*
X108980000Y-104270000D01*
X108980000Y-105730000D01*
X106020000Y-105730000D01*
X106020000Y-104270000D01*
%TO.C,U2*%
X114900000Y-103600000D02*
X114900000Y-112400000D01*
X114900000Y-112400000D02*
X122100000Y-112400000D01*
X122100000Y-103600000D02*
X114900000Y-103600000D01*
X122100000Y-112400000D02*
X122100000Y-103600000D01*
%TO.C,C8*%
X78770000Y-66520000D02*
X80230000Y-66520000D01*
X80230000Y-69480000D01*
X78770000Y-69480000D01*
X78770000Y-66520000D01*
%TO.C,TP1*%
X106250000Y-87500000D02*
G75*
G02*
X103750000Y-87500000I-1250000J0D01*
G01*
X103750000Y-87500000D02*
G75*
G02*
X106250000Y-87500000I1250000J0D01*
G01*
%TO.C,C10*%
X84770000Y-66520000D02*
X86230000Y-66520000D01*
X86230000Y-69480000D01*
X84770000Y-69480000D01*
X84770000Y-66520000D01*
%TO.C,C5*%
X120300000Y-96020000D02*
X123700000Y-96020000D01*
X123700000Y-97980000D01*
X120300000Y-97980000D01*
X120300000Y-96020000D01*
%TO.C,U1*%
X123997500Y-84000000D02*
X165497500Y-84000000D01*
X165497500Y-110000000D01*
X123997500Y-110000000D01*
X123997500Y-84000000D01*
%TO.C,BT1*%
X83090000Y-93600000D02*
X84990000Y-93600000D01*
X83090000Y-96400000D02*
X83090000Y-93600000D01*
X84990000Y-87350000D02*
X100065000Y-87350000D01*
X84990000Y-93600000D02*
X84990000Y-87350000D01*
X84990000Y-96400000D02*
X83090000Y-96400000D01*
X84990000Y-102650000D02*
X84990000Y-96400000D01*
X100065000Y-87350000D02*
X100065000Y-93600000D01*
X100065000Y-93600000D02*
X103040000Y-93600000D01*
X100065000Y-96400000D02*
X100065000Y-102650000D01*
X100065000Y-102650000D02*
X84990000Y-102650000D01*
X103040000Y-93600000D02*
X103040000Y-96400000D01*
X103040000Y-96400000D02*
X100065000Y-96400000D01*
%TO.C,SW6*%
X103650000Y-106000000D02*
X103900000Y-106000000D01*
X103650000Y-106250000D02*
X103650000Y-106000000D01*
X103650000Y-115250000D02*
X103650000Y-106250000D01*
X103650000Y-115500000D02*
X103650000Y-115250000D01*
X103900000Y-106000000D02*
X110900000Y-106000000D01*
X103900000Y-115500000D02*
X103650000Y-115500000D01*
X110900000Y-115500000D02*
X103900000Y-115500000D01*
X110900000Y-115500000D02*
X111150000Y-115500000D01*
X111150000Y-106000000D02*
X110900000Y-106000000D01*
X111150000Y-106250000D02*
X111150000Y-106000000D01*
X111150000Y-106250000D02*
X111150000Y-115250000D01*
X111150000Y-115500000D02*
X111150000Y-115250000D01*
%TO.C,C16*%
X66520000Y-92800000D02*
X68480000Y-92800000D01*
X68480000Y-96200000D01*
X66520000Y-96200000D01*
X66520000Y-92800000D01*
%TO.C,R7*%
X75020000Y-80770000D02*
X77980000Y-80770000D01*
X77980000Y-82230000D01*
X75020000Y-82230000D01*
X75020000Y-80770000D01*
%TO.C,K2*%
X122650000Y-58500000D02*
X122650000Y-78600000D01*
X122650000Y-58500000D02*
X138550000Y-58500000D01*
X138550000Y-78600000D02*
X122650000Y-78600000D01*
X138550000Y-78600000D02*
X138550000Y-58500000D01*
%TO.C,D6*%
X60985000Y-105290000D02*
X65825000Y-105290000D01*
X65825000Y-109710000D01*
X60985000Y-109710000D01*
X60985000Y-105290000D01*
%TO.C,R21*%
X74780000Y-70345000D02*
X76240000Y-70345000D01*
X76240000Y-73305000D01*
X74780000Y-73305000D01*
X74780000Y-70345000D01*
%TO.C,LS1*%
D11*
X110590301Y-65040300D02*
X110590301Y-74959700D01*
X110590301Y-74959700D02*
X120509701Y-74959700D01*
X120509701Y-65040300D02*
X110590301Y-65040300D01*
X120509701Y-74959700D02*
X120509701Y-65040300D01*
%TO.C,TP6*%
D10*
X106250000Y-94500000D02*
G75*
G02*
X103750000Y-94500000I-1250000J0D01*
G01*
X103750000Y-94500000D02*
G75*
G02*
X106250000Y-94500000I1250000J0D01*
G01*
%TO.C,FID1*%
X67100000Y-114850000D02*
G75*
G02*
X65100000Y-114850000I-1000000J0D01*
G01*
X65100000Y-114850000D02*
G75*
G02*
X67100000Y-114850000I1000000J0D01*
G01*
%TO.C,R18*%
X81270000Y-85345000D02*
X82730000Y-85345000D01*
X82730000Y-88305000D01*
X81270000Y-88305000D01*
X81270000Y-85345000D01*
%TO.C,R5*%
X71020000Y-81770000D02*
X73980000Y-81770000D01*
X73980000Y-83230000D01*
X71020000Y-83230000D01*
X71020000Y-81770000D01*
%TO.C,TP5*%
X69750000Y-102000000D02*
G75*
G02*
X67250000Y-102000000I-1250000J0D01*
G01*
X67250000Y-102000000D02*
G75*
G02*
X69750000Y-102000000I1250000J0D01*
G01*
%TO.C,R23*%
X79800000Y-70345000D02*
X81260000Y-70345000D01*
X81260000Y-73305000D01*
X79800000Y-73305000D01*
X79800000Y-70345000D01*
%TO.C,R10*%
X125270000Y-80020000D02*
X126730000Y-80020000D01*
X126730000Y-82980000D01*
X125270000Y-82980000D01*
X125270000Y-80020000D01*
%TO.C,J1*%
X139500000Y-58190000D02*
X161000000Y-58190000D01*
X161000000Y-67000000D01*
X139500000Y-67000000D01*
X139500000Y-58190000D01*
%TO.C,R14*%
X88520000Y-104270000D02*
X91480000Y-104270000D01*
X91480000Y-105730000D01*
X88520000Y-105730000D01*
X88520000Y-104270000D01*
%TO.C,U5*%
X70570000Y-90500000D02*
X72500000Y-90500000D01*
X70570000Y-100500000D02*
X70570000Y-90500000D01*
X72500000Y-90100000D02*
X80500000Y-90100000D01*
X72500000Y-90500000D02*
X72500000Y-90100000D01*
X72500000Y-100500000D02*
X70570000Y-100500000D01*
X72500000Y-100900000D02*
X72500000Y-100500000D01*
X80500000Y-90100000D02*
X80500000Y-90500000D01*
X80500000Y-90500000D02*
X82430000Y-90500000D01*
X80500000Y-100500000D02*
X80500000Y-100900000D01*
X80500000Y-100900000D02*
X72500000Y-100900000D01*
X82430000Y-90500000D02*
X82430000Y-100500000D01*
X82430000Y-100500000D02*
X80500000Y-100500000D01*
%TO.C,C6*%
X116020000Y-95770000D02*
X118980000Y-95770000D01*
X118980000Y-97230000D01*
X116020000Y-97230000D01*
X116020000Y-95770000D01*
%TO.C,C12*%
X102745000Y-97270000D02*
X105705000Y-97270000D01*
X105705000Y-98730000D01*
X102745000Y-98730000D01*
X102745000Y-97270000D01*
%TO.C,R26*%
X108395001Y-79270000D02*
X111355001Y-79270000D01*
X111355001Y-80730000D01*
X108395001Y-80730000D01*
X108395001Y-79270000D01*
%TO.C,RV1*%
X155250000Y-68250000D02*
X160750000Y-68250000D01*
X155250000Y-80750000D02*
X155250000Y-68250000D01*
X155250000Y-80750000D02*
X160750000Y-80750000D01*
X160750000Y-80750000D02*
X160750000Y-68250000D01*
%TO.C,SW1*%
X67500000Y-104500000D02*
X67750000Y-104500000D01*
X67500000Y-104750000D02*
X67500000Y-104500000D01*
X67500000Y-113750000D02*
X67500000Y-104750000D01*
X67500000Y-114000000D02*
X67500000Y-113750000D01*
X67750000Y-104500000D02*
X74750000Y-104500000D01*
X67750000Y-114000000D02*
X67500000Y-114000000D01*
X74750000Y-114000000D02*
X67750000Y-114000000D01*
X74750000Y-114000000D02*
X75000000Y-114000000D01*
X75000000Y-104500000D02*
X74750000Y-104500000D01*
X75000000Y-104750000D02*
X75000000Y-104500000D01*
X75000000Y-104750000D02*
X75000000Y-113750000D01*
X75000000Y-114000000D02*
X75000000Y-113750000D01*
%TO.C,Q1*%
X119570000Y-80500000D02*
X120600000Y-80500000D01*
X119570000Y-81610000D02*
X119570000Y-80500000D01*
X119570000Y-82390000D02*
X120600000Y-82390000D01*
X119570000Y-83500000D02*
X119570000Y-82390000D01*
X120600000Y-80300000D02*
X122400000Y-80300000D01*
X120600000Y-80500000D02*
X120600000Y-80300000D01*
X120600000Y-81610000D02*
X119570000Y-81610000D01*
X120600000Y-82390000D02*
X120600000Y-81610000D01*
X120600000Y-83500000D02*
X119570000Y-83500000D01*
X120600000Y-83700000D02*
X120600000Y-83500000D01*
X122400000Y-80300000D02*
X122400000Y-81450000D01*
X122400000Y-81450000D02*
X123430000Y-81450000D01*
X122400000Y-82550000D02*
X122400000Y-83700000D01*
X122400000Y-83700000D02*
X120600000Y-83700000D01*
X123430000Y-81450000D02*
X123430000Y-82550000D01*
X123430000Y-82550000D02*
X122400000Y-82550000D01*
%TO.C,C15*%
X68770000Y-93020000D02*
X70230000Y-93020000D01*
X70230000Y-95980000D01*
X68770000Y-95980000D01*
X68770000Y-93020000D01*
%TO.C,R25*%
X108395001Y-77260000D02*
X111355001Y-77260000D01*
X111355001Y-78720000D01*
X108395001Y-78720000D01*
X108395001Y-77260000D01*
%TO.C,R11*%
X61695000Y-96270000D02*
X64655000Y-96270000D01*
X64655000Y-97730000D01*
X61695000Y-97730000D01*
X61695000Y-96270000D01*
%TO.C,R1*%
X143000000Y-71140000D02*
X146000000Y-71140000D01*
X146000000Y-80860000D01*
X143000000Y-80860000D01*
X143000000Y-71140000D01*
%TO.C,Q2*%
X112620001Y-76950000D02*
X113650001Y-76950000D01*
X112620001Y-78060000D02*
X112620001Y-76950000D01*
X112620001Y-78840000D02*
X113650001Y-78840000D01*
X112620001Y-79950000D02*
X112620001Y-78840000D01*
X113650001Y-76750000D02*
X115450001Y-76750000D01*
X113650001Y-76950000D02*
X113650001Y-76750000D01*
X113650001Y-78060000D02*
X112620001Y-78060000D01*
X113650001Y-78840000D02*
X113650001Y-78060000D01*
X113650001Y-79950000D02*
X112620001Y-79950000D01*
X113650001Y-80150000D02*
X113650001Y-79950000D01*
X115450001Y-76750000D02*
X115450001Y-77900000D01*
X115450001Y-77900000D02*
X116480001Y-77900000D01*
X115450001Y-79000000D02*
X115450001Y-80150000D01*
X115450001Y-80150000D02*
X113650001Y-80150000D01*
X116480001Y-77900000D02*
X116480001Y-79000000D01*
X116480001Y-79000000D02*
X115450001Y-79000000D01*
%TO.C,D7*%
X112150000Y-80850000D02*
X112150000Y-83150000D01*
X112150000Y-80850000D02*
X116850000Y-80850000D01*
X116850000Y-80850000D02*
X116850000Y-83150000D01*
X116850000Y-83150000D02*
X112150000Y-83150000D01*
%TO.C,J2*%
X60820000Y-69680000D02*
X60820000Y-80320000D01*
X69900000Y-69680000D02*
X60820000Y-69680000D01*
X69900000Y-69680000D02*
X69900000Y-80320000D01*
X69900000Y-80320000D02*
X60820000Y-80320000D01*
%TO.C,C11*%
X72020000Y-102770000D02*
X74980000Y-102770000D01*
X74980000Y-104230000D01*
X72020000Y-104230000D01*
X72020000Y-102770000D01*
%TO.C,R24*%
X75520000Y-74270000D02*
X78480000Y-74270000D01*
X78480000Y-75730000D01*
X75520000Y-75730000D01*
X75520000Y-74270000D01*
%TO.C,TP2*%
X106250000Y-91000000D02*
G75*
G02*
X103750000Y-91000000I-1250000J0D01*
G01*
X103750000Y-91000000D02*
G75*
G02*
X106250000Y-91000000I1250000J0D01*
G01*
%TO.C,C13*%
X83520000Y-71270000D02*
X86480000Y-71270000D01*
X86480000Y-72730000D01*
X83520000Y-72730000D01*
X83520000Y-71270000D01*
%TO.C,C4*%
X116020000Y-93260000D02*
X118980000Y-93260000D01*
X118980000Y-94720000D01*
X116020000Y-94720000D01*
X116020000Y-93260000D01*
%TO.C,C7*%
X75520000Y-66300000D02*
X77480000Y-66300000D01*
X77480000Y-69700000D01*
X75520000Y-69700000D01*
X75520000Y-66300000D01*
%TD*%
M02*
