M48
; DRILL file KiCad 10.0.6-10.0.6~ubuntu24.04.1 date 2026-09-23T20:41:46
; FORMAT={-:-/ absolute / metric / decimal}
; #@! TF.CreationDate,2026-09-23T20:41:46+00:00
; #@! TF.GenerationSoftware,Kicad,Pcbnew,10.0.6-10.0.6~ubuntu24.04.1
; #@! TF.FileFunction,MixedPlating,1,2
FMAT,2
METRIC
; #@! TA.AperFunction,Plated,PTH,ViaDrill
T1C0.150
; #@! TA.AperFunction,Plated,PTH,ComponentDrill
T2C0.200
; #@! TA.AperFunction,Plated,PTH,ViaDrill
T3C0.300
; #@! TA.AperFunction,Plated,PTH,ComponentDrill
T4C0.600
; #@! TA.AperFunction,Plated,PTH,ComponentDrill
T5C0.800
; #@! TA.AperFunction,Plated,PTH,ComponentDrill
T6C0.900
; #@! TA.AperFunction,Plated,PTH,ComponentDrill
T7C1.000
; #@! TA.AperFunction,Plated,PTH,ComponentDrill
T8C1.100
; #@! TA.AperFunction,Plated,PTH,ComponentDrill
T9C1.300
; #@! TA.AperFunction,NonPlated,NPTH,ComponentDrill
T10C0.650
; #@! TA.AperFunction,NonPlated,NPTH,ComponentDrill
T11C1.000
; #@! TA.AperFunction,NonPlated,NPTH,ComponentDrill
T12C1.300
%
G90
G05
T1
X68.75Y-74.325
X68.75Y-75.175
T2
X94.6Y-73.26
X94.6Y-74.66
X95.3Y-72.56
X95.3Y-73.96
X95.3Y-75.36
X96.0Y-73.26
X96.0Y-74.66
X96.7Y-72.56
X96.7Y-73.96
X96.7Y-75.36
X97.4Y-73.26
X97.4Y-74.66
T3
X62.4Y-87.9
X63.4Y-87.0
X66.8Y-65.2
X67.5Y-93.6
X68.5Y-77.4
X70.1Y-94.7
X70.5Y-75.5
X70.7Y-102.0
X71.2Y-78.3
X71.3Y-84.9
X71.8Y-96.1
X72.3Y-85.5
X73.0Y-72.2
X73.0Y-104.3
X73.3Y-82.5
X73.3Y-83.9
X74.0Y-71.7
X74.3Y-75.0
X74.3Y-82.9
X76.5Y-67.0
X76.6Y-69.4
X76.6Y-70.8
X77.0Y-91.8
X77.7Y-89.8
X78.3Y-71.3
X79.2Y-68.9
X79.2Y-70.1
X79.2Y-87.8
X79.7Y-71.8
X79.9Y-76.3
X81.0Y-91.4
X81.2Y-99.9
X82.2Y-76.6
X82.2Y-82.9
X82.5Y-67.2
X82.6Y-103.2
X83.4Y-104.0
X83.6Y-84.6
X84.2Y-72.0
X84.9Y-87.8
X85.2Y-74.9
X85.9Y-105.6
X86.0Y-99.8
X86.1Y-89.2
X86.5Y-86.6
X87.4Y-87.9
X88.1Y-85.4
X88.6Y-69.0
X89.2Y-86.3
X89.5Y-84.0
X90.7Y-82.7
X90.8Y-103.6
X90.8Y-104.8
X92.7Y-80.3
X92.8Y-84.0
X94.4Y-82.8
X94.7Y-86.6
X95.2Y-85.7
X95.3Y-84.5
X96.0Y-85.7
X96.6Y-83.4
X97.5Y-85.7
X97.8Y-83.4
X99.6Y-103.6
X99.6Y-104.8
X99.7Y-84.5
X99.7Y-86.0
X100.6Y-95.0
X102.3Y-82.8
X102.3Y-85.2
X104.4Y-89.8
X105.0Y-95.0
X105.0Y-97.7
X105.3Y-103.6
X105.3Y-104.8
X105.6Y-87.4
X105.8Y-95.9
X106.8Y-86.2
X107.7Y-87.9
X109.0Y-77.6
X109.7Y-76.5
X110.7Y-78.3
X110.7Y-79.7
X111.2Y-71.2
X111.8Y-83.1
X112.0Y-85.8
X112.1Y-75.3
X116.2Y-111.2
X116.7Y-97.0
X116.7Y-99.0
X117.1Y-102.8
X117.6Y-101.7
X120.6Y-83.0
X120.7Y-86.3
X120.7Y-87.7
X121.7Y-93.3
X122.9Y-92.7
X129.8Y-81.5
X131.8Y-81.4
X134.3Y-112.8
T5
X144.5Y-72.19
X144.5Y-79.81
X156.9Y-78.25
X159.1Y-70.75
T6
X62.135Y-93.56
X62.135Y-100.5
X62.135Y-107.5
X64.675Y-93.56
X64.675Y-100.5
X64.675Y-107.5
T7
X63.0Y-67.5
X65.54Y-67.5
X68.08Y-67.5
X70.62Y-67.5
X124.65Y-75.1
X127.947Y-88.0
X127.947Y-106.0
X136.65Y-75.1
X151.5Y-70.5
X151.5Y-80.5
X161.547Y-94.0
X161.547Y-100.0
X163.54Y-69.19
X163.55Y-64.11
T8
X69.0Y-106.0
X69.0Y-112.5
X73.5Y-106.0
X73.5Y-112.5
X79.5Y-107.5
X79.5Y-114.0
X84.0Y-107.5
X84.0Y-114.0
X88.05Y-107.5
X88.05Y-114.0
X92.55Y-107.5
X92.55Y-114.0
X96.6Y-107.5
X96.6Y-114.0
X101.1Y-107.5
X101.1Y-114.0
X105.15Y-107.5
X105.15Y-114.0
X107.75Y-97.25
X107.75Y-101.75
X109.65Y-107.5
X109.65Y-114.0
X114.25Y-97.25
X114.25Y-101.75
T9
X124.6Y-62.85
X130.6Y-77.05
X136.65Y-62.9
X142.5Y-62.5
X147.5Y-62.5
X152.5Y-62.5
X157.5Y-62.5
T10
X67.605Y-72.11
X67.605Y-77.89
T11
X96.5Y-95.0
T12
X89.0Y-95.0
T4
X64.225Y-70.68G85X63.625Y-70.68
G05
X64.225Y-79.32G85X63.625Y-79.32
G05
X68.655Y-70.68G85X67.555Y-70.68
G05
X68.655Y-79.32G85X67.555Y-79.32
G05
M30
