%TF.GenerationSoftware,KiCad,Pcbnew,10.0.6-10.0.6~ubuntu24.04.1*%
%TF.CreationDate,2026-09-23T20:41:45+00:00*%
%TF.ProjectId,ViRa_V1.0,56695261-5f56-4312-9e30-2e6b69636164,rev?*%
%TF.SameCoordinates,Original*%
%TF.FileFunction,Copper,L2,Bot*%
%TF.FilePolarity,Positive*%
%FSLAX46Y46*%
G04 Gerber Fmt 4.6, Leading zero omitted, Abs format (unit mm)*
G04 Created by KiCad (PCBNEW 10.0.6-10.0.6~ubuntu24.04.1) date 2026-09-23 20:41:45*
%MOMM*%
%LPD*%
G01*
G04 APERTURE LIST*
G04 Aperture macros list*
%AMRoundRect*
0 Rectangle with rounded corners*
0 $1 Rounding radius*
0 $2 $3 $4 $5 $6 $7 $8 $9 X,Y pos of 4 corners*
0 Add a 4 corners polygon primitive as box body*
4,1,4,$2,$3,$4,$5,$6,$7,$8,$9,$2,$3,0*
0 Add four circle primitives for the rounded corners*
1,1,$1+$1,$2,$3*
1,1,$1+$1,$4,$5*
1,1,$1+$1,$6,$7*
1,1,$1+$1,$8,$9*
0 Add four rect primitives between the rounded corners*
20,1,$1+$1,$2,$3,$4,$5,0*
20,1,$1+$1,$4,$5,$6,$7,0*
20,1,$1+$1,$6,$7,$8,$9,0*
20,1,$1+$1,$8,$9,$2,$3,0*%
G04 Aperture macros list end*
%TA.AperFunction,HeatsinkPad*%
%ADD10C,0.600000*%
%TD*%
%TA.AperFunction,ComponentPad*%
%ADD11C,2.000000*%
%TD*%
%TA.AperFunction,ComponentPad*%
%ADD12R,1.800000X1.800000*%
%TD*%
%TA.AperFunction,ComponentPad*%
%ADD13C,1.800000*%
%TD*%
%TA.AperFunction,ComponentPad*%
%ADD14R,1.700000X1.700000*%
%TD*%
%TA.AperFunction,ComponentPad*%
%ADD15C,1.700000*%
%TD*%
%TA.AperFunction,ComponentPad*%
%ADD16RoundRect,0.250000X0.600000X0.750000X-0.600000X0.750000X-0.600000X-0.750000X0.600000X-0.750000X0*%
%TD*%
%TA.AperFunction,ComponentPad*%
%ADD17O,1.700000X2.000000*%
%TD*%
%TA.AperFunction,ComponentPad*%
%ADD18C,3.000000*%
%TD*%
%TA.AperFunction,ComponentPad*%
%ADD19C,2.500000*%
%TD*%
%TA.AperFunction,ComponentPad*%
%ADD20RoundRect,0.250001X1.149999X1.149999X-1.149999X1.149999X-1.149999X-1.149999X1.149999X-1.149999X0*%
%TD*%
%TA.AperFunction,ComponentPad*%
%ADD21C,2.800000*%
%TD*%
%TA.AperFunction,ComponentPad*%
%ADD22C,1.600000*%
%TD*%
%TA.AperFunction,ComponentPad*%
%ADD23O,2.100000X1.000000*%
%TD*%
%TA.AperFunction,ComponentPad*%
%ADD24O,1.600000X1.000000*%
%TD*%
%TA.AperFunction,ViaPad*%
%ADD25C,0.500000*%
%TD*%
%TA.AperFunction,ViaPad*%
%ADD26C,0.600000*%
%TD*%
%TA.AperFunction,ViaPad*%
%ADD27C,0.250000*%
%TD*%
%TA.AperFunction,Conductor*%
%ADD28C,0.200000*%
%TD*%
%TA.AperFunction,Conductor*%
%ADD29C,0.300000*%
%TD*%
%TA.AperFunction,Conductor*%
%ADD30C,2.000000*%
%TD*%
%TA.AperFunction,Conductor*%
%ADD31C,2.300000*%
%TD*%
G04 APERTURE END LIST*
D10*
%TO.P,U3,41,GND_41*%
%TO.N,GND*%
X94600000Y-73260000D03*
X94600000Y-74660000D03*
X95300000Y-72560000D03*
X95300000Y-73960000D03*
X95300000Y-75360000D03*
X96000000Y-73260000D03*
X96000000Y-74660000D03*
X96700000Y-72560000D03*
X96700000Y-73960000D03*
X96700000Y-75360000D03*
X97400000Y-73260000D03*
X97400000Y-74660000D03*
%TD*%
D11*
%TO.P,SW2,1,1_1*%
%TO.N,GND*%
X107750000Y-97250000D03*
X114250000Y-97250000D03*
%TO.P,SW2,2,2_2*%
%TO.N,BOOT*%
X107750000Y-101750000D03*
X114250000Y-101750000D03*
%TD*%
%TO.P,C1,1*%
%TO.N,Net-(U1-AC{slash}L)*%
X151500000Y-80500000D03*
%TO.P,C1,2*%
%TO.N,NEUTRAL*%
X151500000Y-70500000D03*
%TD*%
D12*
%TO.P,D5,1,K_1*%
%TO.N,GND*%
X62135000Y-100500000D03*
D13*
%TO.P,D5,2,A_2*%
%TO.N,Net-(D5-A)*%
X64675000Y-100500000D03*
%TD*%
D11*
%TO.P,SW5,1,1_1*%
%TO.N,GND*%
X96600000Y-114000000D03*
X96600000Y-107500000D03*
%TO.P,SW5,2,2_2*%
%TO.N,SW3{slash}IO13*%
X101100000Y-114000000D03*
X101100000Y-107500000D03*
%TD*%
%TO.P,F1,1*%
%TO.N,LINE*%
X163550000Y-64110000D03*
%TO.P,F1,2*%
%TO.N,Net-(U1-AC{slash}L)*%
X163540000Y-69190000D03*
%TD*%
D14*
%TO.P,J3,1,Pin_1_1*%
%TO.N,Net-(J3-Pin_1)*%
X70620000Y-67500000D03*
D15*
%TO.P,J3,2,Pin_2_2*%
%TO.N,Net-(J3-Pin_2)*%
X68080000Y-67500000D03*
%TO.P,J3,3,Pin_3_3*%
%TO.N,+3.3V*%
X65540000Y-67500000D03*
%TO.P,J3,4,Pin_4_4*%
%TO.N,GND*%
X63000000Y-67500000D03*
%TD*%
D11*
%TO.P,SW4,1,1_1*%
%TO.N,GND*%
X88050000Y-114000000D03*
X88050000Y-107500000D03*
%TO.P,SW4,2,2_2*%
%TO.N,SW2{slash}IO12*%
X92550000Y-114000000D03*
X92550000Y-107500000D03*
%TD*%
D12*
%TO.P,D1,1,K_1*%
%TO.N,GND*%
X62135000Y-93560000D03*
D13*
%TO.P,D1,2,A_2*%
%TO.N,Net-(D1-A)*%
X64675000Y-93560000D03*
%TD*%
D11*
%TO.P,SW3,1,1_1*%
%TO.N,GND*%
X79500000Y-114000000D03*
X79500000Y-107500000D03*
%TO.P,SW3,2,2_2*%
%TO.N,SW1{slash}IO11*%
X84000000Y-114000000D03*
X84000000Y-107500000D03*
%TD*%
D16*
%TO.P,U1,1,AC/L_1*%
%TO.N,Net-(U1-AC{slash}L)*%
X161547500Y-100000000D03*
D17*
%TO.P,U1,2,AC/N_2*%
%TO.N,NEUTRAL*%
X161547500Y-94000000D03*
%TO.P,U1,3,-Vout_3*%
%TO.N,GND*%
X127947500Y-106000000D03*
%TO.P,U1,4,+Vout_4*%
%TO.N,+5V*%
X127947500Y-88000000D03*
%TD*%
D11*
%TO.P,SW6,1,1_1*%
%TO.N,GND*%
X105150000Y-114000000D03*
X105150000Y-107500000D03*
%TO.P,SW6,2,2_2*%
%TO.N,SW4{slash}IO14*%
X109650000Y-114000000D03*
X109650000Y-107500000D03*
%TD*%
D18*
%TO.P,K2,1*%
%TO.N,R-C*%
X130600000Y-77050000D03*
D19*
%TO.P,K2,2*%
%TO.N,/RELAY_LO*%
X136650000Y-75100000D03*
D18*
%TO.P,K2,3*%
%TO.N,R-NO*%
X136650000Y-62900000D03*
%TO.P,K2,4*%
%TO.N,unconnected-(K2-Pad4)*%
X124600000Y-62850000D03*
D19*
%TO.P,K2,5*%
%TO.N,+5V*%
X124650000Y-75100000D03*
%TD*%
D12*
%TO.P,D6,1,K_1*%
%TO.N,GND*%
X62135000Y-107500000D03*
D13*
%TO.P,D6,2,A_2*%
%TO.N,Net-(D6-A)*%
X64675000Y-107500000D03*
%TD*%
D20*
%TO.P,J1,1,Pin_1_1*%
%TO.N,LINE*%
X157500000Y-62500000D03*
D21*
%TO.P,J1,2,Pin_2_2*%
%TO.N,NEUTRAL*%
X152500000Y-62500000D03*
%TO.P,J1,3,Pin_3_3*%
%TO.N,R-C*%
X147500000Y-62500000D03*
%TO.P,J1,4,Pin_4_4*%
%TO.N,R-NO*%
X142500000Y-62500000D03*
%TD*%
D13*
%TO.P,RV1,1*%
%TO.N,Net-(U1-AC{slash}L)*%
X156900000Y-78250000D03*
%TO.P,RV1,2*%
%TO.N,NEUTRAL*%
X159100000Y-70750000D03*
%TD*%
D11*
%TO.P,SW1,1,1_1*%
%TO.N,GND*%
X69000000Y-112500000D03*
X69000000Y-106000000D03*
%TO.P,SW1,2,2_2*%
%TO.N,CHIP-PU{slash}RST{slash}EN*%
X73500000Y-112500000D03*
X73500000Y-106000000D03*
%TD*%
D22*
%TO.P,R1,1*%
%TO.N,Net-(U1-AC{slash}L)*%
X144500000Y-79810000D03*
%TO.P,R1,2*%
%TO.N,NEUTRAL*%
X144500000Y-72190000D03*
%TD*%
D23*
%TO.P,J2,SH,SHIELD_SH*%
%TO.N,GND*%
X68105000Y-70680000D03*
D24*
X63925000Y-70680000D03*
D23*
X68105000Y-79320000D03*
D24*
X63925000Y-79320000D03*
%TD*%
D25*
%TO.N,GND*%
X84200000Y-72000000D03*
X100600000Y-95000000D03*
X120600000Y-83000000D03*
X81200000Y-99900000D03*
X74300000Y-75000000D03*
D26*
X109000000Y-77600000D03*
D25*
X111200000Y-71200000D03*
X134300000Y-112800000D03*
X76500000Y-67000000D03*
D26*
X112000000Y-85800000D03*
X109700000Y-76500000D03*
D25*
X116200000Y-111200000D03*
X67500000Y-93600000D03*
X82500000Y-67200000D03*
X112100000Y-75300000D03*
X73000000Y-104300000D03*
X73300000Y-82500000D03*
D26*
X71800000Y-96100000D03*
D25*
%TO.N,+3.3V*%
X76600000Y-70800000D03*
D26*
X79200000Y-87800000D03*
X77000000Y-91800000D03*
X79200000Y-68900000D03*
D25*
X66800000Y-65200000D03*
D26*
X117100000Y-102800000D03*
D25*
X76600000Y-69400000D03*
D26*
X82600000Y-103200000D03*
X83400000Y-104000000D03*
X92700000Y-80300000D03*
X83600000Y-84600000D03*
D25*
X116700000Y-97000000D03*
D26*
X77700000Y-89800000D03*
X117600000Y-101700000D03*
D25*
X116700000Y-99000000D03*
X70100000Y-94700000D03*
D26*
X79200000Y-70100000D03*
D25*
%TO.N,CHIP-PU{slash}RST{slash}EN*%
X70700000Y-102000000D03*
D26*
X94700000Y-86600000D03*
D25*
X88600000Y-69000000D03*
D26*
X94400000Y-82800000D03*
D25*
X85200000Y-74900000D03*
D26*
%TO.N,SDA{slash}IO8*%
X86100000Y-89200000D03*
D25*
X84900000Y-87800000D03*
%TO.N,SCL{slash}IO9*%
X92800000Y-84000000D03*
D26*
X82200000Y-76600000D03*
D25*
X79900000Y-76300000D03*
D26*
X87400000Y-87900000D03*
D25*
X89500000Y-84000000D03*
D26*
X90700000Y-82700000D03*
X86500000Y-86600000D03*
D25*
X81000000Y-91400000D03*
D26*
X82200000Y-82900000D03*
%TO.N,SW1{slash}IO11*%
X85900000Y-105600000D03*
X86000000Y-99800000D03*
X95300000Y-84500000D03*
X95200000Y-85700000D03*
%TO.N,SW2{slash}IO12*%
X90800000Y-103600000D03*
X96000000Y-85700000D03*
X90800000Y-104800000D03*
X96600000Y-83400000D03*
%TO.N,SW3{slash}IO13*%
X99600000Y-104800000D03*
X97800000Y-83400000D03*
X99600000Y-103600000D03*
X97500000Y-85700000D03*
%TO.N,SW4{slash}IO14*%
X105300000Y-104800000D03*
X99700000Y-84500000D03*
X99700000Y-86000000D03*
X105300000Y-103600000D03*
D25*
%TO.N,BOOT*%
X105000000Y-97700000D03*
D26*
X105800000Y-95900000D03*
D25*
X105000000Y-95000000D03*
D26*
%TO.N,Net-(U3-RXD0)*%
X102300000Y-82800000D03*
X102300000Y-85200000D03*
%TO.N,Net-(U3-TXD0)*%
X106800000Y-86200000D03*
X105600000Y-87400000D03*
%TO.N,/RELAY_LO*%
X131800000Y-81400000D03*
X129800000Y-81500000D03*
D25*
%TO.N,+5V*%
X88100000Y-85400000D03*
D26*
X121700000Y-93300000D03*
X62400000Y-87900000D03*
X71300000Y-84900000D03*
D25*
X89200000Y-86300000D03*
D26*
X107700000Y-87900000D03*
X72300000Y-85500000D03*
X122900000Y-92700000D03*
X111800000Y-83100000D03*
D25*
X63400000Y-87000000D03*
D26*
X104400000Y-89800000D03*
D25*
%TO.N,Net-(Q1-G)*%
X120700000Y-87700000D03*
X120700000Y-86300000D03*
D27*
%TO.N,/D-*%
X68750000Y-75175000D03*
D25*
X71200000Y-78300000D03*
D27*
X68750000Y-74325000D03*
D26*
%TO.N,VBUS*%
X70500000Y-75500000D03*
X73300000Y-83900000D03*
X74300000Y-82900000D03*
X68500000Y-77400000D03*
D25*
%TO.N,Net-(J3-Pin_2)*%
X79700000Y-71800000D03*
X78300000Y-71300000D03*
D26*
%TO.N,Net-(J3-Pin_1)*%
X74000000Y-71700000D03*
D25*
X73000000Y-72200000D03*
%TO.N,Net-(Q2-G)*%
X110700000Y-79700000D03*
X110700000Y-78300000D03*
%TD*%
%TO.N,GND*%
D28*
X112000000Y-85784680D02*
X112000000Y-85800000D01*
X109000000Y-77600000D02*
X109000000Y-77200000D01*
X71800000Y-96134680D02*
X71800000Y-96100000D01*
X109000000Y-77200000D02*
X109700000Y-76500000D01*
%TO.N,+3.3V*%
X76600000Y-69400000D02*
X76600000Y-70800000D01*
X117100000Y-102700000D02*
X117600000Y-102200000D01*
X117600000Y-102200000D02*
X117600000Y-101700000D01*
X79200000Y-68900000D02*
X79200000Y-70100000D01*
X66800000Y-65700000D02*
X65500000Y-67000000D01*
X79200000Y-88500000D02*
X77000000Y-90700000D01*
X87900000Y-80300000D02*
X92700000Y-80300000D01*
X65500000Y-67000000D02*
X65500000Y-67500000D01*
X82600000Y-103200000D02*
X83400000Y-104000000D01*
X83600000Y-84600000D02*
X87900000Y-80300000D01*
X77000000Y-90700000D02*
X77000000Y-91800000D01*
X66800000Y-65200000D02*
X66800000Y-65700000D01*
X79200000Y-87800000D02*
X79200000Y-88500000D01*
%TO.N,CHIP-PU{slash}RST{slash}EN*%
X94400000Y-86300000D02*
X94400000Y-82800000D01*
X94700000Y-86600000D02*
X94400000Y-86300000D01*
%TO.N,SDA{slash}IO8*%
X84900000Y-87900000D02*
X86100000Y-89100000D01*
%TO.N,SCL{slash}IO9*%
X90700000Y-82800000D02*
X90700000Y-82700000D01*
X86500000Y-86600000D02*
X87400000Y-87500000D01*
X87400000Y-87500000D02*
X87400000Y-87900000D01*
X89500000Y-84000000D02*
X90700000Y-82800000D01*
X82200000Y-82900000D02*
X82200000Y-76600000D01*
%TO.N,SW1{slash}IO11*%
X95300000Y-84500000D02*
X95200000Y-84600000D01*
X86000000Y-99800000D02*
X86000000Y-105500000D01*
X95200000Y-84600000D02*
X95200000Y-85700000D01*
%TO.N,SW2{slash}IO12*%
X90800000Y-103600000D02*
X90800000Y-104800000D01*
X96600000Y-83400000D02*
X96000000Y-84000000D01*
X96000000Y-84000000D02*
X96000000Y-85700000D01*
%TO.N,SW3{slash}IO13*%
X97500000Y-85700000D02*
X97800000Y-85400000D01*
X97800000Y-85400000D02*
X97800000Y-83400000D01*
X99600000Y-104800000D02*
X99600000Y-103600000D01*
%TO.N,SW4{slash}IO14*%
X105300000Y-104800000D02*
X105300000Y-103600000D01*
X99700000Y-86000000D02*
X99700000Y-84500000D01*
%TO.N,BOOT*%
X105000000Y-95100000D02*
X105800000Y-95900000D01*
%TO.N,Net-(U3-RXD0)*%
X102300000Y-82800000D02*
X102300000Y-85200000D01*
%TO.N,Net-(U3-TXD0)*%
X106800000Y-86200000D02*
X105600000Y-87400000D01*
%TO.N,/RELAY_LO*%
X129800000Y-81500000D02*
X131700000Y-81500000D01*
%TO.N,+5V*%
D29*
X104400000Y-89800000D02*
X105800000Y-89800000D01*
X121700000Y-93300000D02*
X122300000Y-93300000D01*
X122300000Y-93300000D02*
X122900000Y-92700000D01*
X71900000Y-85500000D02*
X72300000Y-85500000D01*
X63400000Y-87000000D02*
X62500000Y-87900000D01*
X88200000Y-85400000D02*
X89100000Y-86300000D01*
X71300000Y-84900000D02*
X71900000Y-85500000D01*
X105800000Y-89800000D02*
X111800000Y-83800000D01*
X62500000Y-87900000D02*
X62400000Y-87900000D01*
X111800000Y-83800000D02*
X111800000Y-83100000D01*
%TO.N,NEUTRAL*%
D30*
X159100000Y-73500000D02*
X161550000Y-73500000D01*
X161550000Y-73500000D02*
X161550000Y-94000000D01*
X159100000Y-70750000D02*
X159100000Y-73500000D01*
%TO.N,/D-*%
D28*
X68745000Y-75250000D02*
X68700000Y-75200000D01*
X68745000Y-75155000D02*
X68745000Y-74250000D01*
X68700000Y-75200000D02*
X68745000Y-75155000D01*
%TO.N,VBUS*%
D29*
X68500000Y-77400000D02*
X69200000Y-76700000D01*
X74300000Y-82900000D02*
X73300000Y-83900000D01*
X69200000Y-76700000D02*
X69300000Y-76700000D01*
X69300000Y-76700000D02*
X70500000Y-75500000D01*
%TO.N,Net-(J3-Pin_2)*%
D28*
X78400000Y-71300000D02*
X78900000Y-71800000D01*
X78900000Y-71800000D02*
X79700000Y-71800000D01*
%TO.N,Net-(J3-Pin_1)*%
X73000000Y-72200000D02*
X73500000Y-72200000D01*
X73500000Y-72200000D02*
X74000000Y-71700000D01*
%TO.N,R-C*%
D31*
X130600000Y-67000000D02*
X147500000Y-67000000D01*
X147500000Y-67000000D02*
X147500000Y-62500000D01*
X130600000Y-77050000D02*
X130600000Y-67000000D01*
%TD*%
%TA.AperFunction,Conductor*%
%TO.N,GND*%
G36*
X73485648Y-58499032D02*
G01*
X73500000Y-58533680D01*
X73500000Y-64750000D01*
X87751354Y-64750000D01*
X87786002Y-64764352D01*
X87797334Y-64785554D01*
X87797653Y-64785423D01*
X87798993Y-64788658D01*
X87799413Y-64789444D01*
X87799500Y-64789882D01*
X87830024Y-64863574D01*
X87830025Y-64863575D01*
X87830026Y-64863577D01*
X87886423Y-64919974D01*
X87886424Y-64919974D01*
X87886426Y-64919976D01*
X87960118Y-64950500D01*
X87960120Y-64950500D01*
X107089880Y-64950500D01*
X107089882Y-64950500D01*
X107163574Y-64919976D01*
X107163576Y-64919974D01*
X107163577Y-64919974D01*
X107219974Y-64863577D01*
X107219974Y-64863576D01*
X107219976Y-64863574D01*
X107250500Y-64789882D01*
X107250500Y-64789877D01*
X107250587Y-64789444D01*
X107250835Y-64789071D01*
X107252347Y-64785423D01*
X107253072Y-64785723D01*
X107271420Y-64758260D01*
X107298646Y-64750000D01*
X121500000Y-64750000D01*
X121500000Y-58533680D01*
X121514352Y-58499032D01*
X121549000Y-58484680D01*
X121951000Y-58484680D01*
X121985648Y-58499032D01*
X122000000Y-58533680D01*
X122000000Y-69000000D01*
X127451000Y-69000000D01*
X127485648Y-69014352D01*
X127500000Y-69049000D01*
X127500000Y-79500000D01*
X135500000Y-79500000D01*
X135500000Y-76190324D01*
X135514352Y-76155676D01*
X135549000Y-76141324D01*
X135583648Y-76155676D01*
X135672483Y-76244511D01*
X135672486Y-76244513D01*
X135672490Y-76244517D01*
X135863567Y-76383343D01*
X135863569Y-76383344D01*
X135863572Y-76383346D01*
X136074006Y-76490567D01*
X136074008Y-76490568D01*
X136298632Y-76563553D01*
X136531908Y-76600500D01*
X136531909Y-76600500D01*
X136768091Y-76600500D01*
X136768092Y-76600500D01*
X137001368Y-76563553D01*
X137225992Y-76490568D01*
X137436433Y-76383343D01*
X137627510Y-76244517D01*
X137794517Y-76077510D01*
X137933343Y-75886433D01*
X138040568Y-75675992D01*
X138064720Y-75601658D01*
X138089075Y-75573142D01*
X138126462Y-75570199D01*
X138154327Y-75593318D01*
X138303510Y-75866527D01*
X138303515Y-75866535D01*
X138303519Y-75866542D01*
X138372263Y-75973510D01*
X138378921Y-76010416D01*
X138372264Y-76026488D01*
X138303788Y-76133039D01*
X138303510Y-76133472D01*
X138057028Y-76584873D01*
X138057014Y-76584900D01*
X137843366Y-77052725D01*
X137827344Y-77095681D01*
X137663623Y-77534635D01*
X137663620Y-77534642D01*
X137663618Y-77534650D01*
X137518724Y-78028113D01*
X137518719Y-78028131D01*
X137409389Y-78530709D01*
X137409386Y-78530730D01*
X137336191Y-79039807D01*
X137299500Y-79552825D01*
X137299500Y-80067174D01*
X137336191Y-80580192D01*
X137409386Y-81089269D01*
X137409389Y-81089290D01*
X137518719Y-81591868D01*
X137518724Y-81591886D01*
X137663618Y-82085349D01*
X137663623Y-82085365D01*
X137813618Y-82487516D01*
X137843366Y-82567274D01*
X138057014Y-83035099D01*
X138057022Y-83035115D01*
X138057026Y-83035123D01*
X138114571Y-83140509D01*
X138303516Y-83486538D01*
X138435999Y-83692685D01*
X138581589Y-83919226D01*
X138889817Y-84330971D01*
X138889820Y-84330975D01*
X138889825Y-84330981D01*
X138950063Y-84400499D01*
X138973481Y-84427525D01*
X138988032Y-84444317D01*
X139000000Y-84476405D01*
X139000000Y-115466320D01*
X138985648Y-115500968D01*
X138951000Y-115515320D01*
X64195447Y-115515320D01*
X64160799Y-115500968D01*
X64146447Y-115466320D01*
X64160799Y-115431672D01*
X64165618Y-115427446D01*
X64225002Y-115381879D01*
X64225003Y-115381877D01*
X64225007Y-115381875D01*
X64382708Y-115224174D01*
X64501372Y-115069527D01*
X64518466Y-115047250D01*
X64518467Y-115047247D01*
X64518475Y-115047238D01*
X64629987Y-114854095D01*
X64715334Y-114648049D01*
X64773056Y-114432626D01*
X64802166Y-114211511D01*
X64802166Y-113988489D01*
X64790725Y-113901583D01*
X82749500Y-113901583D01*
X82749500Y-114098416D01*
X82780290Y-114292823D01*
X82780291Y-114292826D01*
X82841116Y-114480026D01*
X82930472Y-114655399D01*
X82930475Y-114655403D01*
X82930476Y-114655405D01*
X83046172Y-114814646D01*
X83046174Y-114814648D01*
X83046177Y-114814652D01*
X83185347Y-114953822D01*
X83185350Y-114953824D01*
X83185354Y-114953828D01*
X83344595Y-115069524D01*
X83344597Y-115069525D01*
X83344600Y-115069527D01*
X83519973Y-115158883D01*
X83519975Y-115158884D01*
X83707174Y-115219709D01*
X83901583Y-115250500D01*
X83901584Y-115250500D01*
X84098416Y-115250500D01*
X84098417Y-115250500D01*
X84292826Y-115219709D01*
X84480025Y-115158884D01*
X84655405Y-115069524D01*
X84814646Y-114953828D01*
X84953828Y-114814646D01*
X85069524Y-114655405D01*
X85158884Y-114480025D01*
X85219709Y-114292826D01*
X85250500Y-114098417D01*
X85250500Y-113901583D01*
X91299500Y-113901583D01*
X91299500Y-114098416D01*
X91330290Y-114292823D01*
X91330291Y-114292826D01*
X91391116Y-114480026D01*
X91480472Y-114655399D01*
X91480475Y-114655403D01*
X91480476Y-114655405D01*
X91596172Y-114814646D01*
X91596174Y-114814648D01*
X91596177Y-114814652D01*
X91735347Y-114953822D01*
X91735350Y-114953824D01*
X91735354Y-114953828D01*
X91894595Y-115069524D01*
X91894597Y-115069525D01*
X91894600Y-115069527D01*
X92069973Y-115158883D01*
X92069975Y-115158884D01*
X92257174Y-115219709D01*
X92451583Y-115250500D01*
X92451584Y-115250500D01*
X92648416Y-115250500D01*
X92648417Y-115250500D01*
X92842826Y-115219709D01*
X93030025Y-115158884D01*
X93205405Y-115069524D01*
X93364646Y-114953828D01*
X93503828Y-114814646D01*
X93619524Y-114655405D01*
X93708884Y-114480025D01*
X93769709Y-114292826D01*
X93800500Y-114098417D01*
X93800500Y-113901583D01*
X99849500Y-113901583D01*
X99849500Y-114098416D01*
X99880290Y-114292823D01*
X99880291Y-114292826D01*
X99941116Y-114480026D01*
X100030472Y-114655399D01*
X100030475Y-114655403D01*
X100030476Y-114655405D01*
X100146172Y-114814646D01*
X100146174Y-114814648D01*
X100146177Y-114814652D01*
X100285347Y-114953822D01*
X100285350Y-114953824D01*
X100285354Y-114953828D01*
X100444595Y-115069524D01*
X100444597Y-115069525D01*
X100444600Y-115069527D01*
X100619973Y-115158883D01*
X100619975Y-115158884D01*
X100807174Y-115219709D01*
X101001583Y-115250500D01*
X101001584Y-115250500D01*
X101198416Y-115250500D01*
X101198417Y-115250500D01*
X101392826Y-115219709D01*
X101580025Y-115158884D01*
X101755405Y-115069524D01*
X101914646Y-114953828D01*
X102053828Y-114814646D01*
X102169524Y-114655405D01*
X102258884Y-114480025D01*
X102319709Y-114292826D01*
X102350500Y-114098417D01*
X102350500Y-113901583D01*
X108399500Y-113901583D01*
X108399500Y-114098416D01*
X108430290Y-114292823D01*
X108430291Y-114292826D01*
X108491116Y-114480026D01*
X108580472Y-114655399D01*
X108580475Y-114655403D01*
X108580476Y-114655405D01*
X108696172Y-114814646D01*
X108696174Y-114814648D01*
X108696177Y-114814652D01*
X108835347Y-114953822D01*
X108835350Y-114953824D01*
X108835354Y-114953828D01*
X108994595Y-115069524D01*
X108994597Y-115069525D01*
X108994600Y-115069527D01*
X109169973Y-115158883D01*
X109169975Y-115158884D01*
X109357174Y-115219709D01*
X109551583Y-115250500D01*
X109551584Y-115250500D01*
X109748416Y-115250500D01*
X109748417Y-115250500D01*
X109942826Y-115219709D01*
X110130025Y-115158884D01*
X110305405Y-115069524D01*
X110464646Y-114953828D01*
X110603828Y-114814646D01*
X110719524Y-114655405D01*
X110808884Y-114480025D01*
X110869709Y-114292826D01*
X110900500Y-114098417D01*
X110900500Y-113901583D01*
X110869709Y-113707174D01*
X110808884Y-113519975D01*
X110720192Y-113345906D01*
X110719527Y-113344600D01*
X110719525Y-113344597D01*
X110719524Y-113344595D01*
X110603828Y-113185354D01*
X110603824Y-113185350D01*
X110603822Y-113185347D01*
X110464652Y-113046177D01*
X110464653Y-113046177D01*
X110433945Y-113023866D01*
X110305405Y-112930476D01*
X110305403Y-112930475D01*
X110305399Y-112930472D01*
X110130026Y-112841116D01*
X109942826Y-112780291D01*
X109942823Y-112780290D01*
X109793482Y-112756637D01*
X109748417Y-112749500D01*
X109551583Y-112749500D01*
X109514998Y-112755294D01*
X109357176Y-112780290D01*
X109357173Y-112780291D01*
X109169973Y-112841116D01*
X108994600Y-112930472D01*
X108835347Y-113046177D01*
X108696177Y-113185347D01*
X108580472Y-113344600D01*
X108491116Y-113519973D01*
X108430291Y-113707173D01*
X108430290Y-113707176D01*
X108399500Y-113901583D01*
X102350500Y-113901583D01*
X102319709Y-113707174D01*
X102258884Y-113519975D01*
X102170192Y-113345906D01*
X102169527Y-113344600D01*
X102169525Y-113344597D01*
X102169524Y-113344595D01*
X102053828Y-113185354D01*
X102053824Y-113185350D01*
X102053822Y-113185347D01*
X101914652Y-113046177D01*
X101914653Y-113046177D01*
X101883945Y-113023866D01*
X101755405Y-112930476D01*
X101755403Y-112930475D01*
X101755399Y-112930472D01*
X101580026Y-112841116D01*
X101392826Y-112780291D01*
X101392823Y-112780290D01*
X101243482Y-112756637D01*
X101198417Y-112749500D01*
X101001583Y-112749500D01*
X100964998Y-112755294D01*
X100807176Y-112780290D01*
X100807173Y-112780291D01*
X100619973Y-112841116D01*
X100444600Y-112930472D01*
X100285347Y-113046177D01*
X100146177Y-113185347D01*
X100030472Y-113344600D01*
X99941116Y-113519973D01*
X99880291Y-113707173D01*
X99880290Y-113707176D01*
X99849500Y-113901583D01*
X93800500Y-113901583D01*
X93769709Y-113707174D01*
X93708884Y-113519975D01*
X93620192Y-113345906D01*
X93619527Y-113344600D01*
X93619525Y-113344597D01*
X93619524Y-113344595D01*
X93503828Y-113185354D01*
X93503824Y-113185350D01*
X93503822Y-113185347D01*
X93364652Y-113046177D01*
X93364653Y-113046177D01*
X93333945Y-113023866D01*
X93205405Y-112930476D01*
X93205403Y-112930475D01*
X93205399Y-112930472D01*
X93030026Y-112841116D01*
X92842826Y-112780291D01*
X92842823Y-112780290D01*
X92693482Y-112756637D01*
X92648417Y-112749500D01*
X92451583Y-112749500D01*
X92414998Y-112755294D01*
X92257176Y-112780290D01*
X92257173Y-112780291D01*
X92069973Y-112841116D01*
X91894600Y-112930472D01*
X91735347Y-113046177D01*
X91596177Y-113185347D01*
X91480472Y-113344600D01*
X91391116Y-113519973D01*
X91330291Y-113707173D01*
X91330290Y-113707176D01*
X91299500Y-113901583D01*
X85250500Y-113901583D01*
X85219709Y-113707174D01*
X85158884Y-113519975D01*
X85070192Y-113345906D01*
X85069527Y-113344600D01*
X85069525Y-113344597D01*
X85069524Y-113344595D01*
X84953828Y-113185354D01*
X84953824Y-113185350D01*
X84953822Y-113185347D01*
X84814652Y-113046177D01*
X84814653Y-113046177D01*
X84783945Y-113023866D01*
X84655405Y-112930476D01*
X84655403Y-112930475D01*
X84655399Y-112930472D01*
X84480026Y-112841116D01*
X84292826Y-112780291D01*
X84292823Y-112780290D01*
X84143482Y-112756637D01*
X84098417Y-112749500D01*
X83901583Y-112749500D01*
X83864998Y-112755294D01*
X83707176Y-112780290D01*
X83707173Y-112780291D01*
X83519973Y-112841116D01*
X83344600Y-112930472D01*
X83185347Y-113046177D01*
X83046177Y-113185347D01*
X82930472Y-113344600D01*
X82841116Y-113519973D01*
X82780291Y-113707173D01*
X82780290Y-113707176D01*
X82749500Y-113901583D01*
X64790725Y-113901583D01*
X64773056Y-113767374D01*
X64715334Y-113551951D01*
X64629987Y-113345905D01*
X64518475Y-113152762D01*
X64518472Y-113152758D01*
X64518466Y-113152749D01*
X64382712Y-112975831D01*
X64382702Y-112975819D01*
X64225013Y-112818130D01*
X64225001Y-112818120D01*
X64048083Y-112682366D01*
X64048068Y-112682356D01*
X63854926Y-112570845D01*
X63648883Y-112485499D01*
X63648877Y-112485497D01*
X63505159Y-112446988D01*
X63433470Y-112427779D01*
X63433463Y-112427778D01*
X63433459Y-112427777D01*
X63234493Y-112401583D01*
X72249500Y-112401583D01*
X72249500Y-112598416D01*
X72280290Y-112792823D01*
X72280291Y-112792826D01*
X72341116Y-112980026D01*
X72430472Y-113155399D01*
X72430475Y-113155403D01*
X72430476Y-113155405D01*
X72546172Y-113314646D01*
X72546174Y-113314648D01*
X72546177Y-113314652D01*
X72685347Y-113453822D01*
X72685350Y-113453824D01*
X72685354Y-113453828D01*
X72844595Y-113569524D01*
X72844597Y-113569525D01*
X72844600Y-113569527D01*
X73019973Y-113658883D01*
X73019975Y-113658884D01*
X73207174Y-113719709D01*
X73401583Y-113750500D01*
X73401584Y-113750500D01*
X73598416Y-113750500D01*
X73598417Y-113750500D01*
X73792826Y-113719709D01*
X73980025Y-113658884D01*
X74155405Y-113569524D01*
X74314646Y-113453828D01*
X74453828Y-113314646D01*
X74569524Y-113155405D01*
X74658884Y-112980025D01*
X74719709Y-112792826D01*
X74750500Y-112598417D01*
X74750500Y-112401583D01*
X74719709Y-112207174D01*
X74658884Y-112019975D01*
X74569524Y-111844595D01*
X74453828Y-111685354D01*
X74453824Y-111685350D01*
X74453822Y-111685347D01*
X74314652Y-111546177D01*
X74314653Y-111546177D01*
X74155399Y-111430472D01*
X73980026Y-111341116D01*
X73792826Y-111280291D01*
X73792823Y-111280290D01*
X73643482Y-111256637D01*
X73598417Y-111249500D01*
X73401583Y-111249500D01*
X73364998Y-111255294D01*
X73207176Y-111280290D01*
X73207173Y-111280291D01*
X73019973Y-111341116D01*
X72844600Y-111430472D01*
X72685347Y-111546177D01*
X72546177Y-111685347D01*
X72430472Y-111844600D01*
X72341116Y-112019973D01*
X72280291Y-112207173D01*
X72280290Y-112207176D01*
X72249500Y-112401583D01*
X63234493Y-112401583D01*
X63212344Y-112398667D01*
X62989322Y-112398667D01*
X62768207Y-112427777D01*
X62768203Y-112427777D01*
X62768195Y-112427779D01*
X62552788Y-112485497D01*
X62552782Y-112485499D01*
X62346739Y-112570845D01*
X62153597Y-112682356D01*
X62153582Y-112682366D01*
X61976664Y-112818120D01*
X61976652Y-112818130D01*
X61818963Y-112975819D01*
X61818953Y-112975831D01*
X61683199Y-113152749D01*
X61683189Y-113152765D01*
X61591435Y-113311686D01*
X61561682Y-113334516D01*
X61524500Y-113329621D01*
X61501670Y-113299868D01*
X61500000Y-113287186D01*
X61500000Y-107409454D01*
X63524500Y-107409454D01*
X63524500Y-107590546D01*
X63525747Y-107598417D01*
X63552828Y-107769406D01*
X63552829Y-107769409D01*
X63560437Y-107792826D01*
X63608789Y-107941639D01*
X63691004Y-108102994D01*
X63729083Y-108155405D01*
X63797448Y-108249502D01*
X63797452Y-108249507D01*
X63925493Y-108377548D01*
X63925497Y-108377551D01*
X63925499Y-108377553D01*
X64072006Y-108483996D01*
X64233361Y-108566211D01*
X64405591Y-108622171D01*
X64584454Y-108650500D01*
X64584455Y-108650500D01*
X64765545Y-108650500D01*
X64765546Y-108650500D01*
X64944409Y-108622171D01*
X65116639Y-108566211D01*
X65277994Y-108483996D01*
X65424501Y-108377553D01*
X65424504Y-108377549D01*
X65424507Y-108377548D01*
X65552548Y-108249507D01*
X65552549Y-108249504D01*
X65552553Y-108249501D01*
X65658996Y-108102994D01*
X65741211Y-107941639D01*
X65797171Y-107769409D01*
X65825500Y-107590546D01*
X65825500Y-107409454D01*
X65824253Y-107401583D01*
X82749500Y-107401583D01*
X82749500Y-107598416D01*
X82780290Y-107792823D01*
X82780291Y-107792826D01*
X82841116Y-107980026D01*
X82930472Y-108155399D01*
X82930475Y-108155403D01*
X82930476Y-108155405D01*
X83046172Y-108314646D01*
X83046174Y-108314648D01*
X83046177Y-108314652D01*
X83185347Y-108453822D01*
X83185350Y-108453824D01*
X83185354Y-108453828D01*
X83344595Y-108569524D01*
X83344597Y-108569525D01*
X83344600Y-108569527D01*
X83447919Y-108622170D01*
X83519975Y-108658884D01*
X83707174Y-108719709D01*
X83901583Y-108750500D01*
X83901584Y-108750500D01*
X84098416Y-108750500D01*
X84098417Y-108750500D01*
X84292826Y-108719709D01*
X84480025Y-108658884D01*
X84655405Y-108569524D01*
X84814646Y-108453828D01*
X84953828Y-108314646D01*
X85069524Y-108155405D01*
X85158884Y-107980025D01*
X85219709Y-107792826D01*
X85250500Y-107598417D01*
X85250500Y-107401583D01*
X91299500Y-107401583D01*
X91299500Y-107598416D01*
X91330290Y-107792823D01*
X91330291Y-107792826D01*
X91391116Y-107980026D01*
X91480472Y-108155399D01*
X91480475Y-108155403D01*
X91480476Y-108155405D01*
X91596172Y-108314646D01*
X91596174Y-108314648D01*
X91596177Y-108314652D01*
X91735347Y-108453822D01*
X91735350Y-108453824D01*
X91735354Y-108453828D01*
X91894595Y-108569524D01*
X91894597Y-108569525D01*
X91894600Y-108569527D01*
X91997919Y-108622170D01*
X92069975Y-108658884D01*
X92257174Y-108719709D01*
X92451583Y-108750500D01*
X92451584Y-108750500D01*
X92648416Y-108750500D01*
X92648417Y-108750500D01*
X92842826Y-108719709D01*
X93030025Y-108658884D01*
X93205405Y-108569524D01*
X93364646Y-108453828D01*
X93503828Y-108314646D01*
X93619524Y-108155405D01*
X93708884Y-107980025D01*
X93769709Y-107792826D01*
X93800500Y-107598417D01*
X93800500Y-107401583D01*
X99849500Y-107401583D01*
X99849500Y-107598416D01*
X99880290Y-107792823D01*
X99880291Y-107792826D01*
X99941116Y-107980026D01*
X100030472Y-108155399D01*
X100030475Y-108155403D01*
X100030476Y-108155405D01*
X100146172Y-108314646D01*
X100146174Y-108314648D01*
X100146177Y-108314652D01*
X100285347Y-108453822D01*
X100285350Y-108453824D01*
X100285354Y-108453828D01*
X100444595Y-108569524D01*
X100444597Y-108569525D01*
X100444600Y-108569527D01*
X100547919Y-108622170D01*
X100619975Y-108658884D01*
X100807174Y-108719709D01*
X101001583Y-108750500D01*
X101001584Y-108750500D01*
X101198416Y-108750500D01*
X101198417Y-108750500D01*
X101392826Y-108719709D01*
X101580025Y-108658884D01*
X101755405Y-108569524D01*
X101914646Y-108453828D01*
X102053828Y-108314646D01*
X102169524Y-108155405D01*
X102258884Y-107980025D01*
X102319709Y-107792826D01*
X102350500Y-107598417D01*
X102350500Y-107401583D01*
X108399500Y-107401583D01*
X108399500Y-107598416D01*
X108430290Y-107792823D01*
X108430291Y-107792826D01*
X108491116Y-107980026D01*
X108580472Y-108155399D01*
X108580475Y-108155403D01*
X108580476Y-108155405D01*
X108696172Y-108314646D01*
X108696174Y-108314648D01*
X108696177Y-108314652D01*
X108835347Y-108453822D01*
X108835350Y-108453824D01*
X108835354Y-108453828D01*
X108994595Y-108569524D01*
X108994597Y-108569525D01*
X108994600Y-108569527D01*
X109097919Y-108622170D01*
X109169975Y-108658884D01*
X109357174Y-108719709D01*
X109551583Y-108750500D01*
X109551584Y-108750500D01*
X109748416Y-108750500D01*
X109748417Y-108750500D01*
X109942826Y-108719709D01*
X110130025Y-108658884D01*
X110305405Y-108569524D01*
X110464646Y-108453828D01*
X110603828Y-108314646D01*
X110719524Y-108155405D01*
X110808884Y-107980025D01*
X110869709Y-107792826D01*
X110900500Y-107598417D01*
X110900500Y-107401583D01*
X110869709Y-107207174D01*
X110808884Y-107019975D01*
X110719524Y-106844595D01*
X110603828Y-106685354D01*
X110603824Y-106685350D01*
X110603822Y-106685347D01*
X110464652Y-106546177D01*
X110464653Y-106546177D01*
X110433945Y-106523866D01*
X110305405Y-106430476D01*
X110305403Y-106430475D01*
X110305399Y-106430472D01*
X110130026Y-106341116D01*
X109942826Y-106280291D01*
X109942823Y-106280290D01*
X109793482Y-106256637D01*
X109748417Y-106249500D01*
X109551583Y-106249500D01*
X109514998Y-106255294D01*
X109357176Y-106280290D01*
X109357173Y-106280291D01*
X109169973Y-106341116D01*
X108994600Y-106430472D01*
X108835347Y-106546177D01*
X108696177Y-106685347D01*
X108580472Y-106844600D01*
X108491116Y-107019973D01*
X108430291Y-107207173D01*
X108430290Y-107207176D01*
X108399500Y-107401583D01*
X102350500Y-107401583D01*
X102319709Y-107207174D01*
X102258884Y-107019975D01*
X102169524Y-106844595D01*
X102053828Y-106685354D01*
X102053824Y-106685350D01*
X102053822Y-106685347D01*
X101914652Y-106546177D01*
X101914653Y-106546177D01*
X101883945Y-106523866D01*
X101755405Y-106430476D01*
X101755403Y-106430475D01*
X101755399Y-106430472D01*
X101580026Y-106341116D01*
X101392826Y-106280291D01*
X101392823Y-106280290D01*
X101243482Y-106256637D01*
X101198417Y-106249500D01*
X101001583Y-106249500D01*
X100964998Y-106255294D01*
X100807176Y-106280290D01*
X100807173Y-106280291D01*
X100619973Y-106341116D01*
X100444600Y-106430472D01*
X100285347Y-106546177D01*
X100146177Y-106685347D01*
X100030472Y-106844600D01*
X99941116Y-107019973D01*
X99880291Y-107207173D01*
X99880290Y-107207176D01*
X99849500Y-107401583D01*
X93800500Y-107401583D01*
X93769709Y-107207174D01*
X93708884Y-107019975D01*
X93619524Y-106844595D01*
X93503828Y-106685354D01*
X93503824Y-106685350D01*
X93503822Y-106685347D01*
X93364652Y-106546177D01*
X93364653Y-106546177D01*
X93333945Y-106523866D01*
X93205405Y-106430476D01*
X93205403Y-106430475D01*
X93205399Y-106430472D01*
X93030026Y-106341116D01*
X92842826Y-106280291D01*
X92842823Y-106280290D01*
X92693482Y-106256637D01*
X92648417Y-106249500D01*
X92451583Y-106249500D01*
X92414998Y-106255294D01*
X92257176Y-106280290D01*
X92257173Y-106280291D01*
X92069973Y-106341116D01*
X91894600Y-106430472D01*
X91735347Y-106546177D01*
X91596177Y-106685347D01*
X91480472Y-106844600D01*
X91391116Y-107019973D01*
X91330291Y-107207173D01*
X91330290Y-107207176D01*
X91299500Y-107401583D01*
X85250500Y-107401583D01*
X85219709Y-107207174D01*
X85158884Y-107019975D01*
X85069524Y-106844595D01*
X84953828Y-106685354D01*
X84953824Y-106685350D01*
X84953822Y-106685347D01*
X84814652Y-106546177D01*
X84814653Y-106546177D01*
X84783945Y-106523866D01*
X84655405Y-106430476D01*
X84655403Y-106430475D01*
X84655399Y-106430472D01*
X84480026Y-106341116D01*
X84292826Y-106280291D01*
X84292823Y-106280290D01*
X84143482Y-106256637D01*
X84098417Y-106249500D01*
X83901583Y-106249500D01*
X83864998Y-106255294D01*
X83707176Y-106280290D01*
X83707173Y-106280291D01*
X83519973Y-106341116D01*
X83344600Y-106430472D01*
X83185347Y-106546177D01*
X83046177Y-106685347D01*
X82930472Y-106844600D01*
X82841116Y-107019973D01*
X82780291Y-107207173D01*
X82780290Y-107207176D01*
X82749500Y-107401583D01*
X65824253Y-107401583D01*
X65797171Y-107230591D01*
X65741211Y-107058361D01*
X65658996Y-106897006D01*
X65552553Y-106750499D01*
X65552551Y-106750497D01*
X65552548Y-106750493D01*
X65424507Y-106622452D01*
X65424502Y-106622448D01*
X65424501Y-106622447D01*
X65277994Y-106516004D01*
X65116639Y-106433789D01*
X65116638Y-106433788D01*
X65116637Y-106433788D01*
X64944409Y-106377829D01*
X64944406Y-106377828D01*
X64807007Y-106356066D01*
X64765546Y-106349500D01*
X64584454Y-106349500D01*
X64550794Y-106354831D01*
X64405593Y-106377828D01*
X64405590Y-106377829D01*
X64233362Y-106433788D01*
X64072006Y-106516004D01*
X63925497Y-106622448D01*
X63797448Y-106750497D01*
X63691004Y-106897006D01*
X63608788Y-107058362D01*
X63552829Y-107230590D01*
X63552828Y-107230593D01*
X63525747Y-107401583D01*
X63524500Y-107409454D01*
X61500000Y-107409454D01*
X61500000Y-105901583D01*
X72249500Y-105901583D01*
X72249500Y-106098416D01*
X72280290Y-106292823D01*
X72280291Y-106292826D01*
X72341116Y-106480026D01*
X72430472Y-106655399D01*
X72430475Y-106655403D01*
X72430476Y-106655405D01*
X72546172Y-106814646D01*
X72546174Y-106814648D01*
X72546177Y-106814652D01*
X72685347Y-106953822D01*
X72685350Y-106953824D01*
X72685354Y-106953828D01*
X72844595Y-107069524D01*
X72844597Y-107069525D01*
X72844600Y-107069527D01*
X73019973Y-107158883D01*
X73019975Y-107158884D01*
X73207174Y-107219709D01*
X73401583Y-107250500D01*
X73401584Y-107250500D01*
X73598416Y-107250500D01*
X73598417Y-107250500D01*
X73792826Y-107219709D01*
X73980025Y-107158884D01*
X74155405Y-107069524D01*
X74314646Y-106953828D01*
X74453828Y-106814646D01*
X74569524Y-106655405D01*
X74658884Y-106480025D01*
X74719709Y-106292826D01*
X74750500Y-106098417D01*
X74750500Y-105901583D01*
X74719709Y-105707174D01*
X74661336Y-105527522D01*
X85349500Y-105527522D01*
X85349500Y-105672477D01*
X85387015Y-105812483D01*
X85387016Y-105812487D01*
X85438457Y-105901583D01*
X85459491Y-105938015D01*
X85561985Y-106040509D01*
X85607930Y-106067035D01*
X85687512Y-106112983D01*
X85687514Y-106112983D01*
X85687515Y-106112984D01*
X85722517Y-106122363D01*
X85827522Y-106150500D01*
X85827525Y-106150500D01*
X85972477Y-106150500D01*
X86042480Y-106131742D01*
X86112485Y-106112984D01*
X86238015Y-106040509D01*
X86340509Y-105938015D01*
X86412984Y-105812485D01*
X86441202Y-105707176D01*
X86450500Y-105672477D01*
X86450500Y-105527522D01*
X86412984Y-105387516D01*
X86412983Y-105387512D01*
X86357065Y-105290659D01*
X86350500Y-105266159D01*
X86350500Y-103527522D01*
X90249500Y-103527522D01*
X90249500Y-103672477D01*
X90287015Y-103812483D01*
X90287016Y-103812487D01*
X90359491Y-103938015D01*
X90435148Y-104013672D01*
X90449500Y-104048320D01*
X90449500Y-104351680D01*
X90435148Y-104386328D01*
X90359492Y-104461984D01*
X90359491Y-104461984D01*
X90287016Y-104587512D01*
X90287015Y-104587516D01*
X90249500Y-104727522D01*
X90249500Y-104872477D01*
X90287015Y-105012483D01*
X90287016Y-105012487D01*
X90326385Y-105080674D01*
X90359491Y-105138015D01*
X90461985Y-105240509D01*
X90506412Y-105266159D01*
X90587512Y-105312983D01*
X90587514Y-105312983D01*
X90587515Y-105312984D01*
X90622517Y-105322363D01*
X90727522Y-105350500D01*
X90727525Y-105350500D01*
X90872477Y-105350500D01*
X90942480Y-105331742D01*
X91012485Y-105312984D01*
X91138015Y-105240509D01*
X91240509Y-105138015D01*
X91312984Y-105012485D01*
X91331742Y-104942480D01*
X91350500Y-104872477D01*
X91350500Y-104727522D01*
X91312984Y-104587516D01*
X91312983Y-104587512D01*
X91240508Y-104461984D01*
X91164852Y-104386328D01*
X91150500Y-104351680D01*
X91150500Y-104048320D01*
X91164852Y-104013672D01*
X91240508Y-103938016D01*
X91240509Y-103938015D01*
X91312984Y-103812485D01*
X91339646Y-103712983D01*
X91350500Y-103672477D01*
X91350500Y-103527522D01*
X99049500Y-103527522D01*
X99049500Y-103672477D01*
X99087015Y-103812483D01*
X99087016Y-103812487D01*
X99159491Y-103938015D01*
X99235148Y-104013672D01*
X99249500Y-104048320D01*
X99249500Y-104351680D01*
X99235148Y-104386328D01*
X99159492Y-104461984D01*
X99159491Y-104461984D01*
X99087016Y-104587512D01*
X99087015Y-104587516D01*
X99049500Y-104727522D01*
X99049500Y-104872477D01*
X99087015Y-105012483D01*
X99087016Y-105012487D01*
X99126385Y-105080674D01*
X99159491Y-105138015D01*
X99261985Y-105240509D01*
X99306412Y-105266159D01*
X99387512Y-105312983D01*
X99387514Y-105312983D01*
X99387515Y-105312984D01*
X99422517Y-105322363D01*
X99527522Y-105350500D01*
X99527525Y-105350500D01*
X99672477Y-105350500D01*
X99742480Y-105331742D01*
X99812485Y-105312984D01*
X99938015Y-105240509D01*
X100040509Y-105138015D01*
X100112984Y-105012485D01*
X100131742Y-104942480D01*
X100150500Y-104872477D01*
X100150500Y-104727522D01*
X100112984Y-104587516D01*
X100112983Y-104587512D01*
X100040508Y-104461984D01*
X99964852Y-104386328D01*
X99950500Y-104351680D01*
X99950500Y-104048320D01*
X99964852Y-104013672D01*
X100040508Y-103938016D01*
X100040509Y-103938015D01*
X100112984Y-103812485D01*
X100139646Y-103712983D01*
X100150500Y-103672477D01*
X100150500Y-103527522D01*
X104749500Y-103527522D01*
X104749500Y-103672477D01*
X104787015Y-103812483D01*
X104787016Y-103812487D01*
X104859491Y-103938015D01*
X104935148Y-104013672D01*
X104949500Y-104048320D01*
X104949500Y-104351680D01*
X104935148Y-104386328D01*
X104859492Y-104461984D01*
X104859491Y-104461984D01*
X104787016Y-104587512D01*
X104787015Y-104587516D01*
X104749500Y-104727522D01*
X104749500Y-104872477D01*
X104787015Y-105012483D01*
X104787016Y-105012487D01*
X104826385Y-105080674D01*
X104859491Y-105138015D01*
X104961985Y-105240509D01*
X105006412Y-105266159D01*
X105087512Y-105312983D01*
X105087514Y-105312983D01*
X105087515Y-105312984D01*
X105122517Y-105322363D01*
X105227522Y-105350500D01*
X105227525Y-105350500D01*
X105372477Y-105350500D01*
X105442480Y-105331742D01*
X105512485Y-105312984D01*
X105638015Y-105240509D01*
X105740509Y-105138015D01*
X105812984Y-105012485D01*
X105831742Y-104942480D01*
X105850500Y-104872477D01*
X105850500Y-104727522D01*
X105812984Y-104587516D01*
X105812983Y-104587512D01*
X105740508Y-104461984D01*
X105664852Y-104386328D01*
X105650500Y-104351680D01*
X105650500Y-104048320D01*
X105664852Y-104013672D01*
X105740508Y-103938016D01*
X105740509Y-103938015D01*
X105812984Y-103812485D01*
X105839646Y-103712983D01*
X105850500Y-103672477D01*
X105850500Y-103527522D01*
X105812984Y-103387516D01*
X105812983Y-103387512D01*
X105767035Y-103307930D01*
X105740509Y-103261985D01*
X105638015Y-103159491D01*
X105512487Y-103087016D01*
X105512483Y-103087015D01*
X105372478Y-103049500D01*
X105372475Y-103049500D01*
X105227525Y-103049500D01*
X105227522Y-103049500D01*
X105087516Y-103087015D01*
X105087512Y-103087016D01*
X104961984Y-103159491D01*
X104961984Y-103159492D01*
X104859492Y-103261984D01*
X104859491Y-103261984D01*
X104787016Y-103387512D01*
X104787015Y-103387516D01*
X104749500Y-103527522D01*
X100150500Y-103527522D01*
X100112984Y-103387516D01*
X100112983Y-103387512D01*
X100067035Y-103307930D01*
X100040509Y-103261985D01*
X99938015Y-103159491D01*
X99812487Y-103087016D01*
X99812483Y-103087015D01*
X99672478Y-103049500D01*
X99672475Y-103049500D01*
X99527525Y-103049500D01*
X99527522Y-103049500D01*
X99387516Y-103087015D01*
X99387512Y-103087016D01*
X99261984Y-103159491D01*
X99261984Y-103159492D01*
X99159492Y-103261984D01*
X99159491Y-103261984D01*
X99087016Y-103387512D01*
X99087015Y-103387516D01*
X99049500Y-103527522D01*
X91350500Y-103527522D01*
X91312984Y-103387516D01*
X91312983Y-103387512D01*
X91267035Y-103307930D01*
X91240509Y-103261985D01*
X91138015Y-103159491D01*
X91012487Y-103087016D01*
X91012483Y-103087015D01*
X90872478Y-103049500D01*
X90872475Y-103049500D01*
X90727525Y-103049500D01*
X90727522Y-103049500D01*
X90587516Y-103087015D01*
X90587512Y-103087016D01*
X90461984Y-103159491D01*
X90461984Y-103159492D01*
X90359492Y-103261984D01*
X90359491Y-103261984D01*
X90287016Y-103387512D01*
X90287015Y-103387516D01*
X90249500Y-103527522D01*
X86350500Y-103527522D01*
X86350500Y-101651583D01*
X106499500Y-101651583D01*
X106499500Y-101848416D01*
X106530290Y-102042823D01*
X106530291Y-102042826D01*
X106591116Y-102230026D01*
X106680472Y-102405399D01*
X106680475Y-102405403D01*
X106680476Y-102405405D01*
X106796172Y-102564646D01*
X106796174Y-102564648D01*
X106796177Y-102564652D01*
X106935347Y-102703822D01*
X106935350Y-102703824D01*
X106935354Y-102703828D01*
X107094595Y-102819524D01*
X107094597Y-102819525D01*
X107094600Y-102819527D01*
X107269973Y-102908883D01*
X107269975Y-102908884D01*
X107457174Y-102969709D01*
X107651583Y-103000500D01*
X107651584Y-103000500D01*
X107848416Y-103000500D01*
X107848417Y-103000500D01*
X108042826Y-102969709D01*
X108230025Y-102908884D01*
X108405405Y-102819524D01*
X108564646Y-102703828D01*
X108703828Y-102564646D01*
X108819524Y-102405405D01*
X108908884Y-102230025D01*
X108969709Y-102042826D01*
X109000500Y-101848417D01*
X109000500Y-101651583D01*
X112999500Y-101651583D01*
X112999500Y-101848416D01*
X113030290Y-102042823D01*
X113030291Y-102042826D01*
X113091116Y-102230026D01*
X113180472Y-102405399D01*
X113180475Y-102405403D01*
X113180476Y-102405405D01*
X113296172Y-102564646D01*
X113296174Y-102564648D01*
X113296177Y-102564652D01*
X113435347Y-102703822D01*
X113435350Y-102703824D01*
X113435354Y-102703828D01*
X113594595Y-102819524D01*
X113594597Y-102819525D01*
X113594600Y-102819527D01*
X113769973Y-102908883D01*
X113769975Y-102908884D01*
X113957174Y-102969709D01*
X114151583Y-103000500D01*
X114151584Y-103000500D01*
X114348416Y-103000500D01*
X114348417Y-103000500D01*
X114542826Y-102969709D01*
X114730025Y-102908884D01*
X114905405Y-102819524D01*
X115032034Y-102727522D01*
X116549500Y-102727522D01*
X116549500Y-102872477D01*
X116587015Y-103012483D01*
X116587016Y-103012487D01*
X116659491Y-103138015D01*
X116761985Y-103240509D01*
X116807930Y-103267035D01*
X116887512Y-103312983D01*
X116887514Y-103312983D01*
X116887515Y-103312984D01*
X116922517Y-103322363D01*
X117027522Y-103350500D01*
X117027525Y-103350500D01*
X117172477Y-103350500D01*
X117242480Y-103331742D01*
X117312485Y-103312984D01*
X117438015Y-103240509D01*
X117540509Y-103138015D01*
X117612984Y-103012485D01*
X117640744Y-102908884D01*
X117650500Y-102872477D01*
X117650500Y-102727524D01*
X117644148Y-102703822D01*
X117640420Y-102689908D01*
X117645314Y-102652727D01*
X117653098Y-102642582D01*
X117880470Y-102415212D01*
X117926614Y-102335288D01*
X117949601Y-102249500D01*
X117950500Y-102246146D01*
X117950500Y-102148320D01*
X117964852Y-102113672D01*
X118040508Y-102038016D01*
X118040509Y-102038015D01*
X118112984Y-101912485D01*
X118141300Y-101806811D01*
X118150500Y-101772477D01*
X118150500Y-101627522D01*
X118112984Y-101487516D01*
X118112983Y-101487512D01*
X118040508Y-101361984D01*
X117938015Y-101259491D01*
X117812487Y-101187016D01*
X117812483Y-101187015D01*
X117672478Y-101149500D01*
X117672475Y-101149500D01*
X117527525Y-101149500D01*
X117527522Y-101149500D01*
X117387516Y-101187015D01*
X117387512Y-101187016D01*
X117261984Y-101259491D01*
X117261984Y-101259492D01*
X117159492Y-101361984D01*
X117159491Y-101361984D01*
X117087016Y-101487512D01*
X117087015Y-101487516D01*
X117049500Y-101627522D01*
X117049500Y-101772477D01*
X117087015Y-101912483D01*
X117087016Y-101912487D01*
X117159491Y-102038015D01*
X117178249Y-102056773D01*
X117192601Y-102091421D01*
X117178249Y-102126069D01*
X117069170Y-102235148D01*
X117034522Y-102249500D01*
X117027522Y-102249500D01*
X116887516Y-102287015D01*
X116887512Y-102287016D01*
X116761984Y-102359491D01*
X116761984Y-102359492D01*
X116659492Y-102461984D01*
X116659491Y-102461984D01*
X116587016Y-102587512D01*
X116587015Y-102587516D01*
X116549500Y-102727522D01*
X115032034Y-102727522D01*
X115064646Y-102703828D01*
X115064652Y-102703822D01*
X115078810Y-102689665D01*
X115203822Y-102564652D01*
X115203828Y-102564646D01*
X115319524Y-102405405D01*
X115408884Y-102230025D01*
X115469709Y-102042826D01*
X115500500Y-101848417D01*
X115500500Y-101651583D01*
X115469709Y-101457174D01*
X115408884Y-101269975D01*
X115366614Y-101187015D01*
X115319527Y-101094600D01*
X115319525Y-101094597D01*
X115319524Y-101094595D01*
X115203828Y-100935354D01*
X115203824Y-100935350D01*
X115203822Y-100935347D01*
X115064652Y-100796177D01*
X115064653Y-100796177D01*
X114905399Y-100680472D01*
X114730026Y-100591116D01*
X114542826Y-100530291D01*
X114542823Y-100530290D01*
X114393482Y-100506637D01*
X114348417Y-100499500D01*
X114151583Y-100499500D01*
X114114998Y-100505294D01*
X113957176Y-100530290D01*
X113957173Y-100530291D01*
X113769973Y-100591116D01*
X113594600Y-100680472D01*
X113435347Y-100796177D01*
X113296177Y-100935347D01*
X113180472Y-101094600D01*
X113091116Y-101269973D01*
X113030291Y-101457173D01*
X113030290Y-101457176D01*
X112999500Y-101651583D01*
X109000500Y-101651583D01*
X108969709Y-101457174D01*
X108908884Y-101269975D01*
X108866614Y-101187015D01*
X108819527Y-101094600D01*
X108819525Y-101094597D01*
X108819524Y-101094595D01*
X108703828Y-100935354D01*
X108703824Y-100935350D01*
X108703822Y-100935347D01*
X108564652Y-100796177D01*
X108564653Y-100796177D01*
X108405399Y-100680472D01*
X108230026Y-100591116D01*
X108042826Y-100530291D01*
X108042823Y-100530290D01*
X107893482Y-100506637D01*
X107848417Y-100499500D01*
X107651583Y-100499500D01*
X107614998Y-100505294D01*
X107457176Y-100530290D01*
X107457173Y-100530291D01*
X107269973Y-100591116D01*
X107094600Y-100680472D01*
X106935347Y-100796177D01*
X106796177Y-100935347D01*
X106680472Y-101094600D01*
X106591116Y-101269973D01*
X106530291Y-101457173D01*
X106530290Y-101457176D01*
X106499500Y-101651583D01*
X86350500Y-101651583D01*
X86350500Y-100248320D01*
X86364852Y-100213672D01*
X86440508Y-100138016D01*
X86440509Y-100138015D01*
X86512984Y-100012485D01*
X86543927Y-99897006D01*
X86550500Y-99872477D01*
X86550500Y-99727522D01*
X86512984Y-99587516D01*
X86512983Y-99587512D01*
X86443053Y-99466392D01*
X86440509Y-99461985D01*
X86338015Y-99359491D01*
X86320710Y-99349500D01*
X86212487Y-99287016D01*
X86212483Y-99287015D01*
X86072478Y-99249500D01*
X86072475Y-99249500D01*
X85927525Y-99249500D01*
X85927522Y-99249500D01*
X85787516Y-99287015D01*
X85787512Y-99287016D01*
X85661984Y-99359491D01*
X85661984Y-99359492D01*
X85559492Y-99461984D01*
X85559491Y-99461984D01*
X85487016Y-99587512D01*
X85487015Y-99587516D01*
X85449500Y-99727522D01*
X85449500Y-99872477D01*
X85487015Y-100012483D01*
X85487016Y-100012487D01*
X85559491Y-100138015D01*
X85635148Y-100213672D01*
X85649500Y-100248320D01*
X85649500Y-105080674D01*
X85635148Y-105115322D01*
X85625000Y-105123109D01*
X85561984Y-105159491D01*
X85561984Y-105159492D01*
X85459492Y-105261984D01*
X85459491Y-105261984D01*
X85387016Y-105387512D01*
X85387015Y-105387516D01*
X85349500Y-105527522D01*
X74661336Y-105527522D01*
X74658884Y-105519975D01*
X74658883Y-105519973D01*
X74569527Y-105344600D01*
X74569525Y-105344597D01*
X74569524Y-105344595D01*
X74453828Y-105185354D01*
X74453824Y-105185350D01*
X74453822Y-105185347D01*
X74314652Y-105046177D01*
X74314653Y-105046177D01*
X74155399Y-104930472D01*
X73980026Y-104841116D01*
X73792826Y-104780291D01*
X73792823Y-104780290D01*
X73643482Y-104756637D01*
X73598417Y-104749500D01*
X73401583Y-104749500D01*
X73364998Y-104755294D01*
X73207176Y-104780290D01*
X73207173Y-104780291D01*
X73019973Y-104841116D01*
X72844600Y-104930472D01*
X72685347Y-105046177D01*
X72546177Y-105185347D01*
X72430472Y-105344600D01*
X72341116Y-105519973D01*
X72280291Y-105707173D01*
X72280290Y-105707176D01*
X72249500Y-105901583D01*
X61500000Y-105901583D01*
X61500000Y-103127522D01*
X82049500Y-103127522D01*
X82049500Y-103272477D01*
X82087015Y-103412483D01*
X82087016Y-103412487D01*
X82159491Y-103538015D01*
X82261985Y-103640509D01*
X82307930Y-103667035D01*
X82387512Y-103712983D01*
X82387514Y-103712983D01*
X82387515Y-103712984D01*
X82422517Y-103722363D01*
X82527522Y-103750500D01*
X82527525Y-103750500D01*
X82634522Y-103750500D01*
X82669170Y-103764852D01*
X82835148Y-103930830D01*
X82849500Y-103965478D01*
X82849500Y-104072477D01*
X82887015Y-104212483D01*
X82887016Y-104212487D01*
X82959491Y-104338015D01*
X83061985Y-104440509D01*
X83107930Y-104467035D01*
X83187512Y-104512983D01*
X83187514Y-104512983D01*
X83187515Y-104512984D01*
X83222517Y-104522363D01*
X83327522Y-104550500D01*
X83327525Y-104550500D01*
X83472477Y-104550500D01*
X83542480Y-104531742D01*
X83612485Y-104512984D01*
X83738015Y-104440509D01*
X83840509Y-104338015D01*
X83912984Y-104212485D01*
X83931742Y-104142480D01*
X83950500Y-104072477D01*
X83950500Y-103927522D01*
X83912984Y-103787516D01*
X83912983Y-103787512D01*
X83867035Y-103707930D01*
X83840509Y-103661985D01*
X83738015Y-103559491D01*
X83700818Y-103538015D01*
X83612487Y-103487016D01*
X83612483Y-103487015D01*
X83472478Y-103449500D01*
X83472475Y-103449500D01*
X83365478Y-103449500D01*
X83330830Y-103435148D01*
X83164852Y-103269170D01*
X83150500Y-103234522D01*
X83150500Y-103127522D01*
X83112984Y-102987516D01*
X83112983Y-102987512D01*
X83067035Y-102907930D01*
X83040509Y-102861985D01*
X82938015Y-102759491D01*
X82812487Y-102687016D01*
X82812483Y-102687015D01*
X82672478Y-102649500D01*
X82672475Y-102649500D01*
X82527525Y-102649500D01*
X82527522Y-102649500D01*
X82387516Y-102687015D01*
X82387512Y-102687016D01*
X82261984Y-102759491D01*
X82261984Y-102759492D01*
X82159492Y-102861984D01*
X82159491Y-102861984D01*
X82087016Y-102987512D01*
X82087015Y-102987516D01*
X82049500Y-103127522D01*
X61500000Y-103127522D01*
X61500000Y-101934104D01*
X70199500Y-101934104D01*
X70199500Y-102065895D01*
X70233607Y-102193184D01*
X70233608Y-102193188D01*
X70287780Y-102287015D01*
X70299500Y-102307314D01*
X70392686Y-102400500D01*
X70401182Y-102405405D01*
X70506811Y-102466391D01*
X70506813Y-102466391D01*
X70506814Y-102466392D01*
X70607207Y-102493292D01*
X70634104Y-102500499D01*
X70634105Y-102500500D01*
X70634108Y-102500500D01*
X70765895Y-102500500D01*
X70765895Y-102500499D01*
X70893186Y-102466392D01*
X71007314Y-102400500D01*
X71100500Y-102307314D01*
X71166392Y-102193186D01*
X71200499Y-102065895D01*
X71200500Y-102065895D01*
X71200500Y-101934105D01*
X71200499Y-101934104D01*
X71166392Y-101806815D01*
X71166391Y-101806811D01*
X71100499Y-101692685D01*
X71007314Y-101599500D01*
X70893188Y-101533608D01*
X70893184Y-101533607D01*
X70765895Y-101499500D01*
X70765892Y-101499500D01*
X70634108Y-101499500D01*
X70634105Y-101499500D01*
X70506815Y-101533607D01*
X70506811Y-101533608D01*
X70392685Y-101599500D01*
X70392685Y-101599501D01*
X70299501Y-101692685D01*
X70299500Y-101692685D01*
X70233608Y-101806811D01*
X70233607Y-101806815D01*
X70199500Y-101934104D01*
X61500000Y-101934104D01*
X61500000Y-100409454D01*
X63524500Y-100409454D01*
X63524500Y-100590545D01*
X63552828Y-100769406D01*
X63552829Y-100769409D01*
X63606744Y-100935347D01*
X63608789Y-100941639D01*
X63691004Y-101102994D01*
X63797447Y-101249501D01*
X63797448Y-101249502D01*
X63797452Y-101249507D01*
X63925493Y-101377548D01*
X63925497Y-101377551D01*
X63925499Y-101377553D01*
X64072006Y-101483996D01*
X64233361Y-101566211D01*
X64405591Y-101622171D01*
X64584454Y-101650500D01*
X64584455Y-101650500D01*
X64765545Y-101650500D01*
X64765546Y-101650500D01*
X64944409Y-101622171D01*
X65116639Y-101566211D01*
X65277994Y-101483996D01*
X65424501Y-101377553D01*
X65424504Y-101377549D01*
X65424507Y-101377548D01*
X65552548Y-101249507D01*
X65552549Y-101249504D01*
X65552553Y-101249501D01*
X65658996Y-101102994D01*
X65741211Y-100941639D01*
X65797171Y-100769409D01*
X65825500Y-100590546D01*
X65825500Y-100409454D01*
X65797171Y-100230591D01*
X65741211Y-100058361D01*
X65658996Y-99897006D01*
X65552553Y-99750499D01*
X65552551Y-99750497D01*
X65552548Y-99750493D01*
X65424507Y-99622452D01*
X65424502Y-99622448D01*
X65376422Y-99587516D01*
X65277994Y-99516004D01*
X65116639Y-99433789D01*
X65116638Y-99433788D01*
X65116637Y-99433788D01*
X64944409Y-99377829D01*
X64944406Y-99377828D01*
X64807007Y-99356066D01*
X64765546Y-99349500D01*
X64584454Y-99349500D01*
X64550794Y-99354831D01*
X64405593Y-99377828D01*
X64405590Y-99377829D01*
X64233362Y-99433788D01*
X64072006Y-99516004D01*
X63925497Y-99622448D01*
X63797448Y-99750497D01*
X63691004Y-99897006D01*
X63608788Y-100058362D01*
X63552829Y-100230590D01*
X63552828Y-100230593D01*
X63524500Y-100409454D01*
X61500000Y-100409454D01*
X61500000Y-98934104D01*
X116199500Y-98934104D01*
X116199500Y-99065895D01*
X116233607Y-99193184D01*
X116233608Y-99193188D01*
X116287780Y-99287015D01*
X116299500Y-99307314D01*
X116392686Y-99400500D01*
X116434457Y-99424617D01*
X116506811Y-99466391D01*
X116506813Y-99466391D01*
X116506814Y-99466392D01*
X116607207Y-99493292D01*
X116634104Y-99500499D01*
X116634105Y-99500500D01*
X116634108Y-99500500D01*
X116765895Y-99500500D01*
X116765895Y-99500499D01*
X116893186Y-99466392D01*
X117007314Y-99400500D01*
X117100500Y-99307314D01*
X117166392Y-99193186D01*
X117200499Y-99065895D01*
X117200500Y-99065895D01*
X117200500Y-98934105D01*
X117200499Y-98934104D01*
X117166392Y-98806815D01*
X117166391Y-98806811D01*
X117100499Y-98692685D01*
X117007314Y-98599500D01*
X116893188Y-98533608D01*
X116893184Y-98533607D01*
X116765895Y-98499500D01*
X116765892Y-98499500D01*
X116634108Y-98499500D01*
X116634105Y-98499500D01*
X116506815Y-98533607D01*
X116506811Y-98533608D01*
X116392685Y-98599500D01*
X116392685Y-98599501D01*
X116299501Y-98692685D01*
X116299500Y-98692685D01*
X116233608Y-98806811D01*
X116233607Y-98806815D01*
X116199500Y-98934104D01*
X61500000Y-98934104D01*
X61500000Y-97634104D01*
X104499500Y-97634104D01*
X104499500Y-97765895D01*
X104533607Y-97893184D01*
X104533608Y-97893188D01*
X104599500Y-98007314D01*
X104692686Y-98100500D01*
X104734457Y-98124617D01*
X104806811Y-98166391D01*
X104806813Y-98166391D01*
X104806814Y-98166392D01*
X104907207Y-98193292D01*
X104934104Y-98200499D01*
X104934105Y-98200500D01*
X104934108Y-98200500D01*
X105065895Y-98200500D01*
X105065895Y-98200499D01*
X105193186Y-98166392D01*
X105307314Y-98100500D01*
X105400500Y-98007314D01*
X105466392Y-97893186D01*
X105500499Y-97765895D01*
X105500500Y-97765895D01*
X105500500Y-97634105D01*
X105500499Y-97634104D01*
X105466392Y-97506815D01*
X105466391Y-97506811D01*
X105400499Y-97392685D01*
X105307314Y-97299500D01*
X105193188Y-97233608D01*
X105193184Y-97233607D01*
X105065895Y-97199500D01*
X105065892Y-97199500D01*
X104934108Y-97199500D01*
X104934105Y-97199500D01*
X104806815Y-97233607D01*
X104806811Y-97233608D01*
X104692685Y-97299500D01*
X104692685Y-97299501D01*
X104599501Y-97392685D01*
X104599500Y-97392685D01*
X104533608Y-97506811D01*
X104533607Y-97506815D01*
X104499500Y-97634104D01*
X61500000Y-97634104D01*
X61500000Y-96934104D01*
X116199500Y-96934104D01*
X116199500Y-97065895D01*
X116233607Y-97193184D01*
X116233608Y-97193188D01*
X116294989Y-97299501D01*
X116299500Y-97307314D01*
X116392686Y-97400500D01*
X116434457Y-97424617D01*
X116506811Y-97466391D01*
X116506813Y-97466391D01*
X116506814Y-97466392D01*
X116607207Y-97493292D01*
X116634104Y-97500499D01*
X116634105Y-97500500D01*
X116634108Y-97500500D01*
X116765895Y-97500500D01*
X116765895Y-97500499D01*
X116893186Y-97466392D01*
X117007314Y-97400500D01*
X117100500Y-97307314D01*
X117166392Y-97193186D01*
X117200499Y-97065895D01*
X117200500Y-97065895D01*
X117200500Y-96934105D01*
X117200499Y-96934104D01*
X117166392Y-96806815D01*
X117166391Y-96806811D01*
X117100499Y-96692685D01*
X117007314Y-96599500D01*
X116893188Y-96533608D01*
X116893184Y-96533607D01*
X116765895Y-96499500D01*
X116765892Y-96499500D01*
X116634108Y-96499500D01*
X116634105Y-96499500D01*
X116506815Y-96533607D01*
X116506811Y-96533608D01*
X116392685Y-96599500D01*
X116392685Y-96599501D01*
X116299501Y-96692685D01*
X116299500Y-96692685D01*
X116233608Y-96806811D01*
X116233607Y-96806815D01*
X116199500Y-96934104D01*
X61500000Y-96934104D01*
X61500000Y-93469454D01*
X63524500Y-93469454D01*
X63524500Y-93650545D01*
X63552828Y-93829406D01*
X63552829Y-93829409D01*
X63608789Y-94001639D01*
X63691004Y-94162994D01*
X63755946Y-94252379D01*
X63797448Y-94309502D01*
X63797452Y-94309507D01*
X63925493Y-94437548D01*
X63925497Y-94437551D01*
X63925499Y-94437553D01*
X64072006Y-94543996D01*
X64233361Y-94626211D01*
X64405591Y-94682171D01*
X64584454Y-94710500D01*
X64584455Y-94710500D01*
X64765545Y-94710500D01*
X64765546Y-94710500D01*
X64944409Y-94682171D01*
X65092346Y-94634104D01*
X69599500Y-94634104D01*
X69599500Y-94765895D01*
X69633607Y-94893184D01*
X69633608Y-94893188D01*
X69699500Y-95007314D01*
X69792686Y-95100500D01*
X69820565Y-95116596D01*
X69906811Y-95166391D01*
X69906813Y-95166391D01*
X69906814Y-95166392D01*
X69968927Y-95183035D01*
X70034104Y-95200499D01*
X70034105Y-95200500D01*
X70034108Y-95200500D01*
X70165895Y-95200500D01*
X70165895Y-95200499D01*
X70293186Y-95166392D01*
X70407314Y-95100500D01*
X70500500Y-95007314D01*
X70548938Y-94923417D01*
X88222500Y-94923417D01*
X88222500Y-95076582D01*
X88252376Y-95226778D01*
X88252379Y-95226789D01*
X88303207Y-95349500D01*
X88310988Y-95368284D01*
X88332514Y-95400500D01*
X88389896Y-95486379D01*
X88396076Y-95495627D01*
X88504373Y-95603924D01*
X88631716Y-95689012D01*
X88773212Y-95747621D01*
X88773218Y-95747622D01*
X88773221Y-95747623D01*
X88923417Y-95777499D01*
X88923423Y-95777500D01*
X89076577Y-95777500D01*
X89226788Y-95747621D01*
X89368284Y-95689012D01*
X89495627Y-95603924D01*
X89603924Y-95495627D01*
X89689012Y-95368284D01*
X89747621Y-95226788D01*
X89754305Y-95193188D01*
X89777499Y-95076582D01*
X89777500Y-95076577D01*
X89777500Y-94938193D01*
X95872500Y-94938193D01*
X95872500Y-95061806D01*
X95896613Y-95183027D01*
X95896615Y-95183036D01*
X95914738Y-95226788D01*
X95943917Y-95297233D01*
X96012589Y-95400008D01*
X96099992Y-95487411D01*
X96202767Y-95556083D01*
X96316965Y-95603385D01*
X96438197Y-95627500D01*
X96561803Y-95627500D01*
X96683035Y-95603385D01*
X96797233Y-95556083D01*
X96900008Y-95487411D01*
X96987411Y-95400008D01*
X97056083Y-95297233D01*
X97103385Y-95183035D01*
X97127500Y-95061803D01*
X97127500Y-94938197D01*
X97126686Y-94934104D01*
X104499500Y-94934104D01*
X104499500Y-95065895D01*
X104533607Y-95193184D01*
X104533608Y-95193188D01*
X104593677Y-95297229D01*
X104599500Y-95307314D01*
X104692686Y-95400500D01*
X104758574Y-95438540D01*
X104806810Y-95466390D01*
X104806814Y-95466392D01*
X104881417Y-95486381D01*
X104903380Y-95499062D01*
X105235148Y-95830830D01*
X105249500Y-95865478D01*
X105249500Y-95972477D01*
X105287015Y-96112483D01*
X105287016Y-96112487D01*
X105359491Y-96238015D01*
X105461985Y-96340509D01*
X105507930Y-96367035D01*
X105587512Y-96412983D01*
X105587514Y-96412983D01*
X105587515Y-96412984D01*
X105622517Y-96422363D01*
X105727522Y-96450500D01*
X105727525Y-96450500D01*
X105872477Y-96450500D01*
X105942480Y-96431742D01*
X106012485Y-96412984D01*
X106138015Y-96340509D01*
X106240509Y-96238015D01*
X106312984Y-96112485D01*
X106331742Y-96042480D01*
X106350500Y-95972477D01*
X106350500Y-95827522D01*
X106312984Y-95687516D01*
X106312983Y-95687512D01*
X106240508Y-95561984D01*
X106138015Y-95459491D01*
X106012487Y-95387016D01*
X106012483Y-95387015D01*
X105872478Y-95349500D01*
X105872475Y-95349500D01*
X105765478Y-95349500D01*
X105730830Y-95335148D01*
X105512278Y-95116596D01*
X105497926Y-95081948D01*
X105499597Y-95069261D01*
X105500500Y-95065892D01*
X105500500Y-94934105D01*
X105500499Y-94934104D01*
X105466392Y-94806815D01*
X105466391Y-94806811D01*
X105400499Y-94692685D01*
X105307314Y-94599500D01*
X105193188Y-94533608D01*
X105193184Y-94533607D01*
X105065895Y-94499500D01*
X105065892Y-94499500D01*
X104934108Y-94499500D01*
X104934105Y-94499500D01*
X104806815Y-94533607D01*
X104806811Y-94533608D01*
X104692685Y-94599500D01*
X104692685Y-94599501D01*
X104599501Y-94692685D01*
X104599500Y-94692685D01*
X104533608Y-94806811D01*
X104533607Y-94806815D01*
X104499500Y-94934104D01*
X97126686Y-94934104D01*
X97124561Y-94923423D01*
X97103386Y-94816972D01*
X97103385Y-94816965D01*
X97056083Y-94702767D01*
X96987411Y-94599992D01*
X96900008Y-94512589D01*
X96797233Y-94443917D01*
X96797230Y-94443915D01*
X96797229Y-94443915D01*
X96683036Y-94396615D01*
X96683027Y-94396613D01*
X96561806Y-94372500D01*
X96561803Y-94372500D01*
X96438197Y-94372500D01*
X96438193Y-94372500D01*
X96316972Y-94396613D01*
X96316963Y-94396615D01*
X96202770Y-94443915D01*
X96099992Y-94512588D01*
X96012588Y-94599992D01*
X95943915Y-94702770D01*
X95896615Y-94816963D01*
X95896613Y-94816972D01*
X95872500Y-94938193D01*
X89777500Y-94938193D01*
X89777500Y-94923423D01*
X89777499Y-94923417D01*
X89747623Y-94773221D01*
X89747620Y-94773210D01*
X89709911Y-94682171D01*
X89689012Y-94631716D01*
X89603924Y-94504373D01*
X89495627Y-94396076D01*
X89368284Y-94310988D01*
X89368281Y-94310986D01*
X89368280Y-94310986D01*
X89226789Y-94252379D01*
X89226778Y-94252376D01*
X89076582Y-94222500D01*
X89076577Y-94222500D01*
X88923423Y-94222500D01*
X88923417Y-94222500D01*
X88773221Y-94252376D01*
X88773210Y-94252379D01*
X88631719Y-94310986D01*
X88504373Y-94396075D01*
X88396075Y-94504373D01*
X88310986Y-94631719D01*
X88252379Y-94773210D01*
X88252376Y-94773221D01*
X88222500Y-94923417D01*
X70548938Y-94923417D01*
X70564470Y-94896516D01*
X70565176Y-94895291D01*
X70566392Y-94893186D01*
X70600499Y-94765895D01*
X70600500Y-94765895D01*
X70600500Y-94634105D01*
X70600499Y-94634104D01*
X70576355Y-94543996D01*
X70566392Y-94506814D01*
X70566391Y-94506813D01*
X70566391Y-94506811D01*
X70502457Y-94396076D01*
X70500500Y-94392686D01*
X70407314Y-94299500D01*
X70293188Y-94233608D01*
X70293184Y-94233607D01*
X70165895Y-94199500D01*
X70165892Y-94199500D01*
X70034108Y-94199500D01*
X70034105Y-94199500D01*
X69906815Y-94233607D01*
X69906811Y-94233608D01*
X69792685Y-94299500D01*
X69792685Y-94299501D01*
X69699501Y-94392685D01*
X69699500Y-94392685D01*
X69633608Y-94506811D01*
X69633607Y-94506815D01*
X69599500Y-94634104D01*
X65092346Y-94634104D01*
X65116639Y-94626211D01*
X65277994Y-94543996D01*
X65424501Y-94437553D01*
X65424504Y-94437549D01*
X65424507Y-94437548D01*
X65552548Y-94309507D01*
X65552549Y-94309504D01*
X65552553Y-94309501D01*
X65658996Y-94162994D01*
X65741211Y-94001639D01*
X65797171Y-93829409D01*
X65825500Y-93650546D01*
X65825500Y-93469454D01*
X65797171Y-93290591D01*
X65776679Y-93227522D01*
X121149500Y-93227522D01*
X121149500Y-93372477D01*
X121187015Y-93512483D01*
X121187016Y-93512487D01*
X121249367Y-93620480D01*
X121259491Y-93638015D01*
X121361985Y-93740509D01*
X121407930Y-93767035D01*
X121487512Y-93812983D01*
X121487514Y-93812983D01*
X121487515Y-93812984D01*
X121522517Y-93822363D01*
X121627522Y-93850500D01*
X121627525Y-93850500D01*
X121772477Y-93850500D01*
X121851198Y-93829406D01*
X121912485Y-93812984D01*
X122038015Y-93740509D01*
X122063672Y-93714852D01*
X122098320Y-93700500D01*
X122352730Y-93700500D01*
X122352730Y-93700499D01*
X122454588Y-93673207D01*
X122545913Y-93620480D01*
X122901541Y-93264852D01*
X122936189Y-93250500D01*
X122972477Y-93250500D01*
X123042480Y-93231742D01*
X123112485Y-93212984D01*
X123238015Y-93140509D01*
X123340509Y-93038015D01*
X123412984Y-92912485D01*
X123431742Y-92842480D01*
X123450500Y-92772477D01*
X123450500Y-92627522D01*
X123412984Y-92487516D01*
X123412983Y-92487512D01*
X123340508Y-92361984D01*
X123238015Y-92259491D01*
X123112487Y-92187016D01*
X123112483Y-92187015D01*
X122972478Y-92149500D01*
X122972475Y-92149500D01*
X122827525Y-92149500D01*
X122827522Y-92149500D01*
X122687516Y-92187015D01*
X122687512Y-92187016D01*
X122561984Y-92259491D01*
X122561984Y-92259492D01*
X122459492Y-92361984D01*
X122459491Y-92361984D01*
X122387016Y-92487512D01*
X122387015Y-92487516D01*
X122349500Y-92627522D01*
X122349500Y-92663811D01*
X122335148Y-92698459D01*
X122148459Y-92885148D01*
X122113811Y-92899500D01*
X122098320Y-92899500D01*
X122063672Y-92885148D01*
X122038015Y-92859491D01*
X121912487Y-92787016D01*
X121912483Y-92787015D01*
X121772478Y-92749500D01*
X121772475Y-92749500D01*
X121627525Y-92749500D01*
X121627522Y-92749500D01*
X121487516Y-92787015D01*
X121487512Y-92787016D01*
X121361984Y-92859491D01*
X121361984Y-92859492D01*
X121259492Y-92961984D01*
X121259491Y-92961984D01*
X121187016Y-93087512D01*
X121187015Y-93087516D01*
X121149500Y-93227522D01*
X65776679Y-93227522D01*
X65741211Y-93118361D01*
X65658996Y-92957006D01*
X65552553Y-92810499D01*
X65552551Y-92810497D01*
X65552548Y-92810493D01*
X65424507Y-92682452D01*
X65424502Y-92682448D01*
X65424501Y-92682447D01*
X65277994Y-92576004D01*
X65116639Y-92493789D01*
X65116638Y-92493788D01*
X65116637Y-92493788D01*
X64944409Y-92437829D01*
X64944406Y-92437828D01*
X64807007Y-92416066D01*
X64765546Y-92409500D01*
X64584454Y-92409500D01*
X64550794Y-92414831D01*
X64405593Y-92437828D01*
X64405590Y-92437829D01*
X64233362Y-92493788D01*
X64072006Y-92576004D01*
X63925497Y-92682448D01*
X63797448Y-92810497D01*
X63691004Y-92957006D01*
X63608788Y-93118362D01*
X63552829Y-93290590D01*
X63552828Y-93290593D01*
X63524500Y-93469454D01*
X61500000Y-93469454D01*
X61500000Y-91727522D01*
X76449500Y-91727522D01*
X76449500Y-91872477D01*
X76487015Y-92012483D01*
X76487016Y-92012487D01*
X76559491Y-92138015D01*
X76661985Y-92240509D01*
X76707930Y-92267035D01*
X76787512Y-92312983D01*
X76787514Y-92312983D01*
X76787515Y-92312984D01*
X76822517Y-92322363D01*
X76927522Y-92350500D01*
X76927525Y-92350500D01*
X77072477Y-92350500D01*
X77142480Y-92331742D01*
X77212485Y-92312984D01*
X77338015Y-92240509D01*
X77440509Y-92138015D01*
X77512984Y-92012485D01*
X77542991Y-91900499D01*
X77550500Y-91872477D01*
X77550500Y-91727522D01*
X77514504Y-91593188D01*
X77512984Y-91587515D01*
X77512983Y-91587514D01*
X77512983Y-91587512D01*
X77442766Y-91465895D01*
X77440509Y-91461985D01*
X77364852Y-91386328D01*
X77350500Y-91351680D01*
X77350500Y-91334104D01*
X80499500Y-91334104D01*
X80499500Y-91465895D01*
X80533607Y-91593184D01*
X80533608Y-91593188D01*
X80599500Y-91707314D01*
X80692686Y-91800500D01*
X80734457Y-91824617D01*
X80806811Y-91866391D01*
X80806813Y-91866391D01*
X80806814Y-91866392D01*
X80907207Y-91893292D01*
X80934104Y-91900499D01*
X80934105Y-91900500D01*
X80934108Y-91900500D01*
X81065895Y-91900500D01*
X81065895Y-91900499D01*
X81193186Y-91866392D01*
X81307314Y-91800500D01*
X81400500Y-91707314D01*
X81466392Y-91593186D01*
X81500499Y-91465895D01*
X81500500Y-91465895D01*
X81500500Y-91334105D01*
X81500499Y-91334104D01*
X81466392Y-91206815D01*
X81466391Y-91206811D01*
X81400499Y-91092685D01*
X81307314Y-90999500D01*
X81193188Y-90933608D01*
X81193184Y-90933607D01*
X81065895Y-90899500D01*
X81065892Y-90899500D01*
X80934108Y-90899500D01*
X80934105Y-90899500D01*
X80806815Y-90933607D01*
X80806811Y-90933608D01*
X80692685Y-90999500D01*
X80692685Y-90999501D01*
X80599501Y-91092685D01*
X80599500Y-91092685D01*
X80533608Y-91206811D01*
X80533607Y-91206815D01*
X80499500Y-91334104D01*
X77350500Y-91334104D01*
X77350500Y-90865477D01*
X77364851Y-90830830D01*
X77862512Y-90333168D01*
X77884475Y-90320488D01*
X77912485Y-90312984D01*
X78038015Y-90240509D01*
X78140509Y-90138015D01*
X78212984Y-90012485D01*
X78220488Y-89984475D01*
X78233168Y-89962512D01*
X79480470Y-88715212D01*
X79526614Y-88635288D01*
X79538557Y-88590716D01*
X79550500Y-88546146D01*
X79550500Y-88248320D01*
X79564852Y-88213672D01*
X79640508Y-88138016D01*
X79640509Y-88138015D01*
X79712984Y-88012485D01*
X79744950Y-87893188D01*
X79750500Y-87872477D01*
X79750500Y-87734104D01*
X84399500Y-87734104D01*
X84399500Y-87865895D01*
X84433607Y-87993184D01*
X84433608Y-87993188D01*
X84495565Y-88100499D01*
X84499500Y-88107314D01*
X84592686Y-88200500D01*
X84615501Y-88213672D01*
X84706810Y-88266390D01*
X84706814Y-88266392D01*
X84781417Y-88286381D01*
X84803380Y-88299062D01*
X85546896Y-89042577D01*
X85561248Y-89077225D01*
X85559579Y-89089906D01*
X85549500Y-89127524D01*
X85549500Y-89272477D01*
X85587015Y-89412483D01*
X85587016Y-89412487D01*
X85659491Y-89538015D01*
X85761985Y-89640509D01*
X85807930Y-89667035D01*
X85887512Y-89712983D01*
X85887514Y-89712983D01*
X85887515Y-89712984D01*
X85922517Y-89722363D01*
X86027522Y-89750500D01*
X86027525Y-89750500D01*
X86172477Y-89750500D01*
X86242480Y-89731742D01*
X86258229Y-89727522D01*
X103849500Y-89727522D01*
X103849500Y-89872477D01*
X103887015Y-90012483D01*
X103887016Y-90012487D01*
X103949367Y-90120480D01*
X103959491Y-90138015D01*
X104061985Y-90240509D01*
X104107930Y-90267035D01*
X104187512Y-90312983D01*
X104187514Y-90312983D01*
X104187515Y-90312984D01*
X104215516Y-90320487D01*
X104327522Y-90350500D01*
X104327525Y-90350500D01*
X104472477Y-90350500D01*
X104542480Y-90331742D01*
X104612485Y-90312984D01*
X104738015Y-90240509D01*
X104763672Y-90214852D01*
X104798320Y-90200500D01*
X105852730Y-90200500D01*
X105852730Y-90200499D01*
X105954588Y-90173207D01*
X106045913Y-90120480D01*
X107701541Y-88464852D01*
X107736189Y-88450500D01*
X107772477Y-88450500D01*
X107842480Y-88431742D01*
X107912485Y-88412984D01*
X107921636Y-88407701D01*
X107929304Y-88403273D01*
X108038015Y-88340509D01*
X108140509Y-88238015D01*
X108212984Y-88112485D01*
X108234608Y-88031785D01*
X108250500Y-87972477D01*
X108250500Y-87936189D01*
X108264852Y-87901541D01*
X108532289Y-87634104D01*
X120199500Y-87634104D01*
X120199500Y-87765895D01*
X120233607Y-87893184D01*
X120233608Y-87893188D01*
X120291342Y-87993184D01*
X120299500Y-88007314D01*
X120392686Y-88100500D01*
X120413441Y-88112483D01*
X120506811Y-88166391D01*
X120506813Y-88166391D01*
X120506814Y-88166392D01*
X120607207Y-88193292D01*
X120634104Y-88200499D01*
X120634105Y-88200500D01*
X120634108Y-88200500D01*
X120765895Y-88200500D01*
X120765895Y-88200499D01*
X120893186Y-88166392D01*
X121007314Y-88100500D01*
X121100500Y-88007314D01*
X121166392Y-87893186D01*
X121200499Y-87765895D01*
X121200500Y-87765895D01*
X121200500Y-87763389D01*
X126847000Y-87763389D01*
X126847000Y-88236611D01*
X126847223Y-88238016D01*
X126874097Y-88407698D01*
X126874098Y-88407701D01*
X126927627Y-88572446D01*
X127006264Y-88726782D01*
X127006267Y-88726786D01*
X127006268Y-88726788D01*
X127108086Y-88866928D01*
X127108088Y-88866930D01*
X127108091Y-88866934D01*
X127230565Y-88989408D01*
X127230568Y-88989410D01*
X127230572Y-88989414D01*
X127370712Y-89091232D01*
X127370714Y-89091233D01*
X127370717Y-89091235D01*
X127525053Y-89169872D01*
X127525055Y-89169873D01*
X127689799Y-89223402D01*
X127860889Y-89250500D01*
X127860890Y-89250500D01*
X128034110Y-89250500D01*
X128034111Y-89250500D01*
X128205201Y-89223402D01*
X128369945Y-89169873D01*
X128524288Y-89091232D01*
X128664428Y-88989414D01*
X128786914Y-88866928D01*
X128888732Y-88726788D01*
X128967373Y-88572445D01*
X129020902Y-88407701D01*
X129048000Y-88236611D01*
X129048000Y-87763389D01*
X129020902Y-87592299D01*
X128967373Y-87427555D01*
X128935352Y-87364709D01*
X128888735Y-87273217D01*
X128888733Y-87273214D01*
X128888732Y-87273212D01*
X128786914Y-87133072D01*
X128786910Y-87133068D01*
X128786908Y-87133065D01*
X128664434Y-87010591D01*
X128664435Y-87010591D01*
X128594102Y-86959491D01*
X128524288Y-86908768D01*
X128524286Y-86908767D01*
X128524282Y-86908764D01*
X128369946Y-86830127D01*
X128205201Y-86776598D01*
X128205198Y-86776597D01*
X128073771Y-86755781D01*
X128034111Y-86749500D01*
X127860889Y-86749500D01*
X127828692Y-86754599D01*
X127689801Y-86776597D01*
X127689798Y-86776598D01*
X127525053Y-86830127D01*
X127370717Y-86908764D01*
X127230565Y-87010591D01*
X127108091Y-87133065D01*
X127006264Y-87273217D01*
X126927627Y-87427553D01*
X126874098Y-87592298D01*
X126874097Y-87592301D01*
X126859017Y-87687515D01*
X126847000Y-87763389D01*
X121200500Y-87763389D01*
X121200500Y-87634105D01*
X121200499Y-87634104D01*
X121189297Y-87592298D01*
X121166392Y-87506814D01*
X121166391Y-87506813D01*
X121166391Y-87506811D01*
X121120632Y-87427555D01*
X121100500Y-87392686D01*
X121007314Y-87299500D01*
X120893188Y-87233608D01*
X120893184Y-87233607D01*
X120765895Y-87199500D01*
X120765892Y-87199500D01*
X120634108Y-87199500D01*
X120634105Y-87199500D01*
X120506815Y-87233607D01*
X120506811Y-87233608D01*
X120392685Y-87299500D01*
X120299501Y-87392685D01*
X120299500Y-87392685D01*
X120233608Y-87506811D01*
X120233607Y-87506815D01*
X120199500Y-87634104D01*
X108532289Y-87634104D01*
X109932289Y-86234104D01*
X120199500Y-86234104D01*
X120199500Y-86365895D01*
X120233607Y-86493184D01*
X120233608Y-86493188D01*
X120299500Y-86607314D01*
X120392686Y-86700500D01*
X120414307Y-86712983D01*
X120506811Y-86766391D01*
X120506813Y-86766391D01*
X120506814Y-86766392D01*
X120544904Y-86776598D01*
X120634104Y-86800499D01*
X120634105Y-86800500D01*
X120634108Y-86800500D01*
X120765895Y-86800500D01*
X120765895Y-86800499D01*
X120893186Y-86766392D01*
X120895854Y-86764852D01*
X120908478Y-86757563D01*
X121007314Y-86700500D01*
X121100500Y-86607314D01*
X121166392Y-86493186D01*
X121200499Y-86365895D01*
X121200500Y-86365895D01*
X121200500Y-86234105D01*
X121200499Y-86234104D01*
X121180507Y-86159492D01*
X121166392Y-86106814D01*
X121166391Y-86106813D01*
X121166391Y-86106811D01*
X121112219Y-86012984D01*
X121100500Y-85992686D01*
X121007314Y-85899500D01*
X120893188Y-85833608D01*
X120893184Y-85833607D01*
X120765895Y-85799500D01*
X120765892Y-85799500D01*
X120634108Y-85799500D01*
X120634105Y-85799500D01*
X120506815Y-85833607D01*
X120506811Y-85833608D01*
X120392685Y-85899500D01*
X120392685Y-85899501D01*
X120299501Y-85992685D01*
X120299500Y-85992685D01*
X120233608Y-86106811D01*
X120233607Y-86106815D01*
X120199500Y-86234104D01*
X109932289Y-86234104D01*
X109970145Y-86196248D01*
X111038871Y-85127522D01*
X112120480Y-84045913D01*
X112173206Y-83954588D01*
X112173207Y-83954587D01*
X112174303Y-83950500D01*
X112200499Y-83852730D01*
X112200500Y-83852728D01*
X112200500Y-83498320D01*
X112214852Y-83463672D01*
X112240508Y-83438016D01*
X112240509Y-83438015D01*
X112312984Y-83312485D01*
X112346471Y-83187512D01*
X112350500Y-83172477D01*
X112350500Y-83027522D01*
X112312984Y-82887516D01*
X112312983Y-82887512D01*
X112246567Y-82772478D01*
X112240509Y-82761985D01*
X112138015Y-82659491D01*
X112012487Y-82587016D01*
X112012483Y-82587015D01*
X111872478Y-82549500D01*
X111872475Y-82549500D01*
X111727525Y-82549500D01*
X111727522Y-82549500D01*
X111587516Y-82587015D01*
X111587512Y-82587016D01*
X111461984Y-82659491D01*
X111461984Y-82659492D01*
X111359492Y-82761984D01*
X111359491Y-82761984D01*
X111287016Y-82887512D01*
X111287015Y-82887516D01*
X111249500Y-83027522D01*
X111249500Y-83172477D01*
X111287015Y-83312483D01*
X111287016Y-83312487D01*
X111359491Y-83438015D01*
X111385148Y-83463672D01*
X111399500Y-83498320D01*
X111399500Y-83613811D01*
X111385148Y-83648459D01*
X107698459Y-87335148D01*
X107663811Y-87349500D01*
X107627522Y-87349500D01*
X107487516Y-87387015D01*
X107487512Y-87387016D01*
X107361984Y-87459491D01*
X107361984Y-87459492D01*
X107259492Y-87561984D01*
X107259491Y-87561984D01*
X107187016Y-87687512D01*
X107187015Y-87687516D01*
X107149500Y-87827522D01*
X107149500Y-87863811D01*
X107135148Y-87898459D01*
X105648459Y-89385148D01*
X105613811Y-89399500D01*
X104798320Y-89399500D01*
X104763672Y-89385148D01*
X104738015Y-89359491D01*
X104612487Y-89287016D01*
X104612483Y-89287015D01*
X104472478Y-89249500D01*
X104472475Y-89249500D01*
X104327525Y-89249500D01*
X104327522Y-89249500D01*
X104187516Y-89287015D01*
X104187512Y-89287016D01*
X104061984Y-89359491D01*
X104061984Y-89359492D01*
X103959492Y-89461984D01*
X103959491Y-89461984D01*
X103887016Y-89587512D01*
X103887015Y-89587516D01*
X103849500Y-89727522D01*
X86258229Y-89727522D01*
X86312485Y-89712984D01*
X86438015Y-89640509D01*
X86540509Y-89538015D01*
X86612984Y-89412485D01*
X86631742Y-89342480D01*
X86650500Y-89272477D01*
X86650500Y-89127522D01*
X86612984Y-88987516D01*
X86612983Y-88987512D01*
X86543366Y-88866934D01*
X86540509Y-88861985D01*
X86438015Y-88759491D01*
X86312487Y-88687016D01*
X86312483Y-88687015D01*
X86172478Y-88649500D01*
X86172475Y-88649500D01*
X86165477Y-88649500D01*
X86130829Y-88635148D01*
X85412277Y-87916596D01*
X85397925Y-87881948D01*
X85399596Y-87869264D01*
X85400500Y-87865892D01*
X85400500Y-87734108D01*
X85400500Y-87734105D01*
X85400499Y-87734104D01*
X85373705Y-87634108D01*
X85366392Y-87606814D01*
X85366391Y-87606813D01*
X85366391Y-87606811D01*
X85305011Y-87500499D01*
X85300500Y-87492686D01*
X85207314Y-87399500D01*
X85195510Y-87392685D01*
X85093188Y-87333608D01*
X85093184Y-87333607D01*
X84965895Y-87299500D01*
X84965892Y-87299500D01*
X84834108Y-87299500D01*
X84834105Y-87299500D01*
X84706815Y-87333607D01*
X84706811Y-87333608D01*
X84592685Y-87399500D01*
X84592685Y-87399501D01*
X84499501Y-87492685D01*
X84499500Y-87492685D01*
X84433608Y-87606811D01*
X84433607Y-87606815D01*
X84399500Y-87734104D01*
X79750500Y-87734104D01*
X79750500Y-87727522D01*
X79714266Y-87592299D01*
X79712984Y-87587515D01*
X79712983Y-87587514D01*
X79712983Y-87587512D01*
X79654563Y-87486328D01*
X79640509Y-87461985D01*
X79538015Y-87359491D01*
X79519515Y-87348810D01*
X79412487Y-87287016D01*
X79412483Y-87287015D01*
X79272478Y-87249500D01*
X79272475Y-87249500D01*
X79127525Y-87249500D01*
X79127522Y-87249500D01*
X78987516Y-87287015D01*
X78987512Y-87287016D01*
X78861984Y-87359491D01*
X78861984Y-87359492D01*
X78759492Y-87461984D01*
X78759491Y-87461984D01*
X78687016Y-87587512D01*
X78687015Y-87587516D01*
X78649500Y-87727522D01*
X78649500Y-87872477D01*
X78687015Y-88012483D01*
X78687016Y-88012487D01*
X78759491Y-88138015D01*
X78835148Y-88213672D01*
X78849500Y-88248320D01*
X78849500Y-88334521D01*
X78835148Y-88369169D01*
X77936287Y-89268029D01*
X77901639Y-89282381D01*
X77888957Y-89280711D01*
X77772478Y-89249500D01*
X77772475Y-89249500D01*
X77627525Y-89249500D01*
X77627522Y-89249500D01*
X77487516Y-89287015D01*
X77487512Y-89287016D01*
X77361984Y-89359491D01*
X77361984Y-89359492D01*
X77259492Y-89461984D01*
X77259491Y-89461984D01*
X77187016Y-89587512D01*
X77187015Y-89587516D01*
X77149500Y-89727522D01*
X77149500Y-89872478D01*
X77180711Y-89988957D01*
X77175816Y-90026139D01*
X77168029Y-90036287D01*
X76719531Y-90484786D01*
X76719530Y-90484787D01*
X76673386Y-90564709D01*
X76673385Y-90564713D01*
X76649500Y-90653853D01*
X76649500Y-91351680D01*
X76635148Y-91386328D01*
X76559492Y-91461984D01*
X76559491Y-91461984D01*
X76487016Y-91587512D01*
X76487015Y-91587516D01*
X76449500Y-91727522D01*
X61500000Y-91727522D01*
X61500000Y-87827522D01*
X61849500Y-87827522D01*
X61849500Y-87972477D01*
X61887015Y-88112483D01*
X61887016Y-88112487D01*
X61953723Y-88228024D01*
X61959491Y-88238015D01*
X62061985Y-88340509D01*
X62086769Y-88354818D01*
X62187512Y-88412983D01*
X62187514Y-88412983D01*
X62187515Y-88412984D01*
X62222517Y-88422363D01*
X62327522Y-88450500D01*
X62327525Y-88450500D01*
X62472477Y-88450500D01*
X62542480Y-88431742D01*
X62612485Y-88412984D01*
X62621636Y-88407701D01*
X62629304Y-88403273D01*
X62738015Y-88340509D01*
X62840509Y-88238015D01*
X62912984Y-88112485D01*
X62931210Y-88044462D01*
X62943888Y-88022503D01*
X63456611Y-87509780D01*
X63478570Y-87497102D01*
X63593186Y-87466392D01*
X63707314Y-87400500D01*
X63800500Y-87307314D01*
X63866392Y-87193186D01*
X63900499Y-87065895D01*
X63900500Y-87065895D01*
X63900500Y-86934105D01*
X63900499Y-86934104D01*
X63887882Y-86887015D01*
X63866392Y-86806814D01*
X63866391Y-86806813D01*
X63866391Y-86806811D01*
X63812219Y-86712984D01*
X63800500Y-86692686D01*
X63707314Y-86599500D01*
X63648386Y-86565478D01*
X63593188Y-86533608D01*
X63593184Y-86533607D01*
X63570474Y-86527522D01*
X85949500Y-86527522D01*
X85949500Y-86672477D01*
X85987015Y-86812483D01*
X85987016Y-86812487D01*
X86057233Y-86934104D01*
X86059491Y-86938015D01*
X86161985Y-87040509D01*
X86205950Y-87065892D01*
X86287512Y-87112983D01*
X86287514Y-87112983D01*
X86287515Y-87112984D01*
X86322517Y-87122363D01*
X86427522Y-87150500D01*
X86427525Y-87150500D01*
X86534522Y-87150500D01*
X86569170Y-87164852D01*
X86935398Y-87531080D01*
X86949750Y-87565728D01*
X86943185Y-87590228D01*
X86887016Y-87687512D01*
X86887015Y-87687516D01*
X86849500Y-87827522D01*
X86849500Y-87972477D01*
X86887015Y-88112483D01*
X86887016Y-88112487D01*
X86953723Y-88228024D01*
X86959491Y-88238015D01*
X87061985Y-88340509D01*
X87086769Y-88354818D01*
X87187512Y-88412983D01*
X87187514Y-88412983D01*
X87187515Y-88412984D01*
X87222517Y-88422363D01*
X87327522Y-88450500D01*
X87327525Y-88450500D01*
X87472477Y-88450500D01*
X87542480Y-88431742D01*
X87612485Y-88412984D01*
X87621636Y-88407701D01*
X87629304Y-88403273D01*
X87738015Y-88340509D01*
X87840509Y-88238015D01*
X87912984Y-88112485D01*
X87934608Y-88031785D01*
X87950500Y-87972477D01*
X87950500Y-87827522D01*
X87912984Y-87687516D01*
X87912983Y-87687512D01*
X87840508Y-87561984D01*
X87764852Y-87486328D01*
X87752625Y-87456812D01*
X87750919Y-87457037D01*
X87750499Y-87453852D01*
X87726615Y-87364715D01*
X87726613Y-87364709D01*
X87717833Y-87349502D01*
X87717830Y-87349498D01*
X87705142Y-87327522D01*
X105049500Y-87327522D01*
X105049500Y-87472477D01*
X105087015Y-87612483D01*
X105087016Y-87612487D01*
X105157233Y-87734104D01*
X105159491Y-87738015D01*
X105261985Y-87840509D01*
X105302345Y-87863811D01*
X105387512Y-87912983D01*
X105387514Y-87912983D01*
X105387515Y-87912984D01*
X105422517Y-87922363D01*
X105527522Y-87950500D01*
X105527525Y-87950500D01*
X105672477Y-87950500D01*
X105742480Y-87931742D01*
X105812485Y-87912984D01*
X105938015Y-87840509D01*
X106040509Y-87738015D01*
X106112984Y-87612485D01*
X106143902Y-87497099D01*
X106150500Y-87472477D01*
X106150500Y-87365477D01*
X106164852Y-87330829D01*
X106730829Y-86764852D01*
X106765477Y-86750500D01*
X106872477Y-86750500D01*
X106942480Y-86731742D01*
X107012485Y-86712984D01*
X107138015Y-86640509D01*
X107240509Y-86538015D01*
X107312984Y-86412485D01*
X107346657Y-86286818D01*
X107350500Y-86272477D01*
X107350500Y-86127522D01*
X107319808Y-86012983D01*
X107312984Y-85987515D01*
X107312983Y-85987514D01*
X107312983Y-85987512D01*
X107243053Y-85866392D01*
X107240509Y-85861985D01*
X107138015Y-85759491D01*
X107122442Y-85750500D01*
X107012487Y-85687016D01*
X107012483Y-85687015D01*
X106872478Y-85649500D01*
X106872475Y-85649500D01*
X106727525Y-85649500D01*
X106727522Y-85649500D01*
X106587516Y-85687015D01*
X106587512Y-85687016D01*
X106461984Y-85759491D01*
X106461984Y-85759492D01*
X106359492Y-85861984D01*
X106359491Y-85861984D01*
X106287016Y-85987512D01*
X106287015Y-85987516D01*
X106249500Y-86127522D01*
X106249500Y-86234522D01*
X106235148Y-86269170D01*
X105669170Y-86835148D01*
X105634522Y-86849500D01*
X105527522Y-86849500D01*
X105387516Y-86887015D01*
X105387512Y-86887016D01*
X105261984Y-86959491D01*
X105261984Y-86959492D01*
X105159492Y-87061984D01*
X105159491Y-87061984D01*
X105087016Y-87187512D01*
X105087015Y-87187516D01*
X105049500Y-87327522D01*
X87705142Y-87327522D01*
X87688964Y-87299500D01*
X87680472Y-87284791D01*
X87680467Y-87284785D01*
X87064852Y-86669170D01*
X87050500Y-86634522D01*
X87050500Y-86527522D01*
X87019675Y-86412485D01*
X87012984Y-86387515D01*
X87012983Y-86387513D01*
X87012983Y-86387512D01*
X86954846Y-86286818D01*
X86940509Y-86261985D01*
X86838015Y-86159491D01*
X86712487Y-86087016D01*
X86712483Y-86087015D01*
X86572478Y-86049500D01*
X86572475Y-86049500D01*
X86427525Y-86049500D01*
X86427522Y-86049500D01*
X86287516Y-86087015D01*
X86287512Y-86087016D01*
X86161984Y-86159491D01*
X86161984Y-86159492D01*
X86059492Y-86261984D01*
X86059491Y-86261984D01*
X85987016Y-86387512D01*
X85987015Y-86387516D01*
X85949500Y-86527522D01*
X63570474Y-86527522D01*
X63465895Y-86499500D01*
X63465892Y-86499500D01*
X63334108Y-86499500D01*
X63334105Y-86499500D01*
X63206815Y-86533607D01*
X63206811Y-86533608D01*
X63092685Y-86599500D01*
X62999501Y-86692685D01*
X62999500Y-86692685D01*
X62933608Y-86806811D01*
X62933607Y-86806815D01*
X62902898Y-86921423D01*
X62890216Y-86943389D01*
X62498458Y-87335148D01*
X62463810Y-87349500D01*
X62327522Y-87349500D01*
X62187516Y-87387015D01*
X62187512Y-87387016D01*
X62061984Y-87459491D01*
X62061984Y-87459492D01*
X61959492Y-87561984D01*
X61959491Y-87561984D01*
X61887016Y-87687512D01*
X61887015Y-87687516D01*
X61849500Y-87827522D01*
X61500000Y-87827522D01*
X61500000Y-84827522D01*
X70749500Y-84827522D01*
X70749500Y-84972477D01*
X70787015Y-85112483D01*
X70787016Y-85112487D01*
X70859491Y-85238015D01*
X70961985Y-85340509D01*
X71007930Y-85367035D01*
X71087512Y-85412983D01*
X71087514Y-85412983D01*
X71087515Y-85412984D01*
X71122517Y-85422363D01*
X71227522Y-85450500D01*
X71227525Y-85450500D01*
X71263811Y-85450500D01*
X71298459Y-85464852D01*
X71654087Y-85820480D01*
X71684460Y-85838016D01*
X71745410Y-85873206D01*
X71745412Y-85873207D01*
X71847269Y-85900499D01*
X71847270Y-85900500D01*
X71847273Y-85900500D01*
X71901680Y-85900500D01*
X71936328Y-85914852D01*
X71961985Y-85940509D01*
X72007930Y-85967035D01*
X72087512Y-86012983D01*
X72087514Y-86012983D01*
X72087515Y-86012984D01*
X72122517Y-86022363D01*
X72227522Y-86050500D01*
X72227525Y-86050500D01*
X72372477Y-86050500D01*
X72442480Y-86031742D01*
X72512485Y-86012984D01*
X72638015Y-85940509D01*
X72740509Y-85838015D01*
X72812696Y-85712984D01*
X72812983Y-85712487D01*
X72812983Y-85712486D01*
X72812984Y-85712485D01*
X72844950Y-85593188D01*
X72850500Y-85572477D01*
X72850500Y-85427522D01*
X72850499Y-85427521D01*
X72828007Y-85343578D01*
X72825468Y-85334104D01*
X87599500Y-85334104D01*
X87599500Y-85465895D01*
X87633607Y-85593184D01*
X87633608Y-85593188D01*
X87687780Y-85687015D01*
X87699500Y-85707314D01*
X87792686Y-85800500D01*
X87827291Y-85820479D01*
X87906811Y-85866391D01*
X87906813Y-85866391D01*
X87906814Y-85866392D01*
X88007207Y-85893292D01*
X88034104Y-85900499D01*
X88034105Y-85900500D01*
X88034108Y-85900500D01*
X88113811Y-85900500D01*
X88148459Y-85914852D01*
X88738355Y-86504748D01*
X88746142Y-86514896D01*
X88763628Y-86545182D01*
X88799500Y-86607314D01*
X88892686Y-86700500D01*
X88914307Y-86712983D01*
X89006811Y-86766391D01*
X89006813Y-86766391D01*
X89006814Y-86766392D01*
X89044904Y-86776598D01*
X89134104Y-86800499D01*
X89134105Y-86800500D01*
X89134108Y-86800500D01*
X89265895Y-86800500D01*
X89265895Y-86800499D01*
X89393186Y-86766392D01*
X89395854Y-86764852D01*
X89408478Y-86757563D01*
X89507314Y-86700500D01*
X89600500Y-86607314D01*
X89666392Y-86493186D01*
X89700499Y-86365895D01*
X89700500Y-86365895D01*
X89700500Y-86234105D01*
X89700499Y-86234104D01*
X89680507Y-86159492D01*
X89666392Y-86106814D01*
X89666391Y-86106813D01*
X89666391Y-86106811D01*
X89612219Y-86012984D01*
X89600500Y-85992686D01*
X89507314Y-85899500D01*
X89393188Y-85833608D01*
X89393184Y-85833607D01*
X89265895Y-85799500D01*
X89265892Y-85799500D01*
X89186189Y-85799500D01*
X89151541Y-85785148D01*
X88561643Y-85195250D01*
X88553856Y-85185102D01*
X88500500Y-85092686D01*
X88407314Y-84999500D01*
X88392652Y-84991035D01*
X88293188Y-84933608D01*
X88293184Y-84933607D01*
X88165895Y-84899500D01*
X88165892Y-84899500D01*
X88034108Y-84899500D01*
X88034105Y-84899500D01*
X87906815Y-84933607D01*
X87906811Y-84933608D01*
X87792685Y-84999500D01*
X87792685Y-84999501D01*
X87699501Y-85092685D01*
X87699500Y-85092685D01*
X87633608Y-85206811D01*
X87633607Y-85206815D01*
X87599500Y-85334104D01*
X72825468Y-85334104D01*
X72820205Y-85314464D01*
X72812984Y-85287515D01*
X72812983Y-85287513D01*
X72812983Y-85287512D01*
X72766389Y-85206811D01*
X72740509Y-85161985D01*
X72638015Y-85059491D01*
X72512487Y-84987016D01*
X72512483Y-84987015D01*
X72372478Y-84949500D01*
X72372475Y-84949500D01*
X72227525Y-84949500D01*
X72227522Y-84949500D01*
X72087517Y-84987015D01*
X72035056Y-85017303D01*
X71997873Y-85022197D01*
X71975908Y-85009515D01*
X71864852Y-84898459D01*
X71850500Y-84863811D01*
X71850500Y-84827522D01*
X71812984Y-84687516D01*
X71812983Y-84687512D01*
X71748720Y-84576207D01*
X71740509Y-84561985D01*
X71706046Y-84527522D01*
X83049500Y-84527522D01*
X83049500Y-84672477D01*
X83087015Y-84812483D01*
X83087016Y-84812487D01*
X83153723Y-84928024D01*
X83159491Y-84938015D01*
X83261985Y-85040509D01*
X83294863Y-85059491D01*
X83387512Y-85112983D01*
X83387514Y-85112983D01*
X83387515Y-85112984D01*
X83422517Y-85122363D01*
X83527522Y-85150500D01*
X83527525Y-85150500D01*
X83672477Y-85150500D01*
X83742480Y-85131742D01*
X83812485Y-85112984D01*
X83813350Y-85112485D01*
X83847644Y-85092685D01*
X83938015Y-85040509D01*
X84040509Y-84938015D01*
X84112984Y-84812485D01*
X84146471Y-84687512D01*
X84150500Y-84672477D01*
X84150500Y-84565477D01*
X84164852Y-84530829D01*
X84761577Y-83934104D01*
X88999500Y-83934104D01*
X88999500Y-84065895D01*
X89033607Y-84193184D01*
X89033608Y-84193188D01*
X89099500Y-84307314D01*
X89192686Y-84400500D01*
X89214307Y-84412983D01*
X89306811Y-84466391D01*
X89306813Y-84466391D01*
X89306814Y-84466392D01*
X89407207Y-84493292D01*
X89434104Y-84500499D01*
X89434105Y-84500500D01*
X89434108Y-84500500D01*
X89565895Y-84500500D01*
X89565895Y-84500499D01*
X89693186Y-84466392D01*
X89807314Y-84400500D01*
X89900500Y-84307314D01*
X89966392Y-84193186D01*
X90000499Y-84065895D01*
X90000500Y-84065895D01*
X90000500Y-84015477D01*
X90014852Y-83980829D01*
X90061577Y-83934104D01*
X92299500Y-83934104D01*
X92299500Y-84065895D01*
X92333607Y-84193184D01*
X92333608Y-84193188D01*
X92399500Y-84307314D01*
X92492686Y-84400500D01*
X92514307Y-84412983D01*
X92606811Y-84466391D01*
X92606813Y-84466391D01*
X92606814Y-84466392D01*
X92707207Y-84493292D01*
X92734104Y-84500499D01*
X92734105Y-84500500D01*
X92734108Y-84500500D01*
X92865895Y-84500500D01*
X92865895Y-84500499D01*
X92993186Y-84466392D01*
X93107314Y-84400500D01*
X93200500Y-84307314D01*
X93266392Y-84193186D01*
X93300499Y-84065895D01*
X93300500Y-84065895D01*
X93300500Y-83934105D01*
X93300499Y-83934104D01*
X93293292Y-83907207D01*
X93266392Y-83806814D01*
X93266391Y-83806813D01*
X93266391Y-83806811D01*
X93200499Y-83692685D01*
X93107314Y-83599500D01*
X92993188Y-83533608D01*
X92993184Y-83533607D01*
X92865895Y-83499500D01*
X92865892Y-83499500D01*
X92734108Y-83499500D01*
X92734105Y-83499500D01*
X92606815Y-83533607D01*
X92606811Y-83533608D01*
X92492685Y-83599500D01*
X92492685Y-83599501D01*
X92399501Y-83692685D01*
X92399500Y-83692685D01*
X92333608Y-83806811D01*
X92333607Y-83806815D01*
X92299500Y-83934104D01*
X90061577Y-83934104D01*
X90730829Y-83264852D01*
X90765477Y-83250500D01*
X90772477Y-83250500D01*
X90842480Y-83231742D01*
X90912485Y-83212984D01*
X91038015Y-83140509D01*
X91140509Y-83038015D01*
X91212984Y-82912485D01*
X91240421Y-82810091D01*
X91250500Y-82772477D01*
X91250500Y-82727522D01*
X93849500Y-82727522D01*
X93849500Y-82872477D01*
X93887015Y-83012483D01*
X93887016Y-83012487D01*
X93959491Y-83138015D01*
X94035148Y-83213672D01*
X94049500Y-83248320D01*
X94049500Y-86346144D01*
X94067275Y-86412483D01*
X94067276Y-86412484D01*
X94067276Y-86412485D01*
X94073385Y-86435287D01*
X94073386Y-86435290D01*
X94119530Y-86515212D01*
X94135148Y-86530830D01*
X94149500Y-86565478D01*
X94149500Y-86672477D01*
X94187015Y-86812483D01*
X94187016Y-86812487D01*
X94257233Y-86934104D01*
X94259491Y-86938015D01*
X94361985Y-87040509D01*
X94405950Y-87065892D01*
X94487512Y-87112983D01*
X94487514Y-87112983D01*
X94487515Y-87112984D01*
X94522517Y-87122363D01*
X94627522Y-87150500D01*
X94627525Y-87150500D01*
X94772477Y-87150500D01*
X94842480Y-87131742D01*
X94912485Y-87112984D01*
X95038015Y-87040509D01*
X95140509Y-86938015D01*
X95212984Y-86812485D01*
X95242991Y-86700499D01*
X95250500Y-86672477D01*
X95250500Y-86527522D01*
X95219675Y-86412485D01*
X95212984Y-86387515D01*
X95176312Y-86323998D01*
X95171417Y-86286818D01*
X95194248Y-86257065D01*
X95218748Y-86250500D01*
X95272477Y-86250500D01*
X95342480Y-86231742D01*
X95412485Y-86212984D01*
X95413350Y-86212485D01*
X95429304Y-86203273D01*
X95538015Y-86140509D01*
X95565352Y-86113172D01*
X95600000Y-86098820D01*
X95634648Y-86113172D01*
X95661985Y-86140509D01*
X95707930Y-86167035D01*
X95787512Y-86212983D01*
X95787514Y-86212983D01*
X95787515Y-86212984D01*
X95822517Y-86222363D01*
X95927522Y-86250500D01*
X95927525Y-86250500D01*
X96072477Y-86250500D01*
X96142480Y-86231742D01*
X96212485Y-86212984D01*
X96213350Y-86212485D01*
X96229304Y-86203273D01*
X96338015Y-86140509D01*
X96440509Y-86038015D01*
X96504302Y-85927522D01*
X96512983Y-85912487D01*
X96512983Y-85912486D01*
X96512984Y-85912485D01*
X96546471Y-85787512D01*
X96550500Y-85772477D01*
X96550500Y-85627522D01*
X96949500Y-85627522D01*
X96949500Y-85772477D01*
X96987015Y-85912483D01*
X96987016Y-85912487D01*
X97045039Y-86012984D01*
X97059491Y-86038015D01*
X97161985Y-86140509D01*
X97207930Y-86167035D01*
X97287512Y-86212983D01*
X97287514Y-86212983D01*
X97287515Y-86212984D01*
X97322517Y-86222363D01*
X97427522Y-86250500D01*
X97427525Y-86250500D01*
X97572477Y-86250500D01*
X97642480Y-86231742D01*
X97712485Y-86212984D01*
X97713350Y-86212485D01*
X97729304Y-86203273D01*
X97838015Y-86140509D01*
X97940509Y-86038015D01*
X98004302Y-85927522D01*
X98012983Y-85912487D01*
X98012983Y-85912486D01*
X98012984Y-85912485D01*
X98046471Y-85787512D01*
X98050500Y-85772477D01*
X98050500Y-85665478D01*
X98064852Y-85630830D01*
X98080469Y-85615213D01*
X98080470Y-85615212D01*
X98126614Y-85535288D01*
X98132506Y-85513299D01*
X98150500Y-85446144D01*
X98150500Y-84427522D01*
X99149500Y-84427522D01*
X99149500Y-84572477D01*
X99187015Y-84712483D01*
X99187016Y-84712487D01*
X99259491Y-84838015D01*
X99335148Y-84913672D01*
X99349500Y-84948320D01*
X99349500Y-85551680D01*
X99335148Y-85586328D01*
X99259492Y-85661984D01*
X99259491Y-85661984D01*
X99187016Y-85787512D01*
X99187015Y-85787516D01*
X99149500Y-85927522D01*
X99149500Y-86072477D01*
X99187015Y-86212483D01*
X99187016Y-86212487D01*
X99229932Y-86286818D01*
X99259491Y-86338015D01*
X99361985Y-86440509D01*
X99407930Y-86467035D01*
X99487512Y-86512983D01*
X99487514Y-86512983D01*
X99487515Y-86512984D01*
X99522517Y-86522363D01*
X99627522Y-86550500D01*
X99627525Y-86550500D01*
X99772477Y-86550500D01*
X99842480Y-86531742D01*
X99912485Y-86512984D01*
X100038015Y-86440509D01*
X100140509Y-86338015D01*
X100212696Y-86212984D01*
X100212983Y-86212487D01*
X100212983Y-86212486D01*
X100212984Y-86212485D01*
X100246604Y-86087015D01*
X100250500Y-86072477D01*
X100250500Y-85927522D01*
X100212984Y-85787516D01*
X100212983Y-85787512D01*
X100154960Y-85687015D01*
X100140509Y-85661985D01*
X100064852Y-85586328D01*
X100050500Y-85551680D01*
X100050500Y-84948320D01*
X100064852Y-84913672D01*
X100140508Y-84838016D01*
X100140509Y-84838015D01*
X100212984Y-84712485D01*
X100231742Y-84642480D01*
X100250500Y-84572477D01*
X100250500Y-84427522D01*
X100212984Y-84287516D01*
X100212983Y-84287512D01*
X100143920Y-84167893D01*
X100140509Y-84161985D01*
X100038015Y-84059491D01*
X100014501Y-84045915D01*
X99912487Y-83987016D01*
X99912483Y-83987015D01*
X99772478Y-83949500D01*
X99772475Y-83949500D01*
X99627525Y-83949500D01*
X99627522Y-83949500D01*
X99487516Y-83987015D01*
X99487512Y-83987016D01*
X99361984Y-84059491D01*
X99361984Y-84059492D01*
X99259492Y-84161984D01*
X99259491Y-84161984D01*
X99187016Y-84287512D01*
X99187015Y-84287516D01*
X99149500Y-84427522D01*
X98150500Y-84427522D01*
X98150500Y-83848320D01*
X98164852Y-83813672D01*
X98240508Y-83738016D01*
X98240509Y-83738015D01*
X98303273Y-83629304D01*
X98312983Y-83612487D01*
X98312983Y-83612486D01*
X98312984Y-83612485D01*
X98346732Y-83486538D01*
X98350500Y-83472477D01*
X98350500Y-83327522D01*
X98312984Y-83187516D01*
X98312983Y-83187512D01*
X98240508Y-83061984D01*
X98138015Y-82959491D01*
X98012487Y-82887016D01*
X98012483Y-82887015D01*
X97872478Y-82849500D01*
X97872475Y-82849500D01*
X97727525Y-82849500D01*
X97727522Y-82849500D01*
X97587516Y-82887015D01*
X97587512Y-82887016D01*
X97461984Y-82959491D01*
X97461984Y-82959492D01*
X97359492Y-83061984D01*
X97359491Y-83061984D01*
X97287016Y-83187512D01*
X97287015Y-83187516D01*
X97249500Y-83327522D01*
X97249500Y-83472477D01*
X97287015Y-83612483D01*
X97287016Y-83612487D01*
X97359491Y-83738015D01*
X97435148Y-83813672D01*
X97449500Y-83848320D01*
X97449500Y-85106012D01*
X97435148Y-85140660D01*
X97413183Y-85153342D01*
X97287514Y-85187016D01*
X97287512Y-85187016D01*
X97161984Y-85259491D01*
X97161984Y-85259492D01*
X97059492Y-85361984D01*
X97059491Y-85361984D01*
X96987016Y-85487512D01*
X96987015Y-85487516D01*
X96949500Y-85627522D01*
X96550500Y-85627522D01*
X96512984Y-85487516D01*
X96512983Y-85487512D01*
X96467035Y-85407930D01*
X96440509Y-85361985D01*
X96364852Y-85286328D01*
X96350500Y-85251680D01*
X96350500Y-84165478D01*
X96364852Y-84130830D01*
X96530830Y-83964852D01*
X96565478Y-83950500D01*
X96672477Y-83950500D01*
X96742480Y-83931742D01*
X96812485Y-83912984D01*
X96938015Y-83840509D01*
X97040509Y-83738015D01*
X97103273Y-83629304D01*
X97112983Y-83612487D01*
X97112983Y-83612486D01*
X97112984Y-83612485D01*
X97146732Y-83486538D01*
X97150500Y-83472477D01*
X97150500Y-83327522D01*
X97112984Y-83187516D01*
X97112983Y-83187512D01*
X97040508Y-83061984D01*
X96938015Y-82959491D01*
X96812487Y-82887016D01*
X96812483Y-82887015D01*
X96672478Y-82849500D01*
X96672475Y-82849500D01*
X96527525Y-82849500D01*
X96527522Y-82849500D01*
X96387516Y-82887015D01*
X96387512Y-82887016D01*
X96261984Y-82959491D01*
X96261984Y-82959492D01*
X96159492Y-83061984D01*
X96159491Y-83061984D01*
X96087016Y-83187512D01*
X96087015Y-83187516D01*
X96049500Y-83327522D01*
X96049500Y-83434522D01*
X96035148Y-83469170D01*
X95719532Y-83784785D01*
X95719525Y-83784794D01*
X95680306Y-83852726D01*
X95680305Y-83852728D01*
X95673386Y-83864710D01*
X95673385Y-83864712D01*
X95649500Y-83953852D01*
X95649500Y-83981251D01*
X95635148Y-84015899D01*
X95600500Y-84030251D01*
X95576000Y-84023686D01*
X95512487Y-83987016D01*
X95512483Y-83987015D01*
X95372478Y-83949500D01*
X95372475Y-83949500D01*
X95227525Y-83949500D01*
X95227522Y-83949500D01*
X95087516Y-83987015D01*
X95087512Y-83987016D01*
X94961984Y-84059491D01*
X94961984Y-84059492D01*
X94859492Y-84161984D01*
X94859491Y-84161984D01*
X94841935Y-84192393D01*
X94812182Y-84215223D01*
X94775000Y-84210328D01*
X94752170Y-84180575D01*
X94750500Y-84167893D01*
X94750500Y-83248320D01*
X94764852Y-83213672D01*
X94840508Y-83138016D01*
X94840509Y-83138015D01*
X94912984Y-83012485D01*
X94946604Y-82887015D01*
X94950500Y-82872477D01*
X94950500Y-82727522D01*
X101749500Y-82727522D01*
X101749500Y-82872477D01*
X101787015Y-83012483D01*
X101787016Y-83012487D01*
X101859491Y-83138015D01*
X101935148Y-83213672D01*
X101949500Y-83248320D01*
X101949500Y-84751680D01*
X101935148Y-84786328D01*
X101859492Y-84861984D01*
X101859491Y-84861984D01*
X101787016Y-84987512D01*
X101787015Y-84987516D01*
X101749500Y-85127522D01*
X101749500Y-85272477D01*
X101787015Y-85412483D01*
X101787016Y-85412487D01*
X101845221Y-85513299D01*
X101859491Y-85538015D01*
X101961985Y-85640509D01*
X102005232Y-85665478D01*
X102087512Y-85712983D01*
X102087514Y-85712983D01*
X102087515Y-85712984D01*
X102122517Y-85722363D01*
X102227522Y-85750500D01*
X102227525Y-85750500D01*
X102372477Y-85750500D01*
X102442480Y-85731742D01*
X102512485Y-85712984D01*
X102513350Y-85712485D01*
X102529304Y-85703273D01*
X102638015Y-85640509D01*
X102740509Y-85538015D01*
X102812696Y-85412984D01*
X102812983Y-85412487D01*
X102812983Y-85412486D01*
X102812984Y-85412485D01*
X102837370Y-85321476D01*
X102850500Y-85272477D01*
X102850500Y-85127522D01*
X102818879Y-85009515D01*
X102812984Y-84987515D01*
X102812983Y-84987514D01*
X102812983Y-84987512D01*
X102740508Y-84861984D01*
X102664852Y-84786328D01*
X102650500Y-84751680D01*
X102650500Y-83248320D01*
X102664852Y-83213672D01*
X102740508Y-83138016D01*
X102740509Y-83138015D01*
X102812984Y-83012485D01*
X102846604Y-82887015D01*
X102850500Y-82872477D01*
X102850500Y-82727522D01*
X102812984Y-82587516D01*
X102812983Y-82587512D01*
X102740508Y-82461984D01*
X102638015Y-82359491D01*
X102512487Y-82287016D01*
X102512483Y-82287015D01*
X102372478Y-82249500D01*
X102372475Y-82249500D01*
X102227525Y-82249500D01*
X102227522Y-82249500D01*
X102087516Y-82287015D01*
X102087512Y-82287016D01*
X101961984Y-82359491D01*
X101961984Y-82359492D01*
X101859492Y-82461984D01*
X101859491Y-82461984D01*
X101787016Y-82587512D01*
X101787015Y-82587516D01*
X101749500Y-82727522D01*
X94950500Y-82727522D01*
X94912984Y-82587516D01*
X94912983Y-82587512D01*
X94840508Y-82461984D01*
X94738015Y-82359491D01*
X94612487Y-82287016D01*
X94612483Y-82287015D01*
X94472478Y-82249500D01*
X94472475Y-82249500D01*
X94327525Y-82249500D01*
X94327522Y-82249500D01*
X94187516Y-82287015D01*
X94187512Y-82287016D01*
X94061984Y-82359491D01*
X94061984Y-82359492D01*
X93959492Y-82461984D01*
X93959491Y-82461984D01*
X93887016Y-82587512D01*
X93887015Y-82587516D01*
X93849500Y-82727522D01*
X91250500Y-82727522D01*
X91250500Y-82627522D01*
X91212984Y-82487516D01*
X91212983Y-82487512D01*
X91140508Y-82361984D01*
X91038015Y-82259491D01*
X90912487Y-82187016D01*
X90912483Y-82187015D01*
X90772478Y-82149500D01*
X90772475Y-82149500D01*
X90627525Y-82149500D01*
X90627522Y-82149500D01*
X90487516Y-82187015D01*
X90487512Y-82187016D01*
X90361984Y-82259491D01*
X90361984Y-82259492D01*
X90259492Y-82361984D01*
X90259491Y-82361984D01*
X90187016Y-82487512D01*
X90187015Y-82487516D01*
X90149500Y-82627522D01*
X90149500Y-82772478D01*
X90159578Y-82810091D01*
X90154683Y-82847273D01*
X90146896Y-82857421D01*
X89519170Y-83485148D01*
X89484522Y-83499500D01*
X89434105Y-83499500D01*
X89306815Y-83533607D01*
X89306811Y-83533608D01*
X89192685Y-83599500D01*
X89192685Y-83599501D01*
X89099501Y-83692685D01*
X89099500Y-83692685D01*
X89033608Y-83806811D01*
X89033607Y-83806815D01*
X88999500Y-83934104D01*
X84761577Y-83934104D01*
X87268159Y-81427522D01*
X129249500Y-81427522D01*
X129249500Y-81572477D01*
X129287015Y-81712483D01*
X129287016Y-81712487D01*
X129359491Y-81838015D01*
X129461985Y-81940509D01*
X129479290Y-81950500D01*
X129587512Y-82012983D01*
X129587514Y-82012983D01*
X129587515Y-82012984D01*
X129622517Y-82022363D01*
X129727522Y-82050500D01*
X129727525Y-82050500D01*
X129872477Y-82050500D01*
X129942480Y-82031742D01*
X130012485Y-82012984D01*
X130138015Y-81940509D01*
X130213672Y-81864852D01*
X130248320Y-81850500D01*
X131466161Y-81850500D01*
X131490661Y-81857065D01*
X131587512Y-81912983D01*
X131587514Y-81912983D01*
X131587515Y-81912984D01*
X131622517Y-81922363D01*
X131727522Y-81950500D01*
X131727525Y-81950500D01*
X131872477Y-81950500D01*
X131942480Y-81931742D01*
X132012485Y-81912984D01*
X132138015Y-81840509D01*
X132240509Y-81738015D01*
X132312984Y-81612485D01*
X132331742Y-81542480D01*
X132350500Y-81472477D01*
X132350500Y-81327522D01*
X132312984Y-81187516D01*
X132312983Y-81187512D01*
X132267035Y-81107930D01*
X132240509Y-81061985D01*
X132138015Y-80959491D01*
X132120710Y-80949500D01*
X132012487Y-80887016D01*
X132012483Y-80887015D01*
X131872478Y-80849500D01*
X131872475Y-80849500D01*
X131727525Y-80849500D01*
X131727522Y-80849500D01*
X131587516Y-80887015D01*
X131587512Y-80887016D01*
X131461984Y-80959491D01*
X131461984Y-80959492D01*
X131359492Y-81061984D01*
X131359491Y-81061984D01*
X131323109Y-81125000D01*
X131293356Y-81147830D01*
X131280674Y-81149500D01*
X130248320Y-81149500D01*
X130213672Y-81135148D01*
X130138015Y-81059491D01*
X130012487Y-80987016D01*
X130012483Y-80987015D01*
X129872478Y-80949500D01*
X129872475Y-80949500D01*
X129727525Y-80949500D01*
X129727522Y-80949500D01*
X129587516Y-80987015D01*
X129587512Y-80987016D01*
X129461984Y-81059491D01*
X129461984Y-81059492D01*
X129359492Y-81161984D01*
X129359491Y-81161984D01*
X129287016Y-81287512D01*
X129287015Y-81287516D01*
X129249500Y-81427522D01*
X87268159Y-81427522D01*
X88030829Y-80664852D01*
X88065477Y-80650500D01*
X92251680Y-80650500D01*
X92286328Y-80664852D01*
X92361985Y-80740509D01*
X92407930Y-80767035D01*
X92487512Y-80812983D01*
X92487514Y-80812983D01*
X92487515Y-80812984D01*
X92522517Y-80822363D01*
X92627522Y-80850500D01*
X92627525Y-80850500D01*
X92772477Y-80850500D01*
X92842480Y-80831742D01*
X92912485Y-80812984D01*
X93038015Y-80740509D01*
X93140509Y-80638015D01*
X93212984Y-80512485D01*
X93231742Y-80442480D01*
X93250500Y-80372477D01*
X93250500Y-80227522D01*
X93212984Y-80087516D01*
X93212983Y-80087512D01*
X93147091Y-79973386D01*
X93140509Y-79961985D01*
X93038015Y-79859491D01*
X92912487Y-79787016D01*
X92912483Y-79787015D01*
X92772478Y-79749500D01*
X92772475Y-79749500D01*
X92627525Y-79749500D01*
X92627522Y-79749500D01*
X92487516Y-79787015D01*
X92487512Y-79787016D01*
X92361984Y-79859491D01*
X92361984Y-79859492D01*
X92286328Y-79935148D01*
X92251680Y-79949500D01*
X87853853Y-79949500D01*
X87764713Y-79973385D01*
X87764710Y-79973386D01*
X87684794Y-80019527D01*
X87684784Y-80019534D01*
X83669170Y-84035148D01*
X83634522Y-84049500D01*
X83527522Y-84049500D01*
X83387516Y-84087015D01*
X83387512Y-84087016D01*
X83261984Y-84159491D01*
X83261984Y-84159492D01*
X83159492Y-84261984D01*
X83159491Y-84261984D01*
X83087016Y-84387512D01*
X83087015Y-84387516D01*
X83049500Y-84527522D01*
X71706046Y-84527522D01*
X71638015Y-84459491D01*
X71611733Y-84444317D01*
X71512487Y-84387016D01*
X71512483Y-84387015D01*
X71372478Y-84349500D01*
X71372475Y-84349500D01*
X71227525Y-84349500D01*
X71227522Y-84349500D01*
X71087516Y-84387015D01*
X71087512Y-84387016D01*
X70961984Y-84459491D01*
X70961984Y-84459492D01*
X70859492Y-84561984D01*
X70859491Y-84561984D01*
X70787016Y-84687512D01*
X70787015Y-84687516D01*
X70749500Y-84827522D01*
X61500000Y-84827522D01*
X61500000Y-83827522D01*
X72749500Y-83827522D01*
X72749500Y-83972477D01*
X72787015Y-84112483D01*
X72787016Y-84112487D01*
X72833610Y-84193188D01*
X72859491Y-84238015D01*
X72961985Y-84340509D01*
X72977558Y-84349500D01*
X73087512Y-84412983D01*
X73087514Y-84412983D01*
X73087515Y-84412984D01*
X73122517Y-84422363D01*
X73227522Y-84450500D01*
X73227525Y-84450500D01*
X73372477Y-84450500D01*
X73442480Y-84431742D01*
X73512485Y-84412984D01*
X73638015Y-84340509D01*
X73740509Y-84238015D01*
X73812984Y-84112485D01*
X73836778Y-84023686D01*
X73850500Y-83972477D01*
X73850500Y-83936188D01*
X73864852Y-83901540D01*
X74301540Y-83464852D01*
X74336188Y-83450500D01*
X74372477Y-83450500D01*
X74442480Y-83431742D01*
X74512485Y-83412984D01*
X74638015Y-83340509D01*
X74740509Y-83238015D01*
X74812984Y-83112485D01*
X74839780Y-83012483D01*
X74850500Y-82972477D01*
X74850500Y-82827522D01*
X74812984Y-82687516D01*
X74812983Y-82687512D01*
X74754960Y-82587015D01*
X74740509Y-82561985D01*
X74638015Y-82459491D01*
X74624486Y-82451680D01*
X74512487Y-82387016D01*
X74512483Y-82387015D01*
X74372478Y-82349500D01*
X74372475Y-82349500D01*
X74227525Y-82349500D01*
X74227522Y-82349500D01*
X74087516Y-82387015D01*
X74087512Y-82387016D01*
X73961984Y-82459491D01*
X73961984Y-82459492D01*
X73859492Y-82561984D01*
X73859491Y-82561984D01*
X73787016Y-82687512D01*
X73787015Y-82687516D01*
X73749500Y-82827522D01*
X73749500Y-82863811D01*
X73735148Y-82898459D01*
X73298459Y-83335148D01*
X73263811Y-83349500D01*
X73227522Y-83349500D01*
X73087516Y-83387015D01*
X73087512Y-83387016D01*
X72961984Y-83459491D01*
X72961984Y-83459492D01*
X72859492Y-83561984D01*
X72859491Y-83561984D01*
X72787016Y-83687512D01*
X72787015Y-83687516D01*
X72749500Y-83827522D01*
X61500000Y-83827522D01*
X61500000Y-77830423D01*
X67152500Y-77830423D01*
X67152500Y-77949576D01*
X67183336Y-78064657D01*
X67183337Y-78064661D01*
X67230614Y-78146545D01*
X67242910Y-78167842D01*
X67327158Y-78252090D01*
X67364923Y-78273894D01*
X67430338Y-78311662D01*
X67430340Y-78311662D01*
X67430341Y-78311663D01*
X67521105Y-78335983D01*
X67545423Y-78342499D01*
X67545424Y-78342500D01*
X67545427Y-78342500D01*
X67664576Y-78342500D01*
X67664576Y-78342499D01*
X67779659Y-78311663D01*
X67882842Y-78252090D01*
X67900828Y-78234104D01*
X70699500Y-78234104D01*
X70699500Y-78365895D01*
X70733607Y-78493184D01*
X70733608Y-78493188D01*
X70799500Y-78607314D01*
X70892686Y-78700500D01*
X70934457Y-78724617D01*
X71006811Y-78766391D01*
X71006813Y-78766391D01*
X71006814Y-78766392D01*
X71107207Y-78793292D01*
X71134104Y-78800499D01*
X71134105Y-78800500D01*
X71134108Y-78800500D01*
X71265895Y-78800500D01*
X71265895Y-78800499D01*
X71393186Y-78766392D01*
X71507314Y-78700500D01*
X71600500Y-78607314D01*
X71666392Y-78493186D01*
X71700499Y-78365895D01*
X71700500Y-78365895D01*
X71700500Y-78234105D01*
X71700499Y-78234104D01*
X71693292Y-78207207D01*
X71666392Y-78106814D01*
X71666391Y-78106813D01*
X71666391Y-78106811D01*
X71600499Y-77992685D01*
X71507314Y-77899500D01*
X71393188Y-77833608D01*
X71393184Y-77833607D01*
X71265895Y-77799500D01*
X71265892Y-77799500D01*
X71134108Y-77799500D01*
X71134105Y-77799500D01*
X71006815Y-77833607D01*
X71006811Y-77833608D01*
X70892685Y-77899500D01*
X70892685Y-77899501D01*
X70799501Y-77992685D01*
X70799500Y-77992685D01*
X70733608Y-78106811D01*
X70733607Y-78106815D01*
X70699500Y-78234104D01*
X67900828Y-78234104D01*
X67967090Y-78167842D01*
X68026663Y-78064659D01*
X68057499Y-77949576D01*
X68057500Y-77949576D01*
X68057500Y-77854320D01*
X68071852Y-77819672D01*
X68106500Y-77805320D01*
X68141148Y-77819672D01*
X68161985Y-77840509D01*
X68207930Y-77867035D01*
X68287512Y-77912983D01*
X68287514Y-77912983D01*
X68287515Y-77912984D01*
X68322517Y-77922363D01*
X68427522Y-77950500D01*
X68427525Y-77950500D01*
X68572477Y-77950500D01*
X68642480Y-77931742D01*
X68712485Y-77912984D01*
X68838015Y-77840509D01*
X68940509Y-77738015D01*
X69012984Y-77612485D01*
X69036576Y-77524440D01*
X69050500Y-77472477D01*
X69050500Y-77436188D01*
X69064851Y-77401541D01*
X69361429Y-77104962D01*
X69383388Y-77092284D01*
X69454588Y-77073207D01*
X69545913Y-77020480D01*
X70332289Y-76234104D01*
X79399500Y-76234104D01*
X79399500Y-76365895D01*
X79433607Y-76493184D01*
X79433608Y-76493188D01*
X79486546Y-76584877D01*
X79499500Y-76607314D01*
X79592686Y-76700500D01*
X79634457Y-76724617D01*
X79706811Y-76766391D01*
X79706813Y-76766391D01*
X79706814Y-76766392D01*
X79807207Y-76793292D01*
X79834104Y-76800499D01*
X79834105Y-76800500D01*
X79834108Y-76800500D01*
X79965895Y-76800500D01*
X79965895Y-76800499D01*
X80093186Y-76766392D01*
X80207314Y-76700500D01*
X80300500Y-76607314D01*
X80346568Y-76527522D01*
X81649500Y-76527522D01*
X81649500Y-76672477D01*
X81687015Y-76812483D01*
X81687016Y-76812487D01*
X81759491Y-76938015D01*
X81835148Y-77013672D01*
X81849500Y-77048320D01*
X81849500Y-82451680D01*
X81835148Y-82486328D01*
X81759492Y-82561984D01*
X81759491Y-82561984D01*
X81687016Y-82687512D01*
X81687015Y-82687516D01*
X81649500Y-82827522D01*
X81649500Y-82972477D01*
X81687015Y-83112483D01*
X81687016Y-83112487D01*
X81753723Y-83228024D01*
X81759491Y-83238015D01*
X81861985Y-83340509D01*
X81877558Y-83349500D01*
X81987512Y-83412983D01*
X81987514Y-83412983D01*
X81987515Y-83412984D01*
X82022517Y-83422363D01*
X82127522Y-83450500D01*
X82127525Y-83450500D01*
X82272477Y-83450500D01*
X82342480Y-83431742D01*
X82412485Y-83412984D01*
X82538015Y-83340509D01*
X82640509Y-83238015D01*
X82712984Y-83112485D01*
X82739780Y-83012483D01*
X82750500Y-82972477D01*
X82750500Y-82827522D01*
X82712984Y-82687516D01*
X82712983Y-82687512D01*
X82654960Y-82587015D01*
X82640509Y-82561985D01*
X82564852Y-82486328D01*
X82550500Y-82451680D01*
X82550500Y-79634104D01*
X110199500Y-79634104D01*
X110199500Y-79765895D01*
X110233607Y-79893184D01*
X110233608Y-79893188D01*
X110299500Y-80007314D01*
X110392686Y-80100500D01*
X110434457Y-80124617D01*
X110506811Y-80166391D01*
X110506813Y-80166391D01*
X110506814Y-80166392D01*
X110607207Y-80193292D01*
X110634104Y-80200499D01*
X110634105Y-80200500D01*
X110634108Y-80200500D01*
X110765895Y-80200500D01*
X110765895Y-80200499D01*
X110893186Y-80166392D01*
X111007314Y-80100500D01*
X111100500Y-80007314D01*
X111166392Y-79893186D01*
X111200499Y-79765895D01*
X111200500Y-79765895D01*
X111200500Y-79634105D01*
X111200499Y-79634104D01*
X111193292Y-79607207D01*
X111166392Y-79506814D01*
X111166391Y-79506813D01*
X111166391Y-79506811D01*
X111100499Y-79392685D01*
X111007314Y-79299500D01*
X110893188Y-79233608D01*
X110893184Y-79233607D01*
X110765895Y-79199500D01*
X110765892Y-79199500D01*
X110634108Y-79199500D01*
X110634105Y-79199500D01*
X110506815Y-79233607D01*
X110506811Y-79233608D01*
X110392685Y-79299500D01*
X110392685Y-79299501D01*
X110299501Y-79392685D01*
X110299500Y-79392685D01*
X110233608Y-79506811D01*
X110233607Y-79506815D01*
X110199500Y-79634104D01*
X82550500Y-79634104D01*
X82550500Y-78234104D01*
X110199500Y-78234104D01*
X110199500Y-78365895D01*
X110233607Y-78493184D01*
X110233608Y-78493188D01*
X110299500Y-78607314D01*
X110392686Y-78700500D01*
X110434457Y-78724617D01*
X110506811Y-78766391D01*
X110506813Y-78766391D01*
X110506814Y-78766392D01*
X110607207Y-78793292D01*
X110634104Y-78800499D01*
X110634105Y-78800500D01*
X110634108Y-78800500D01*
X110765895Y-78800500D01*
X110765895Y-78800499D01*
X110893186Y-78766392D01*
X111007314Y-78700500D01*
X111100500Y-78607314D01*
X111166392Y-78493186D01*
X111200499Y-78365895D01*
X111200500Y-78365895D01*
X111200500Y-78234105D01*
X111200499Y-78234104D01*
X111193292Y-78207207D01*
X111166392Y-78106814D01*
X111166391Y-78106813D01*
X111166391Y-78106811D01*
X111100499Y-77992685D01*
X111007314Y-77899500D01*
X110893188Y-77833608D01*
X110893184Y-77833607D01*
X110765895Y-77799500D01*
X110765892Y-77799500D01*
X110634108Y-77799500D01*
X110634105Y-77799500D01*
X110506815Y-77833607D01*
X110506811Y-77833608D01*
X110392685Y-77899500D01*
X110392685Y-77899501D01*
X110299501Y-77992685D01*
X110299500Y-77992685D01*
X110233608Y-78106811D01*
X110233607Y-78106815D01*
X110199500Y-78234104D01*
X82550500Y-78234104D01*
X82550500Y-77048320D01*
X82564852Y-77013672D01*
X82640508Y-76938016D01*
X82640509Y-76938015D01*
X82703273Y-76829304D01*
X82712983Y-76812487D01*
X82712983Y-76812486D01*
X82712984Y-76812485D01*
X82742991Y-76700499D01*
X82750500Y-76672477D01*
X82750500Y-76527522D01*
X82712984Y-76387516D01*
X82712983Y-76387512D01*
X82640508Y-76261984D01*
X82538015Y-76159491D01*
X82412487Y-76087016D01*
X82412483Y-76087015D01*
X82272478Y-76049500D01*
X82272475Y-76049500D01*
X82127525Y-76049500D01*
X82127522Y-76049500D01*
X81987516Y-76087015D01*
X81987512Y-76087016D01*
X81861984Y-76159491D01*
X81861984Y-76159492D01*
X81759492Y-76261984D01*
X81759491Y-76261984D01*
X81687016Y-76387512D01*
X81687015Y-76387516D01*
X81649500Y-76527522D01*
X80346568Y-76527522D01*
X80366392Y-76493186D01*
X80400499Y-76365895D01*
X80400500Y-76365895D01*
X80400500Y-76234105D01*
X80400499Y-76234104D01*
X80380507Y-76159492D01*
X80366392Y-76106814D01*
X80366391Y-76106813D01*
X80366391Y-76106811D01*
X80312219Y-76012984D01*
X80300500Y-75992686D01*
X80207314Y-75899500D01*
X80093188Y-75833608D01*
X80093184Y-75833607D01*
X79965895Y-75799500D01*
X79965892Y-75799500D01*
X79834108Y-75799500D01*
X79834105Y-75799500D01*
X79706815Y-75833607D01*
X79706811Y-75833608D01*
X79592685Y-75899500D01*
X79592685Y-75899501D01*
X79499501Y-75992685D01*
X79499500Y-75992685D01*
X79433608Y-76106811D01*
X79433607Y-76106815D01*
X79399500Y-76234104D01*
X70332289Y-76234104D01*
X70501541Y-76064852D01*
X70536189Y-76050500D01*
X70572477Y-76050500D01*
X70642480Y-76031742D01*
X70712485Y-76012984D01*
X70838015Y-75940509D01*
X70940509Y-75838015D01*
X71012984Y-75712485D01*
X71043770Y-75597591D01*
X71050500Y-75572477D01*
X71050500Y-75427522D01*
X71012984Y-75287516D01*
X71012983Y-75287512D01*
X70957130Y-75190774D01*
X70940509Y-75161985D01*
X70838015Y-75059491D01*
X70802609Y-75039049D01*
X70712487Y-74987016D01*
X70712483Y-74987015D01*
X70572478Y-74949500D01*
X70572475Y-74949500D01*
X70427525Y-74949500D01*
X70427522Y-74949500D01*
X70287516Y-74987015D01*
X70287512Y-74987016D01*
X70161984Y-75059491D01*
X70161984Y-75059492D01*
X70059492Y-75161984D01*
X70059491Y-75161984D01*
X69987016Y-75287512D01*
X69987015Y-75287516D01*
X69949500Y-75427522D01*
X69949500Y-75463810D01*
X69935148Y-75498458D01*
X69138570Y-76295035D01*
X69116604Y-76307717D01*
X69045414Y-76326792D01*
X69045410Y-76326793D01*
X68954086Y-76379520D01*
X68954086Y-76379521D01*
X68498459Y-76835148D01*
X68463811Y-76849500D01*
X68427522Y-76849500D01*
X68287516Y-76887015D01*
X68287512Y-76887016D01*
X68161984Y-76959491D01*
X68161984Y-76959492D01*
X68059492Y-77061984D01*
X68059491Y-77061984D01*
X67987016Y-77187512D01*
X67987015Y-77187516D01*
X67949500Y-77327522D01*
X67949500Y-77472475D01*
X67949913Y-77475615D01*
X67940202Y-77511839D01*
X67907721Y-77530587D01*
X67876832Y-77524440D01*
X67833326Y-77499321D01*
X67779660Y-77468337D01*
X67779657Y-77468336D01*
X67664576Y-77437500D01*
X67664573Y-77437500D01*
X67545427Y-77437500D01*
X67545424Y-77437500D01*
X67430342Y-77468336D01*
X67430338Y-77468337D01*
X67327157Y-77527910D01*
X67327157Y-77527911D01*
X67242911Y-77612157D01*
X67242910Y-77612157D01*
X67183337Y-77715338D01*
X67183336Y-77715342D01*
X67152500Y-77830423D01*
X61500000Y-77830423D01*
X61500000Y-75227658D01*
X68347559Y-75227658D01*
X68347560Y-75227662D01*
X68348432Y-75231769D01*
X68349501Y-75241946D01*
X68349501Y-75246144D01*
X68358727Y-75280582D01*
X68359327Y-75283084D01*
X68366726Y-75317931D01*
X68366729Y-75317940D01*
X68368632Y-75321676D01*
X68372298Y-75331227D01*
X68373387Y-75335290D01*
X68391207Y-75366155D01*
X68392436Y-75368419D01*
X68408607Y-75400174D01*
X68408609Y-75400177D01*
X68411419Y-75403300D01*
X68417427Y-75411571D01*
X68419529Y-75415211D01*
X68419530Y-75415212D01*
X68444749Y-75440431D01*
X68446485Y-75442261D01*
X68515344Y-75518771D01*
X68592733Y-75569052D01*
X68636465Y-75583272D01*
X68680493Y-75597589D01*
X68680503Y-75597591D01*
X68772656Y-75602440D01*
X68772656Y-75602439D01*
X68772658Y-75602440D01*
X68862934Y-75583273D01*
X68945173Y-75541393D01*
X69013771Y-75479656D01*
X69064052Y-75402267D01*
X69077518Y-75360853D01*
X69081672Y-75351525D01*
X69099910Y-75319938D01*
X69123535Y-75231769D01*
X69125500Y-75224437D01*
X69125500Y-75125562D01*
X69099910Y-75030063D01*
X69099228Y-75028415D01*
X69095500Y-75009668D01*
X69095500Y-74834104D01*
X84699500Y-74834104D01*
X84699500Y-74965895D01*
X84733607Y-75093184D01*
X84733608Y-75093188D01*
X84799500Y-75207314D01*
X84892686Y-75300500D01*
X84922893Y-75317940D01*
X85006811Y-75366391D01*
X85006813Y-75366391D01*
X85006814Y-75366392D01*
X85107207Y-75393292D01*
X85134104Y-75400499D01*
X85134105Y-75400500D01*
X85134108Y-75400500D01*
X85265895Y-75400500D01*
X85265895Y-75400499D01*
X85393186Y-75366392D01*
X85393597Y-75366155D01*
X85418952Y-75351516D01*
X85507314Y-75300500D01*
X85600500Y-75207314D01*
X85666392Y-75093186D01*
X85688051Y-75012354D01*
X85696209Y-74981908D01*
X123149500Y-74981908D01*
X123149500Y-75218091D01*
X123186446Y-75451365D01*
X123186447Y-75451368D01*
X123259432Y-75675993D01*
X123366653Y-75886427D01*
X123366656Y-75886431D01*
X123366657Y-75886433D01*
X123505483Y-76077510D01*
X123505485Y-76077512D01*
X123505488Y-76077516D01*
X123672483Y-76244511D01*
X123672486Y-76244513D01*
X123672490Y-76244517D01*
X123863567Y-76383343D01*
X123863569Y-76383344D01*
X123863572Y-76383346D01*
X124074006Y-76490567D01*
X124074008Y-76490568D01*
X124298632Y-76563553D01*
X124531908Y-76600500D01*
X124531909Y-76600500D01*
X124768091Y-76600500D01*
X124768092Y-76600500D01*
X125001368Y-76563553D01*
X125225992Y-76490568D01*
X125436433Y-76383343D01*
X125627510Y-76244517D01*
X125794517Y-76077510D01*
X125933343Y-75886433D01*
X126040568Y-75675992D01*
X126113553Y-75451368D01*
X126150500Y-75218092D01*
X126150500Y-74981908D01*
X126113553Y-74748632D01*
X126040568Y-74524008D01*
X126002388Y-74449075D01*
X125933346Y-74313572D01*
X125933344Y-74313569D01*
X125933343Y-74313567D01*
X125794517Y-74122490D01*
X125794513Y-74122486D01*
X125794511Y-74122483D01*
X125627516Y-73955488D01*
X125627517Y-73955488D01*
X125436427Y-73816653D01*
X125225993Y-73709432D01*
X125001368Y-73636447D01*
X125001365Y-73636446D01*
X124822167Y-73608064D01*
X124768092Y-73599500D01*
X124531908Y-73599500D01*
X124488009Y-73606452D01*
X124298634Y-73636446D01*
X124298631Y-73636447D01*
X124074006Y-73709432D01*
X123863572Y-73816653D01*
X123672483Y-73955488D01*
X123505488Y-74122483D01*
X123366653Y-74313572D01*
X123259432Y-74524006D01*
X123186447Y-74748631D01*
X123186446Y-74748634D01*
X123149500Y-74981908D01*
X85696209Y-74981908D01*
X85700123Y-74967301D01*
X85700123Y-74967298D01*
X85700500Y-74965891D01*
X85700500Y-74834105D01*
X85700499Y-74834104D01*
X85693292Y-74807207D01*
X85666392Y-74706814D01*
X85666391Y-74706813D01*
X85666391Y-74706811D01*
X85600499Y-74592685D01*
X85507314Y-74499500D01*
X85393188Y-74433608D01*
X85393184Y-74433607D01*
X85265895Y-74399500D01*
X85265892Y-74399500D01*
X85134108Y-74399500D01*
X85134105Y-74399500D01*
X85006815Y-74433607D01*
X85006811Y-74433608D01*
X84892685Y-74499500D01*
X84892685Y-74499501D01*
X84799501Y-74592685D01*
X84799500Y-74592685D01*
X84733608Y-74706811D01*
X84733607Y-74706815D01*
X84699500Y-74834104D01*
X69095500Y-74834104D01*
X69095500Y-74490331D01*
X69099231Y-74471577D01*
X69099907Y-74469942D01*
X69099910Y-74469938D01*
X69125499Y-74374438D01*
X69125500Y-74374438D01*
X69125500Y-74275562D01*
X69099910Y-74180063D01*
X69099909Y-74180059D01*
X69083009Y-74150788D01*
X69078114Y-74138970D01*
X69071614Y-74114712D01*
X69071613Y-74114710D01*
X69039261Y-74058676D01*
X69025469Y-74034788D01*
X68960212Y-73969531D01*
X68954842Y-73966430D01*
X68880289Y-73923386D01*
X68880286Y-73923385D01*
X68791147Y-73899500D01*
X68791144Y-73899500D01*
X68698856Y-73899500D01*
X68698853Y-73899500D01*
X68609713Y-73923385D01*
X68609710Y-73923386D01*
X68529794Y-73969527D01*
X68529784Y-73969534D01*
X68464534Y-74034784D01*
X68464527Y-74034794D01*
X68418386Y-74114709D01*
X68418385Y-74114713D01*
X68403144Y-74171592D01*
X68401088Y-74177652D01*
X68400088Y-74180066D01*
X68374500Y-74275561D01*
X68374500Y-74275565D01*
X68374500Y-74374435D01*
X68390355Y-74433607D01*
X68392830Y-74442841D01*
X68394500Y-74455524D01*
X68394500Y-75012354D01*
X68386590Y-75039049D01*
X68380948Y-75047733D01*
X68380946Y-75047737D01*
X68379646Y-75051733D01*
X68375492Y-75061061D01*
X68373387Y-75064707D01*
X68373387Y-75064708D01*
X68364163Y-75099129D01*
X68363432Y-75101594D01*
X68352411Y-75135493D01*
X68352409Y-75135501D01*
X68352188Y-75139702D01*
X68350589Y-75149790D01*
X68349501Y-75153850D01*
X68349501Y-75189491D01*
X68349433Y-75192066D01*
X68347559Y-75227658D01*
X61500000Y-75227658D01*
X61500000Y-72050423D01*
X67152500Y-72050423D01*
X67152500Y-72169576D01*
X67183336Y-72284657D01*
X67183337Y-72284661D01*
X67242910Y-72387842D01*
X67327158Y-72472090D01*
X67341673Y-72480470D01*
X67430338Y-72531662D01*
X67430340Y-72531662D01*
X67430341Y-72531663D01*
X67500642Y-72550500D01*
X67545423Y-72562499D01*
X67545424Y-72562500D01*
X67545427Y-72562500D01*
X67664576Y-72562500D01*
X67664576Y-72562499D01*
X67779659Y-72531663D01*
X67882842Y-72472090D01*
X67967090Y-72387842D01*
X68026663Y-72284659D01*
X68057499Y-72169576D01*
X68057500Y-72169576D01*
X68057500Y-72134104D01*
X72499500Y-72134104D01*
X72499500Y-72265895D01*
X72533607Y-72393184D01*
X72533608Y-72393188D01*
X72597993Y-72504703D01*
X72599500Y-72507314D01*
X72692686Y-72600500D01*
X72734457Y-72624617D01*
X72806811Y-72666391D01*
X72806813Y-72666391D01*
X72806814Y-72666392D01*
X72907207Y-72693292D01*
X72934104Y-72700499D01*
X72934105Y-72700500D01*
X72934108Y-72700500D01*
X73065895Y-72700500D01*
X73065895Y-72700499D01*
X73193186Y-72666392D01*
X73307314Y-72600500D01*
X73342962Y-72564852D01*
X73377610Y-72550500D01*
X73546147Y-72550500D01*
X73546147Y-72550499D01*
X73635288Y-72526614D01*
X73645912Y-72520480D01*
X73715212Y-72480470D01*
X73930830Y-72264852D01*
X73965478Y-72250500D01*
X74072477Y-72250500D01*
X74142480Y-72231742D01*
X74212485Y-72212984D01*
X74338015Y-72140509D01*
X74440509Y-72038015D01*
X74512984Y-71912485D01*
X74535634Y-71827956D01*
X74550500Y-71772477D01*
X74550500Y-71627522D01*
X74514504Y-71493188D01*
X74512984Y-71487515D01*
X74512983Y-71487514D01*
X74512983Y-71487512D01*
X74442766Y-71365895D01*
X74440509Y-71361985D01*
X74338015Y-71259491D01*
X74212487Y-71187016D01*
X74212483Y-71187015D01*
X74072478Y-71149500D01*
X74072475Y-71149500D01*
X73927525Y-71149500D01*
X73927522Y-71149500D01*
X73787516Y-71187015D01*
X73787512Y-71187016D01*
X73661984Y-71259491D01*
X73661984Y-71259492D01*
X73559492Y-71361984D01*
X73559491Y-71361984D01*
X73487016Y-71487512D01*
X73487015Y-71487516D01*
X73449500Y-71627522D01*
X73449500Y-71734522D01*
X73435148Y-71769170D01*
X73390714Y-71813604D01*
X73356066Y-71827956D01*
X73321418Y-71813604D01*
X73307314Y-71799500D01*
X73193188Y-71733608D01*
X73193184Y-71733607D01*
X73065895Y-71699500D01*
X73065892Y-71699500D01*
X72934108Y-71699500D01*
X72934105Y-71699500D01*
X72806815Y-71733607D01*
X72806811Y-71733608D01*
X72692685Y-71799500D01*
X72692685Y-71799501D01*
X72599501Y-71892685D01*
X72599500Y-71892685D01*
X72533608Y-72006811D01*
X72533607Y-72006815D01*
X72499500Y-72134104D01*
X68057500Y-72134104D01*
X68057500Y-72050424D01*
X68057499Y-72050423D01*
X68026663Y-71935342D01*
X68026662Y-71935338D01*
X67967089Y-71832157D01*
X67882842Y-71747910D01*
X67779661Y-71688337D01*
X67779657Y-71688336D01*
X67664576Y-71657500D01*
X67664573Y-71657500D01*
X67545427Y-71657500D01*
X67545424Y-71657500D01*
X67430342Y-71688336D01*
X67430338Y-71688337D01*
X67327157Y-71747910D01*
X67327157Y-71747911D01*
X67242911Y-71832157D01*
X67242910Y-71832157D01*
X67183337Y-71935338D01*
X67183336Y-71935342D01*
X67152500Y-72050423D01*
X61500000Y-72050423D01*
X61500000Y-69334104D01*
X76099500Y-69334104D01*
X76099500Y-69465895D01*
X76133607Y-69593184D01*
X76133608Y-69593188D01*
X76199500Y-69707314D01*
X76235148Y-69742962D01*
X76249500Y-69777610D01*
X76249500Y-70422390D01*
X76235148Y-70457038D01*
X76199501Y-70492685D01*
X76199500Y-70492685D01*
X76133608Y-70606811D01*
X76133607Y-70606815D01*
X76099500Y-70734104D01*
X76099500Y-70865895D01*
X76133607Y-70993184D01*
X76133608Y-70993188D01*
X76199209Y-71106810D01*
X76199500Y-71107314D01*
X76292686Y-71200500D01*
X76334457Y-71224617D01*
X76406811Y-71266391D01*
X76406813Y-71266391D01*
X76406814Y-71266392D01*
X76507207Y-71293292D01*
X76534104Y-71300499D01*
X76534105Y-71300500D01*
X76534108Y-71300500D01*
X76665895Y-71300500D01*
X76665895Y-71300499D01*
X76793186Y-71266392D01*
X76849110Y-71234104D01*
X77799500Y-71234104D01*
X77799500Y-71365895D01*
X77833607Y-71493184D01*
X77833608Y-71493188D01*
X77899210Y-71606811D01*
X77899500Y-71607314D01*
X77992686Y-71700500D01*
X78034457Y-71724617D01*
X78106811Y-71766391D01*
X78106813Y-71766391D01*
X78106814Y-71766392D01*
X78203408Y-71792274D01*
X78234104Y-71800499D01*
X78234105Y-71800500D01*
X78234108Y-71800500D01*
X78365892Y-71800500D01*
X78369261Y-71799597D01*
X78406443Y-71804488D01*
X78416596Y-71812278D01*
X78684788Y-72080470D01*
X78734952Y-72109432D01*
X78764712Y-72126614D01*
X78786998Y-72132585D01*
X78853853Y-72150500D01*
X78853856Y-72150500D01*
X79322390Y-72150500D01*
X79357038Y-72164852D01*
X79392686Y-72200500D01*
X79414307Y-72212983D01*
X79506811Y-72266391D01*
X79506813Y-72266391D01*
X79506814Y-72266392D01*
X79607207Y-72293292D01*
X79634104Y-72300499D01*
X79634105Y-72300500D01*
X79634108Y-72300500D01*
X79765895Y-72300500D01*
X79765895Y-72300499D01*
X79893186Y-72266392D01*
X79895854Y-72264852D01*
X79908478Y-72257563D01*
X80007314Y-72200500D01*
X80100500Y-72107314D01*
X80166392Y-71993186D01*
X80200499Y-71865895D01*
X80200500Y-71865895D01*
X80200500Y-71734105D01*
X80200499Y-71734104D01*
X80188236Y-71688337D01*
X80166392Y-71606814D01*
X80166391Y-71606813D01*
X80166391Y-71606811D01*
X80121215Y-71528565D01*
X80100500Y-71492686D01*
X80007314Y-71399500D01*
X79893188Y-71333608D01*
X79893184Y-71333607D01*
X79765895Y-71299500D01*
X79765892Y-71299500D01*
X79634108Y-71299500D01*
X79634105Y-71299500D01*
X79506815Y-71333607D01*
X79506811Y-71333608D01*
X79392685Y-71399500D01*
X79392685Y-71399501D01*
X79357038Y-71435148D01*
X79322390Y-71449500D01*
X79065478Y-71449500D01*
X79030830Y-71435148D01*
X78799062Y-71203380D01*
X78786381Y-71181417D01*
X78766392Y-71106814D01*
X78700500Y-70992686D01*
X78607314Y-70899500D01*
X78493188Y-70833608D01*
X78493184Y-70833607D01*
X78365895Y-70799500D01*
X78365892Y-70799500D01*
X78234108Y-70799500D01*
X78234105Y-70799500D01*
X78106815Y-70833607D01*
X78106811Y-70833608D01*
X77992685Y-70899500D01*
X77992685Y-70899501D01*
X77899501Y-70992685D01*
X77899500Y-70992685D01*
X77833608Y-71106811D01*
X77833607Y-71106815D01*
X77799500Y-71234104D01*
X76849110Y-71234104D01*
X76907314Y-71200500D01*
X77000500Y-71107314D01*
X77066392Y-70993186D01*
X77100499Y-70865895D01*
X77100500Y-70865895D01*
X77100500Y-70734105D01*
X77100499Y-70734104D01*
X77093292Y-70707207D01*
X77066392Y-70606814D01*
X77066391Y-70606813D01*
X77066391Y-70606811D01*
X77024617Y-70534457D01*
X77000500Y-70492686D01*
X76964852Y-70457038D01*
X76950500Y-70422390D01*
X76950500Y-69777610D01*
X76964852Y-69742962D01*
X77000499Y-69707315D01*
X77000500Y-69707314D01*
X77066392Y-69593186D01*
X77100499Y-69465895D01*
X77100500Y-69465895D01*
X77100500Y-69334105D01*
X77100499Y-69334104D01*
X77066392Y-69206815D01*
X77066391Y-69206811D01*
X77000499Y-69092685D01*
X76907314Y-68999500D01*
X76793188Y-68933608D01*
X76793184Y-68933607D01*
X76665895Y-68899500D01*
X76665892Y-68899500D01*
X76534108Y-68899500D01*
X76534105Y-68899500D01*
X76406815Y-68933607D01*
X76406811Y-68933608D01*
X76292685Y-68999500D01*
X76292685Y-68999501D01*
X76199501Y-69092685D01*
X76199500Y-69092685D01*
X76133608Y-69206811D01*
X76133607Y-69206815D01*
X76099500Y-69334104D01*
X61500000Y-69334104D01*
X61500000Y-68827522D01*
X78649500Y-68827522D01*
X78649500Y-68972477D01*
X78687015Y-69112483D01*
X78687016Y-69112487D01*
X78759491Y-69238015D01*
X78835148Y-69313672D01*
X78849500Y-69348320D01*
X78849500Y-69651680D01*
X78835148Y-69686328D01*
X78759492Y-69761984D01*
X78759491Y-69761984D01*
X78687016Y-69887512D01*
X78687015Y-69887516D01*
X78649500Y-70027522D01*
X78649500Y-70172477D01*
X78687015Y-70312483D01*
X78687016Y-70312487D01*
X78742227Y-70408113D01*
X78759491Y-70438015D01*
X78861985Y-70540509D01*
X78907930Y-70567035D01*
X78987512Y-70612983D01*
X78987514Y-70612983D01*
X78987515Y-70612984D01*
X79022517Y-70622363D01*
X79127522Y-70650500D01*
X79127525Y-70650500D01*
X79272477Y-70650500D01*
X79342480Y-70631742D01*
X79412485Y-70612984D01*
X79538015Y-70540509D01*
X79640509Y-70438015D01*
X79712984Y-70312485D01*
X79731742Y-70242480D01*
X79750500Y-70172477D01*
X79750500Y-70027522D01*
X79712984Y-69887516D01*
X79712983Y-69887512D01*
X79640508Y-69761984D01*
X79564852Y-69686328D01*
X79550500Y-69651680D01*
X79550500Y-69348320D01*
X79564852Y-69313672D01*
X79640508Y-69238016D01*
X79640509Y-69238015D01*
X79712984Y-69112485D01*
X79743125Y-69000000D01*
X79750500Y-68972477D01*
X79750500Y-68934104D01*
X88099500Y-68934104D01*
X88099500Y-69065895D01*
X88133607Y-69193184D01*
X88133608Y-69193188D01*
X88199500Y-69307314D01*
X88292686Y-69400500D01*
X88334457Y-69424617D01*
X88406811Y-69466391D01*
X88406813Y-69466391D01*
X88406814Y-69466392D01*
X88507207Y-69493292D01*
X88534104Y-69500499D01*
X88534105Y-69500500D01*
X88534108Y-69500500D01*
X88665895Y-69500500D01*
X88665895Y-69500499D01*
X88793186Y-69466392D01*
X88907314Y-69400500D01*
X89000500Y-69307314D01*
X89066392Y-69193186D01*
X89100499Y-69065895D01*
X89100500Y-69065895D01*
X89100500Y-68934105D01*
X89100499Y-68934104D01*
X89071941Y-68827525D01*
X89066392Y-68806814D01*
X89066391Y-68806813D01*
X89066391Y-68806811D01*
X89000499Y-68692685D01*
X88907314Y-68599500D01*
X88793188Y-68533608D01*
X88793184Y-68533607D01*
X88665895Y-68499500D01*
X88665892Y-68499500D01*
X88534108Y-68499500D01*
X88534105Y-68499500D01*
X88406815Y-68533607D01*
X88406811Y-68533608D01*
X88292685Y-68599500D01*
X88292685Y-68599501D01*
X88199501Y-68692685D01*
X88199500Y-68692685D01*
X88133608Y-68806811D01*
X88133607Y-68806815D01*
X88099500Y-68934104D01*
X79750500Y-68934104D01*
X79750500Y-68827522D01*
X79722363Y-68722517D01*
X79712984Y-68687515D01*
X79712983Y-68687514D01*
X79712983Y-68687512D01*
X79654354Y-68585966D01*
X79640509Y-68561985D01*
X79538015Y-68459491D01*
X79506390Y-68441232D01*
X79412487Y-68387016D01*
X79412483Y-68387015D01*
X79272478Y-68349500D01*
X79272475Y-68349500D01*
X79127525Y-68349500D01*
X79127522Y-68349500D01*
X78987516Y-68387015D01*
X78987512Y-68387016D01*
X78861984Y-68459491D01*
X78861984Y-68459492D01*
X78759492Y-68561984D01*
X78759491Y-68561984D01*
X78687016Y-68687512D01*
X78687015Y-68687516D01*
X78649500Y-68827522D01*
X61500000Y-68827522D01*
X61500000Y-67413389D01*
X64439500Y-67413389D01*
X64439500Y-67586610D01*
X64466597Y-67757698D01*
X64466598Y-67757701D01*
X64520127Y-67922446D01*
X64598764Y-68076782D01*
X64598767Y-68076786D01*
X64598768Y-68076788D01*
X64700586Y-68216928D01*
X64700588Y-68216930D01*
X64700591Y-68216934D01*
X64823065Y-68339408D01*
X64823068Y-68339410D01*
X64823072Y-68339414D01*
X64963212Y-68441232D01*
X64963214Y-68441233D01*
X64963217Y-68441235D01*
X65077570Y-68499500D01*
X65117555Y-68519873D01*
X65282299Y-68573402D01*
X65453389Y-68600500D01*
X65453390Y-68600500D01*
X65626610Y-68600500D01*
X65626611Y-68600500D01*
X65797701Y-68573402D01*
X65962445Y-68519873D01*
X66116788Y-68441232D01*
X66256928Y-68339414D01*
X66379414Y-68216928D01*
X66481232Y-68076788D01*
X66559873Y-67922445D01*
X66613402Y-67757701D01*
X66640500Y-67586611D01*
X66640500Y-67413389D01*
X66979500Y-67413389D01*
X66979500Y-67586610D01*
X67006597Y-67757698D01*
X67006598Y-67757701D01*
X67060127Y-67922446D01*
X67138764Y-68076782D01*
X67138767Y-68076786D01*
X67138768Y-68076788D01*
X67240586Y-68216928D01*
X67240588Y-68216930D01*
X67240591Y-68216934D01*
X67363065Y-68339408D01*
X67363068Y-68339410D01*
X67363072Y-68339414D01*
X67503212Y-68441232D01*
X67503214Y-68441233D01*
X67503217Y-68441235D01*
X67617570Y-68499500D01*
X67657555Y-68519873D01*
X67822299Y-68573402D01*
X67993389Y-68600500D01*
X67993390Y-68600500D01*
X68166610Y-68600500D01*
X68166611Y-68600500D01*
X68337701Y-68573402D01*
X68502445Y-68519873D01*
X68656788Y-68441232D01*
X68796928Y-68339414D01*
X68919414Y-68216928D01*
X69021232Y-68076788D01*
X69099873Y-67922445D01*
X69153402Y-67757701D01*
X69180500Y-67586611D01*
X69180500Y-67413389D01*
X69153402Y-67242299D01*
X69099873Y-67077555D01*
X69021232Y-66923212D01*
X68919414Y-66783072D01*
X68919410Y-66783068D01*
X68919408Y-66783065D01*
X68796934Y-66660591D01*
X68796930Y-66660588D01*
X68796928Y-66660586D01*
X68748391Y-66625322D01*
X69519500Y-66625322D01*
X69519500Y-68374677D01*
X69534033Y-68447739D01*
X69589398Y-68530601D01*
X69636369Y-68561985D01*
X69672260Y-68585966D01*
X69745326Y-68600500D01*
X71494674Y-68600500D01*
X71567740Y-68585966D01*
X71650601Y-68530601D01*
X71705966Y-68447740D01*
X71720500Y-68374674D01*
X71720500Y-66625326D01*
X71705966Y-66552260D01*
X71650601Y-66469398D01*
X71567739Y-66414033D01*
X71494677Y-66399500D01*
X71494674Y-66399500D01*
X69745326Y-66399500D01*
X69745322Y-66399500D01*
X69672260Y-66414033D01*
X69589398Y-66469398D01*
X69534033Y-66552260D01*
X69519500Y-66625322D01*
X68748391Y-66625322D01*
X68656788Y-66558768D01*
X68656786Y-66558767D01*
X68656782Y-66558764D01*
X68502446Y-66480127D01*
X68337701Y-66426598D01*
X68337698Y-66426597D01*
X68206271Y-66405781D01*
X68166611Y-66399500D01*
X67993389Y-66399500D01*
X67961192Y-66404599D01*
X67822301Y-66426597D01*
X67822298Y-66426598D01*
X67657553Y-66480127D01*
X67503217Y-66558764D01*
X67363065Y-66660591D01*
X67240591Y-66783065D01*
X67138764Y-66923217D01*
X67060127Y-67077553D01*
X67006598Y-67242298D01*
X67006597Y-67242301D01*
X66979500Y-67413389D01*
X66640500Y-67413389D01*
X66613402Y-67242299D01*
X66559873Y-67077555D01*
X66481232Y-66923212D01*
X66379414Y-66783072D01*
X66379410Y-66783068D01*
X66379408Y-66783065D01*
X66330660Y-66734317D01*
X66316308Y-66699669D01*
X66330659Y-66665022D01*
X67080470Y-65915212D01*
X67126614Y-65835288D01*
X67144221Y-65769578D01*
X67150500Y-65746144D01*
X67150500Y-65577610D01*
X67164852Y-65542962D01*
X67200499Y-65507315D01*
X67200500Y-65507314D01*
X67266392Y-65393186D01*
X67300499Y-65265895D01*
X67300500Y-65265895D01*
X67300500Y-65134105D01*
X67300499Y-65134104D01*
X67266392Y-65006815D01*
X67266391Y-65006811D01*
X67200499Y-64892685D01*
X67107314Y-64799500D01*
X66993188Y-64733608D01*
X66993184Y-64733607D01*
X66865895Y-64699500D01*
X66865892Y-64699500D01*
X66734108Y-64699500D01*
X66734105Y-64699500D01*
X66606815Y-64733607D01*
X66606811Y-64733608D01*
X66492685Y-64799500D01*
X66492685Y-64799501D01*
X66399501Y-64892685D01*
X66399500Y-64892685D01*
X66333608Y-65006811D01*
X66333607Y-65006815D01*
X66299500Y-65134104D01*
X66299500Y-65265895D01*
X66333607Y-65393184D01*
X66333608Y-65393188D01*
X66399500Y-65507314D01*
X66413604Y-65521418D01*
X66427956Y-65556066D01*
X66413604Y-65590714D01*
X65619170Y-66385148D01*
X65584522Y-66399500D01*
X65453389Y-66399500D01*
X65421192Y-66404599D01*
X65282301Y-66426597D01*
X65282298Y-66426598D01*
X65117553Y-66480127D01*
X64963217Y-66558764D01*
X64823065Y-66660591D01*
X64700591Y-66783065D01*
X64598764Y-66923217D01*
X64520127Y-67077553D01*
X64466598Y-67242298D01*
X64466597Y-67242301D01*
X64439500Y-67413389D01*
X61500000Y-67413389D01*
X61500000Y-61111980D01*
X61514352Y-61077332D01*
X61549000Y-61062980D01*
X61583648Y-61077332D01*
X61591435Y-61087480D01*
X61683189Y-61246402D01*
X61683199Y-61246417D01*
X61818953Y-61423335D01*
X61818963Y-61423347D01*
X61976652Y-61581036D01*
X61976664Y-61581046D01*
X62153582Y-61716800D01*
X62153591Y-61716806D01*
X62153595Y-61716809D01*
X62346738Y-61828321D01*
X62552784Y-61913668D01*
X62552788Y-61913669D01*
X62768195Y-61971387D01*
X62768196Y-61971387D01*
X62768207Y-61971390D01*
X62989322Y-62000500D01*
X62989326Y-62000500D01*
X63212340Y-62000500D01*
X63212344Y-62000500D01*
X63433459Y-61971390D01*
X63648882Y-61913668D01*
X63854928Y-61828321D01*
X64048071Y-61716809D01*
X64225007Y-61581042D01*
X64382708Y-61423341D01*
X64518475Y-61246405D01*
X64629987Y-61053262D01*
X64715334Y-60847216D01*
X64773056Y-60631793D01*
X64802166Y-60410678D01*
X64802166Y-60187656D01*
X64773056Y-59966541D01*
X64715334Y-59751118D01*
X64629987Y-59545072D01*
X64518475Y-59351929D01*
X64518472Y-59351925D01*
X64518466Y-59351916D01*
X64382712Y-59174998D01*
X64382702Y-59174986D01*
X64225013Y-59017297D01*
X64225001Y-59017287D01*
X64048083Y-58881533D01*
X64048068Y-58881523D01*
X63854926Y-58770012D01*
X63648883Y-58684666D01*
X63648877Y-58684664D01*
X63433470Y-58626946D01*
X63433463Y-58626945D01*
X63433459Y-58626944D01*
X63212344Y-58597834D01*
X62989322Y-58597834D01*
X62768207Y-58626944D01*
X62768203Y-58626944D01*
X62768195Y-58626946D01*
X62552788Y-58684664D01*
X62552782Y-58684666D01*
X62346739Y-58770012D01*
X62153597Y-58881523D01*
X62153582Y-58881533D01*
X61976664Y-59017287D01*
X61976652Y-59017297D01*
X61818963Y-59174986D01*
X61818953Y-59174998D01*
X61683199Y-59351916D01*
X61683189Y-59351932D01*
X61591435Y-59510853D01*
X61561682Y-59533683D01*
X61524500Y-59528788D01*
X61501670Y-59499035D01*
X61500000Y-59486353D01*
X61500000Y-59083008D01*
X61508257Y-59055786D01*
X61591418Y-58931326D01*
X61595310Y-58926255D01*
X61754984Y-58744181D01*
X61759501Y-58739664D01*
X61941575Y-58579990D01*
X61946646Y-58576098D01*
X62071106Y-58492938D01*
X62098329Y-58484680D01*
X73451000Y-58484680D01*
X73485648Y-58499032D01*
G37*
%TD.AperFunction*%
%TD*%
M02*
