%TF.GenerationSoftware,KiCad,Pcbnew,10.0.6-10.0.6~ubuntu24.04.1*%
%TF.CreationDate,2026-09-23T20:41:45+00:00*%
%TF.ProjectId,ViRa_V1.0,56695261-5f56-4312-9e30-2e6b69636164,rev?*%
%TF.SameCoordinates,Original*%
%TF.FileFunction,Soldermask,Top*%
%TF.FilePolarity,Negative*%
%FSLAX46Y46*%
G04 Gerber Fmt 4.6, Leading zero omitted, Abs format (unit mm)*
G04 Created by KiCad (PCBNEW 10.0.6-10.0.6~ubuntu24.04.1) date 2026-09-23 20:41:45*
%MOMM*%
%LPD*%
G01*
G04 APERTURE LIST*
G04 Aperture macros list*
%AMRoundRect*
0 Rectangle with rounded corners*
0 $1 Rounding radius*
0 $2 $3 $4 $5 $6 $7 $8 $9 X,Y pos of 4 corners*
0 Add a 4 corners polygon primitive as box body*
4,1,4,$2,$3,$4,$5,$6,$7,$8,$9,$2,$3,0*
0 Add four circle primitives for the rounded corners*
1,1,$1+$1,$2,$3*
1,1,$1+$1,$4,$5*
1,1,$1+$1,$6,$7*
1,1,$1+$1,$8,$9*
0 Add four rect primitives between the rounded corners*
20,1,$1+$1,$2,$3,$4,$5,0*
20,1,$1+$1,$4,$5,$6,$7,0*
20,1,$1+$1,$6,$7,$8,$9,0*
20,1,$1+$1,$8,$9,$2,$3,0*%
G04 Aperture macros list end*
%ADD10R,1.500000X0.900000*%
%ADD11R,0.900000X1.500000*%
%ADD12C,0.600000*%
%ADD13R,3.900000X3.900000*%
%ADD14C,1.500000*%
%ADD15C,2.000000*%
%ADD16RoundRect,0.218750X-0.218750X-0.256250X0.218750X-0.256250X0.218750X0.256250X-0.218750X0.256250X0*%
%ADD17RoundRect,0.200000X-0.200000X-0.275000X0.200000X-0.275000X0.200000X0.275000X-0.200000X0.275000X0*%
%ADD18RoundRect,0.225000X0.225000X0.375000X-0.225000X0.375000X-0.225000X-0.375000X0.225000X-0.375000X0*%
%ADD19R,1.800000X1.800000*%
%ADD20C,1.800000*%
%ADD21RoundRect,0.200000X0.275000X-0.200000X0.275000X0.200000X-0.275000X0.200000X-0.275000X-0.200000X0*%
%ADD22RoundRect,0.200000X0.200000X0.275000X-0.200000X0.275000X-0.200000X-0.275000X0.200000X-0.275000X0*%
%ADD23RoundRect,0.093750X-0.156250X-0.093750X0.156250X-0.093750X0.156250X0.093750X-0.156250X0.093750X0*%
%ADD24RoundRect,0.075000X-0.250000X-0.075000X0.250000X-0.075000X0.250000X0.075000X-0.250000X0.075000X0*%
%ADD25RoundRect,0.250000X-0.250000X-0.475000X0.250000X-0.475000X0.250000X0.475000X-0.250000X0.475000X0*%
%ADD26RoundRect,0.225000X0.375000X-0.225000X0.375000X0.225000X-0.375000X0.225000X-0.375000X-0.225000X0*%
%ADD27RoundRect,0.250000X1.000000X-1.500000X1.000000X1.500000X-1.000000X1.500000X-1.000000X-1.500000X0*%
%ADD28R,1.700000X1.700000*%
%ADD29C,1.700000*%
%ADD30RoundRect,0.225000X0.225000X0.250000X-0.225000X0.250000X-0.225000X-0.250000X0.225000X-0.250000X0*%
%ADD31RoundRect,0.225000X0.250000X-0.225000X0.250000X0.225000X-0.250000X0.225000X-0.250000X-0.225000X0*%
%ADD32RoundRect,0.200000X-0.275000X0.200000X-0.275000X-0.200000X0.275000X-0.200000X0.275000X0.200000X0*%
%ADD33RoundRect,0.375000X0.375000X-0.625000X0.375000X0.625000X-0.375000X0.625000X-0.375000X-0.625000X0*%
%ADD34RoundRect,0.500000X1.400000X-0.500000X1.400000X0.500000X-1.400000X0.500000X-1.400000X-0.500000X0*%
%ADD35RoundRect,0.250000X0.600000X0.750000X-0.600000X0.750000X-0.600000X-0.750000X0.600000X-0.750000X0*%
%ADD36O,1.700000X2.000000*%
%ADD37C,1.300000*%
%ADD38C,1.000000*%
%ADD39RoundRect,0.102000X-2.150000X-1.150000X2.150000X-1.150000X2.150000X1.150000X-2.150000X1.150000X0*%
%ADD40RoundRect,0.102000X-1.830000X-1.150000X1.830000X-1.150000X1.830000X1.150000X-1.830000X1.150000X0*%
%ADD41RoundRect,0.250000X0.475000X-0.250000X0.475000X0.250000X-0.475000X0.250000X-0.475000X-0.250000X0*%
%ADD42C,3.000000*%
%ADD43C,2.500000*%
%ADD44R,2.311400X2.311400*%
%ADD45RoundRect,0.250001X1.149999X1.149999X-1.149999X1.149999X-1.149999X-1.149999X1.149999X-1.149999X0*%
%ADD46C,2.800000*%
%ADD47RoundRect,0.150000X-0.875000X-0.150000X0.875000X-0.150000X0.875000X0.150000X-0.875000X0.150000X0*%
%ADD48RoundRect,0.225000X-0.225000X-0.250000X0.225000X-0.250000X0.225000X0.250000X-0.225000X0.250000X0*%
%ADD49RoundRect,0.150000X-0.587500X-0.150000X0.587500X-0.150000X0.587500X0.150000X-0.587500X0.150000X0*%
%ADD50RoundRect,0.225000X-0.250000X0.225000X-0.250000X-0.225000X0.250000X-0.225000X0.250000X0.225000X0*%
%ADD51C,1.600000*%
%ADD52RoundRect,0.225000X-0.225000X-0.375000X0.225000X-0.375000X0.225000X0.375000X-0.225000X0.375000X0*%
%ADD53C,0.650000*%
%ADD54RoundRect,0.150000X-0.500000X0.150000X-0.500000X-0.150000X0.500000X-0.150000X0.500000X0.150000X0*%
%ADD55RoundRect,0.075000X-0.575000X0.075000X-0.575000X-0.075000X0.575000X-0.075000X0.575000X0.075000X0*%
%ADD56O,2.100000X1.000000*%
%ADD57O,1.600000X1.000000*%
G04 APERTURE END LIST*
D10*
%TO.C,U3*%
X88750000Y-66240000D03*
X88750000Y-67510000D03*
X88750000Y-68780000D03*
X88750000Y-70050000D03*
X88750000Y-71320000D03*
X88750000Y-72590000D03*
X88750000Y-73860000D03*
X88750000Y-75130000D03*
X88750000Y-76400000D03*
X88750000Y-77670000D03*
X88750000Y-78940000D03*
X88750000Y-80210000D03*
X88750000Y-81480000D03*
X88750000Y-82750000D03*
D11*
X90515000Y-84000000D03*
X91785000Y-84000000D03*
X93055000Y-84000000D03*
X94325000Y-84000000D03*
X95595000Y-84000000D03*
X96865000Y-84000000D03*
X98135000Y-84000000D03*
X99405000Y-84000000D03*
X100675000Y-84000000D03*
X101945000Y-84000000D03*
X103215000Y-84000000D03*
X104485000Y-84000000D03*
D10*
X106250000Y-82750000D03*
X106250000Y-81480000D03*
X106250000Y-80210000D03*
X106250000Y-78940000D03*
X106250000Y-77670000D03*
X106250000Y-76400000D03*
X106250000Y-75130000D03*
X106250000Y-73860000D03*
X106250000Y-72590000D03*
X106250000Y-71320000D03*
X106250000Y-70050000D03*
X106250000Y-68780000D03*
X106250000Y-67510000D03*
X106250000Y-66240000D03*
D12*
X94600000Y-73260000D03*
X94600000Y-74660000D03*
X95300000Y-72560000D03*
X95300000Y-73960000D03*
X95300000Y-75360000D03*
X96000000Y-73260000D03*
D13*
X96000000Y-73960000D03*
D12*
X96000000Y-74660000D03*
X96700000Y-72560000D03*
X96700000Y-73960000D03*
X96700000Y-75360000D03*
X97400000Y-73260000D03*
X97400000Y-74660000D03*
%TD*%
D14*
%TO.C,FID3*%
X164000000Y-59500000D03*
%TD*%
D15*
%TO.C,SW2*%
X107750000Y-97250000D03*
X114250000Y-97250000D03*
X107750000Y-101750000D03*
X114250000Y-101750000D03*
%TD*%
D16*
%TO.C,D4*%
X129212500Y-81500000D03*
X130787500Y-81500000D03*
%TD*%
D17*
%TO.C,R13*%
X81175000Y-105000000D03*
X82825000Y-105000000D03*
%TD*%
D18*
%TO.C,D3*%
X136650000Y-81500000D03*
X133350000Y-81500000D03*
%TD*%
D15*
%TO.C,C1*%
X151500000Y-80500000D03*
X151500000Y-70500000D03*
%TD*%
D19*
%TO.C,D5*%
X62135000Y-100500000D03*
D20*
X64675000Y-100500000D03*
%TD*%
D21*
%TO.C,R17*%
X79490000Y-87650000D03*
X79490000Y-86000000D03*
%TD*%
D22*
%TO.C,R9*%
X122325000Y-88000000D03*
X120675000Y-88000000D03*
%TD*%
D15*
%TO.C,SW5*%
X96600000Y-114000000D03*
X96600000Y-107500000D03*
X101100000Y-114000000D03*
X101100000Y-107500000D03*
%TD*%
D23*
%TO.C,U4*%
X71150000Y-78462500D03*
D24*
X71075000Y-79000000D03*
D23*
X71150000Y-79537500D03*
X72850000Y-79537500D03*
D24*
X72925000Y-79000000D03*
D23*
X72850000Y-78462500D03*
%TD*%
D17*
%TO.C,R6*%
X75675000Y-78990000D03*
X77325000Y-78990000D03*
%TD*%
D14*
%TO.C,TP7*%
X134275000Y-112775000D03*
%TD*%
D25*
%TO.C,C3*%
X121050000Y-93990000D03*
X122950000Y-93990000D03*
%TD*%
D15*
%TO.C,F1*%
X163550000Y-64110000D03*
X163540000Y-69190000D03*
%TD*%
D17*
%TO.C,R3*%
X84175000Y-75000000D03*
X85825000Y-75000000D03*
%TD*%
D26*
%TO.C,D2*%
X68500000Y-86150000D03*
X68500000Y-82850000D03*
%TD*%
D14*
%TO.C,FID2*%
X67350000Y-61000000D03*
%TD*%
D17*
%TO.C,R4*%
X72675000Y-75000000D03*
X74325000Y-75000000D03*
%TD*%
D21*
%TO.C,R22*%
X78020000Y-72650000D03*
X78020000Y-71000000D03*
%TD*%
D27*
%TO.C,C2*%
X112000000Y-92250000D03*
X112000000Y-85750000D03*
%TD*%
D14*
%TO.C,TP4*%
X131000000Y-112500000D03*
%TD*%
%TO.C,TP3*%
X127450000Y-112500000D03*
%TD*%
D28*
%TO.C,J3*%
X70620000Y-67500000D03*
D29*
X68080000Y-67500000D03*
X65540000Y-67500000D03*
X63000000Y-67500000D03*
%TD*%
D30*
%TO.C,C14*%
X64775000Y-83500000D03*
X63225000Y-83500000D03*
%TD*%
D31*
%TO.C,C9*%
X82500000Y-68775000D03*
X82500000Y-67225000D03*
%TD*%
D15*
%TO.C,SW4*%
X88050000Y-114000000D03*
X88050000Y-107500000D03*
X92550000Y-114000000D03*
X92550000Y-107500000D03*
%TD*%
D21*
%TO.C,R20*%
X73000000Y-72650000D03*
X73000000Y-71000000D03*
%TD*%
D19*
%TO.C,D1*%
X62135000Y-93560000D03*
D20*
X64675000Y-93560000D03*
%TD*%
D17*
%TO.C,R15*%
X98175000Y-105000000D03*
X99825000Y-105000000D03*
%TD*%
%TO.C,R2*%
X62350000Y-88000000D03*
X64000000Y-88000000D03*
%TD*%
%TO.C,R8*%
X120675000Y-86000000D03*
X122325000Y-86000000D03*
%TD*%
%TO.C,R12*%
X62350000Y-104000000D03*
X64000000Y-104000000D03*
%TD*%
D32*
%TO.C,R19*%
X80000000Y-74500000D03*
X80000000Y-76150000D03*
%TD*%
D15*
%TO.C,SW3*%
X79500000Y-114000000D03*
X79500000Y-107500000D03*
X84000000Y-114000000D03*
X84000000Y-107500000D03*
%TD*%
D17*
%TO.C,R16*%
X106675000Y-105000000D03*
X108325000Y-105000000D03*
%TD*%
D33*
%TO.C,U2*%
X116200000Y-111150000D03*
X118500000Y-111150000D03*
D34*
X118500000Y-104850000D03*
D33*
X120800000Y-111150000D03*
%TD*%
D31*
%TO.C,C8*%
X79500000Y-68775000D03*
X79500000Y-67225000D03*
%TD*%
D14*
%TO.C,TP1*%
X105000000Y-87500000D03*
%TD*%
D31*
%TO.C,C10*%
X85500000Y-68775000D03*
X85500000Y-67225000D03*
%TD*%
D25*
%TO.C,C5*%
X121050000Y-97000000D03*
X122950000Y-97000000D03*
%TD*%
D35*
%TO.C,U1*%
X161547500Y-100000000D03*
D36*
X161547500Y-94000000D03*
X127947500Y-106000000D03*
X127947500Y-88000000D03*
%TD*%
D37*
%TO.C,BT1*%
X89000000Y-95000000D03*
D38*
X96500000Y-95000000D03*
D39*
X100640000Y-95000000D03*
D40*
X85170000Y-95000000D03*
%TD*%
D15*
%TO.C,SW6*%
X105150000Y-114000000D03*
X105150000Y-107500000D03*
X109650000Y-114000000D03*
X109650000Y-107500000D03*
%TD*%
D41*
%TO.C,C16*%
X67500000Y-95450000D03*
X67500000Y-93550000D03*
%TD*%
D17*
%TO.C,R7*%
X75675000Y-81500000D03*
X77325000Y-81500000D03*
%TD*%
D42*
%TO.C,K2*%
X130600000Y-77050000D03*
D43*
X136650000Y-75100000D03*
D42*
X136650000Y-62900000D03*
X124600000Y-62850000D03*
D43*
X124650000Y-75100000D03*
%TD*%
D19*
%TO.C,D6*%
X62135000Y-107500000D03*
D20*
X64675000Y-107500000D03*
%TD*%
D21*
%TO.C,R21*%
X75510000Y-72650000D03*
X75510000Y-71000000D03*
%TD*%
D44*
%TO.C,LS1*%
X112000000Y-73550001D03*
X119100002Y-73550001D03*
X112000000Y-66449999D03*
X119100002Y-66449999D03*
%TD*%
D14*
%TO.C,TP6*%
X105000000Y-94500000D03*
%TD*%
%TO.C,FID1*%
X66100000Y-114850000D03*
%TD*%
D21*
%TO.C,R18*%
X82000000Y-87650000D03*
X82000000Y-86000000D03*
%TD*%
D17*
%TO.C,R5*%
X71675000Y-82500000D03*
X73325000Y-82500000D03*
%TD*%
D14*
%TO.C,TP5*%
X68500000Y-102000000D03*
%TD*%
D21*
%TO.C,R23*%
X80530000Y-72650000D03*
X80530000Y-71000000D03*
%TD*%
D32*
%TO.C,R10*%
X126000000Y-80675000D03*
X126000000Y-82325000D03*
%TD*%
D45*
%TO.C,J1*%
X157500000Y-62500000D03*
D46*
X152500000Y-62500000D03*
X147500000Y-62500000D03*
X142500000Y-62500000D03*
%TD*%
D17*
%TO.C,R14*%
X89175000Y-105000000D03*
X90825000Y-105000000D03*
%TD*%
D47*
%TO.C,U5*%
X71850000Y-91055000D03*
X71850000Y-92325000D03*
X71850000Y-93595000D03*
X71850000Y-94865000D03*
X71850000Y-96135000D03*
X71850000Y-97405000D03*
X71850000Y-98675000D03*
X71850000Y-99945000D03*
X81150000Y-99945000D03*
X81150000Y-98675000D03*
X81150000Y-97405000D03*
X81150000Y-96135000D03*
X81150000Y-94865000D03*
X81150000Y-93595000D03*
X81150000Y-92325000D03*
X81150000Y-91055000D03*
%TD*%
D48*
%TO.C,C6*%
X116725000Y-96500000D03*
X118275000Y-96500000D03*
%TD*%
%TO.C,C12*%
X103450000Y-98000000D03*
X105000000Y-98000000D03*
%TD*%
D22*
%TO.C,R26*%
X110700001Y-80000000D03*
X109050001Y-80000000D03*
%TD*%
D20*
%TO.C,RV1*%
X156900000Y-78250000D03*
X159100000Y-70750000D03*
%TD*%
D15*
%TO.C,SW1*%
X69000000Y-112500000D03*
X69000000Y-106000000D03*
X73500000Y-112500000D03*
X73500000Y-106000000D03*
%TD*%
D49*
%TO.C,Q1*%
X120562500Y-81050000D03*
X120562500Y-82950000D03*
X122437500Y-82000000D03*
%TD*%
D50*
%TO.C,C15*%
X69500000Y-93725000D03*
X69500000Y-95275000D03*
%TD*%
D17*
%TO.C,R25*%
X109050001Y-77990000D03*
X110700001Y-77990000D03*
%TD*%
D22*
%TO.C,R11*%
X64000000Y-97000000D03*
X62350000Y-97000000D03*
%TD*%
D51*
%TO.C,R1*%
X144500000Y-79810000D03*
X144500000Y-72190000D03*
%TD*%
D49*
%TO.C,Q2*%
X113612501Y-77500000D03*
X113612501Y-79400000D03*
X115487501Y-78450000D03*
%TD*%
D52*
%TO.C,D7*%
X112850000Y-82000000D03*
X116150000Y-82000000D03*
%TD*%
D53*
%TO.C,J2*%
X67605000Y-72110000D03*
X67605000Y-77890000D03*
D54*
X68745000Y-71800000D03*
X68745000Y-72600000D03*
D55*
X68745000Y-73750000D03*
X68745000Y-74750000D03*
X68745000Y-75250000D03*
X68745000Y-76250000D03*
D54*
X68745000Y-77400000D03*
X68745000Y-78200000D03*
X68745000Y-78200000D03*
X68745000Y-77400000D03*
D55*
X68745000Y-76750000D03*
X68745000Y-75750000D03*
X68745000Y-74250000D03*
X68745000Y-73250000D03*
D54*
X68745000Y-72600000D03*
X68745000Y-71800000D03*
D56*
X68105000Y-70680000D03*
D57*
X63925000Y-70680000D03*
D56*
X68105000Y-79320000D03*
D57*
X63925000Y-79320000D03*
%TD*%
D48*
%TO.C,C11*%
X72725000Y-103500000D03*
X74275000Y-103500000D03*
%TD*%
D17*
%TO.C,R24*%
X76175000Y-75000000D03*
X77825000Y-75000000D03*
%TD*%
D14*
%TO.C,TP2*%
X105000000Y-91000000D03*
%TD*%
D48*
%TO.C,C13*%
X84225000Y-72000000D03*
X85775000Y-72000000D03*
%TD*%
%TO.C,C4*%
X116725000Y-93990000D03*
X118275000Y-93990000D03*
%TD*%
D41*
%TO.C,C7*%
X76500000Y-68950000D03*
X76500000Y-67050000D03*
%TD*%
M02*
