%TF.GenerationSoftware,KiCad,Pcbnew,10.0.6-10.0.6~ubuntu24.04.1*%
%TF.CreationDate,2026-09-23T20:41:45+00:00*%
%TF.ProjectId,ViRa_V1.0,56695261-5f56-4312-9e30-2e6b69636164,rev?*%
%TF.SameCoordinates,Original*%
%TF.FileFunction,Other,Comment*%
%FSLAX46Y46*%
G04 Gerber Fmt 4.6, Leading zero omitted, Abs format (unit mm)*
G04 Created by KiCad (PCBNEW 10.0.6-10.0.6~ubuntu24.04.1) date 2026-09-23 20:41:45*
%MOMM*%
%LPD*%
G01*
G04 APERTURE LIST*
%ADD10C,0.150000*%
G04 APERTURE END LIST*
D10*
X94688095Y-62229104D02*
X95164285Y-62229104D01*
X94592857Y-62514819D02*
X94926190Y-61514819D01*
X94926190Y-61514819D02*
X95259523Y-62514819D01*
X95592857Y-61848152D02*
X95592857Y-62514819D01*
X95592857Y-61943390D02*
X95640476Y-61895771D01*
X95640476Y-61895771D02*
X95735714Y-61848152D01*
X95735714Y-61848152D02*
X95878571Y-61848152D01*
X95878571Y-61848152D02*
X95973809Y-61895771D01*
X95973809Y-61895771D02*
X96021428Y-61991009D01*
X96021428Y-61991009D02*
X96021428Y-62514819D01*
X96354762Y-61848152D02*
X96735714Y-61848152D01*
X96497619Y-61514819D02*
X96497619Y-62371961D01*
X96497619Y-62371961D02*
X96545238Y-62467200D01*
X96545238Y-62467200D02*
X96640476Y-62514819D01*
X96640476Y-62514819D02*
X96735714Y-62514819D01*
X97450000Y-62467200D02*
X97354762Y-62514819D01*
X97354762Y-62514819D02*
X97164286Y-62514819D01*
X97164286Y-62514819D02*
X97069048Y-62467200D01*
X97069048Y-62467200D02*
X97021429Y-62371961D01*
X97021429Y-62371961D02*
X97021429Y-61991009D01*
X97021429Y-61991009D02*
X97069048Y-61895771D01*
X97069048Y-61895771D02*
X97164286Y-61848152D01*
X97164286Y-61848152D02*
X97354762Y-61848152D01*
X97354762Y-61848152D02*
X97450000Y-61895771D01*
X97450000Y-61895771D02*
X97497619Y-61991009D01*
X97497619Y-61991009D02*
X97497619Y-62086247D01*
X97497619Y-62086247D02*
X97021429Y-62181485D01*
X97926191Y-61848152D02*
X97926191Y-62514819D01*
X97926191Y-61943390D02*
X97973810Y-61895771D01*
X97973810Y-61895771D02*
X98069048Y-61848152D01*
X98069048Y-61848152D02*
X98211905Y-61848152D01*
X98211905Y-61848152D02*
X98307143Y-61895771D01*
X98307143Y-61895771D02*
X98354762Y-61991009D01*
X98354762Y-61991009D02*
X98354762Y-62514819D01*
X98830953Y-61848152D02*
X98830953Y-62514819D01*
X98830953Y-61943390D02*
X98878572Y-61895771D01*
X98878572Y-61895771D02*
X98973810Y-61848152D01*
X98973810Y-61848152D02*
X99116667Y-61848152D01*
X99116667Y-61848152D02*
X99211905Y-61895771D01*
X99211905Y-61895771D02*
X99259524Y-61991009D01*
X99259524Y-61991009D02*
X99259524Y-62514819D01*
X100164286Y-62514819D02*
X100164286Y-61991009D01*
X100164286Y-61991009D02*
X100116667Y-61895771D01*
X100116667Y-61895771D02*
X100021429Y-61848152D01*
X100021429Y-61848152D02*
X99830953Y-61848152D01*
X99830953Y-61848152D02*
X99735715Y-61895771D01*
X100164286Y-62467200D02*
X100069048Y-62514819D01*
X100069048Y-62514819D02*
X99830953Y-62514819D01*
X99830953Y-62514819D02*
X99735715Y-62467200D01*
X99735715Y-62467200D02*
X99688096Y-62371961D01*
X99688096Y-62371961D02*
X99688096Y-62276723D01*
X99688096Y-62276723D02*
X99735715Y-62181485D01*
X99735715Y-62181485D02*
X99830953Y-62133866D01*
X99830953Y-62133866D02*
X100069048Y-62133866D01*
X100069048Y-62133866D02*
X100164286Y-62086247D01*
X85357142Y-53497438D02*
X85357142Y-51497438D01*
X86499999Y-53497438D02*
X85642856Y-52354580D01*
X86499999Y-51497438D02*
X85357142Y-52640295D01*
X87357142Y-52449819D02*
X88023809Y-52449819D01*
X88309523Y-53497438D02*
X87357142Y-53497438D01*
X87357142Y-53497438D02*
X87357142Y-51497438D01*
X87357142Y-51497438D02*
X88309523Y-51497438D01*
X89166666Y-52449819D02*
X89833333Y-52449819D01*
X90119047Y-53497438D02*
X89166666Y-53497438D01*
X89166666Y-53497438D02*
X89166666Y-51497438D01*
X89166666Y-51497438D02*
X90119047Y-51497438D01*
X90976190Y-53497438D02*
X90976190Y-51497438D01*
X90976190Y-51497438D02*
X91738095Y-51497438D01*
X91738095Y-51497438D02*
X91928571Y-51592676D01*
X91928571Y-51592676D02*
X92023809Y-51687914D01*
X92023809Y-51687914D02*
X92119047Y-51878390D01*
X92119047Y-51878390D02*
X92119047Y-52164104D01*
X92119047Y-52164104D02*
X92023809Y-52354580D01*
X92023809Y-52354580D02*
X91928571Y-52449819D01*
X91928571Y-52449819D02*
X91738095Y-52545057D01*
X91738095Y-52545057D02*
X90976190Y-52545057D01*
X92976190Y-52735533D02*
X94500000Y-52735533D01*
X95833332Y-51497438D02*
X96214285Y-51497438D01*
X96214285Y-51497438D02*
X96404761Y-51592676D01*
X96404761Y-51592676D02*
X96595237Y-51783152D01*
X96595237Y-51783152D02*
X96690475Y-52164104D01*
X96690475Y-52164104D02*
X96690475Y-52830771D01*
X96690475Y-52830771D02*
X96595237Y-53211723D01*
X96595237Y-53211723D02*
X96404761Y-53402200D01*
X96404761Y-53402200D02*
X96214285Y-53497438D01*
X96214285Y-53497438D02*
X95833332Y-53497438D01*
X95833332Y-53497438D02*
X95642856Y-53402200D01*
X95642856Y-53402200D02*
X95452380Y-53211723D01*
X95452380Y-53211723D02*
X95357142Y-52830771D01*
X95357142Y-52830771D02*
X95357142Y-52164104D01*
X95357142Y-52164104D02*
X95452380Y-51783152D01*
X95452380Y-51783152D02*
X95642856Y-51592676D01*
X95642856Y-51592676D02*
X95833332Y-51497438D01*
X97547618Y-51497438D02*
X97547618Y-53116485D01*
X97547618Y-53116485D02*
X97642856Y-53306961D01*
X97642856Y-53306961D02*
X97738094Y-53402200D01*
X97738094Y-53402200D02*
X97928570Y-53497438D01*
X97928570Y-53497438D02*
X98309523Y-53497438D01*
X98309523Y-53497438D02*
X98499999Y-53402200D01*
X98499999Y-53402200D02*
X98595237Y-53306961D01*
X98595237Y-53306961D02*
X98690475Y-53116485D01*
X98690475Y-53116485D02*
X98690475Y-51497438D01*
X99357142Y-51497438D02*
X100499999Y-51497438D01*
X99928570Y-53497438D02*
X99928570Y-51497438D01*
X102500000Y-51497438D02*
X103833333Y-51497438D01*
X103833333Y-51497438D02*
X102500000Y-53497438D01*
X102500000Y-53497438D02*
X103833333Y-53497438D01*
X104976190Y-51497438D02*
X105357143Y-51497438D01*
X105357143Y-51497438D02*
X105547619Y-51592676D01*
X105547619Y-51592676D02*
X105738095Y-51783152D01*
X105738095Y-51783152D02*
X105833333Y-52164104D01*
X105833333Y-52164104D02*
X105833333Y-52830771D01*
X105833333Y-52830771D02*
X105738095Y-53211723D01*
X105738095Y-53211723D02*
X105547619Y-53402200D01*
X105547619Y-53402200D02*
X105357143Y-53497438D01*
X105357143Y-53497438D02*
X104976190Y-53497438D01*
X104976190Y-53497438D02*
X104785714Y-53402200D01*
X104785714Y-53402200D02*
X104595238Y-53211723D01*
X104595238Y-53211723D02*
X104500000Y-52830771D01*
X104500000Y-52830771D02*
X104500000Y-52164104D01*
X104500000Y-52164104D02*
X104595238Y-51783152D01*
X104595238Y-51783152D02*
X104785714Y-51592676D01*
X104785714Y-51592676D02*
X104976190Y-51497438D01*
X106690476Y-53497438D02*
X106690476Y-51497438D01*
X106690476Y-51497438D02*
X107833333Y-53497438D01*
X107833333Y-53497438D02*
X107833333Y-51497438D01*
X108785714Y-52449819D02*
X109452381Y-52449819D01*
X109738095Y-53497438D02*
X108785714Y-53497438D01*
X108785714Y-53497438D02*
X108785714Y-51497438D01*
X108785714Y-51497438D02*
X109738095Y-51497438D01*
M02*
