%TF.GenerationSoftware,KiCad,Pcbnew,10.0.6-10.0.6~ubuntu24.04.1*%
%TF.CreationDate,2026-09-23T20:41:45+00:00*%
%TF.ProjectId,ViRa_V1.0,56695261-5f56-4312-9e30-2e6b69636164,rev?*%
%TF.SameCoordinates,Original*%
%TF.FileFunction,Copper,L1,Top*%
%TF.FilePolarity,Positive*%
%FSLAX46Y46*%
G04 Gerber Fmt 4.6, Leading zero omitted, Abs format (unit mm)*
G04 Created by KiCad (PCBNEW 10.0.6-10.0.6~ubuntu24.04.1) date 2026-09-23 20:41:45*
%MOMM*%
%LPD*%
G01*
G04 APERTURE LIST*
G04 Aperture macros list*
%AMRoundRect*
0 Rectangle with rounded corners*
0 $1 Rounding radius*
0 $2 $3 $4 $5 $6 $7 $8 $9 X,Y pos of 4 corners*
0 Add a 4 corners polygon primitive as box body*
4,1,4,$2,$3,$4,$5,$6,$7,$8,$9,$2,$3,0*
0 Add four circle primitives for the rounded corners*
1,1,$1+$1,$2,$3*
1,1,$1+$1,$4,$5*
1,1,$1+$1,$6,$7*
1,1,$1+$1,$8,$9*
0 Add four rect primitives between the rounded corners*
20,1,$1+$1,$2,$3,$4,$5,0*
20,1,$1+$1,$4,$5,$6,$7,0*
20,1,$1+$1,$6,$7,$8,$9,0*
20,1,$1+$1,$8,$9,$2,$3,0*%
G04 Aperture macros list end*
%TA.AperFunction,SMDPad,CuDef*%
%ADD10R,1.500000X0.900000*%
%TD*%
%TA.AperFunction,SMDPad,CuDef*%
%ADD11R,0.900000X1.500000*%
%TD*%
%TA.AperFunction,HeatsinkPad*%
%ADD12C,0.600000*%
%TD*%
%TA.AperFunction,HeatsinkPad*%
%ADD13R,3.900000X3.900000*%
%TD*%
%TA.AperFunction,SMDPad,CuDef*%
%ADD14C,0.750000*%
%TD*%
%TA.AperFunction,ComponentPad*%
%ADD15C,2.000000*%
%TD*%
%TA.AperFunction,SMDPad,CuDef*%
%ADD16RoundRect,0.218750X-0.218750X-0.256250X0.218750X-0.256250X0.218750X0.256250X-0.218750X0.256250X0*%
%TD*%
%TA.AperFunction,SMDPad,CuDef*%
%ADD17RoundRect,0.200000X-0.200000X-0.275000X0.200000X-0.275000X0.200000X0.275000X-0.200000X0.275000X0*%
%TD*%
%TA.AperFunction,SMDPad,CuDef*%
%ADD18RoundRect,0.225000X0.225000X0.375000X-0.225000X0.375000X-0.225000X-0.375000X0.225000X-0.375000X0*%
%TD*%
%TA.AperFunction,ComponentPad*%
%ADD19R,1.800000X1.800000*%
%TD*%
%TA.AperFunction,ComponentPad*%
%ADD20C,1.800000*%
%TD*%
%TA.AperFunction,SMDPad,CuDef*%
%ADD21RoundRect,0.200000X0.275000X-0.200000X0.275000X0.200000X-0.275000X0.200000X-0.275000X-0.200000X0*%
%TD*%
%TA.AperFunction,SMDPad,CuDef*%
%ADD22RoundRect,0.200000X0.200000X0.275000X-0.200000X0.275000X-0.200000X-0.275000X0.200000X-0.275000X0*%
%TD*%
%TA.AperFunction,SMDPad,CuDef*%
%ADD23RoundRect,0.093750X-0.156250X-0.093750X0.156250X-0.093750X0.156250X0.093750X-0.156250X0.093750X0*%
%TD*%
%TA.AperFunction,SMDPad,CuDef*%
%ADD24RoundRect,0.075000X-0.250000X-0.075000X0.250000X-0.075000X0.250000X0.075000X-0.250000X0.075000X0*%
%TD*%
%TA.AperFunction,SMDPad,CuDef*%
%ADD25C,1.500000*%
%TD*%
%TA.AperFunction,SMDPad,CuDef*%
%ADD26RoundRect,0.250000X-0.250000X-0.475000X0.250000X-0.475000X0.250000X0.475000X-0.250000X0.475000X0*%
%TD*%
%TA.AperFunction,SMDPad,CuDef*%
%ADD27RoundRect,0.225000X0.375000X-0.225000X0.375000X0.225000X-0.375000X0.225000X-0.375000X-0.225000X0*%
%TD*%
%TA.AperFunction,SMDPad,CuDef*%
%ADD28RoundRect,0.250000X1.000000X-1.500000X1.000000X1.500000X-1.000000X1.500000X-1.000000X-1.500000X0*%
%TD*%
%TA.AperFunction,ComponentPad*%
%ADD29R,1.700000X1.700000*%
%TD*%
%TA.AperFunction,ComponentPad*%
%ADD30C,1.700000*%
%TD*%
%TA.AperFunction,SMDPad,CuDef*%
%ADD31RoundRect,0.225000X0.225000X0.250000X-0.225000X0.250000X-0.225000X-0.250000X0.225000X-0.250000X0*%
%TD*%
%TA.AperFunction,SMDPad,CuDef*%
%ADD32RoundRect,0.225000X0.250000X-0.225000X0.250000X0.225000X-0.250000X0.225000X-0.250000X-0.225000X0*%
%TD*%
%TA.AperFunction,SMDPad,CuDef*%
%ADD33RoundRect,0.200000X-0.275000X0.200000X-0.275000X-0.200000X0.275000X-0.200000X0.275000X0.200000X0*%
%TD*%
%TA.AperFunction,SMDPad,CuDef*%
%ADD34RoundRect,0.375000X0.375000X-0.625000X0.375000X0.625000X-0.375000X0.625000X-0.375000X-0.625000X0*%
%TD*%
%TA.AperFunction,SMDPad,CuDef*%
%ADD35RoundRect,0.500000X1.400000X-0.500000X1.400000X0.500000X-1.400000X0.500000X-1.400000X-0.500000X0*%
%TD*%
%TA.AperFunction,ComponentPad*%
%ADD36RoundRect,0.250000X0.600000X0.750000X-0.600000X0.750000X-0.600000X-0.750000X0.600000X-0.750000X0*%
%TD*%
%TA.AperFunction,ComponentPad*%
%ADD37O,1.700000X2.000000*%
%TD*%
%TA.AperFunction,SMDPad,CuDef*%
%ADD38R,4.300000X2.300000*%
%TD*%
%TA.AperFunction,SMDPad,CuDef*%
%ADD39R,3.660000X2.300000*%
%TD*%
%TA.AperFunction,SMDPad,CuDef*%
%ADD40RoundRect,0.250000X0.475000X-0.250000X0.475000X0.250000X-0.475000X0.250000X-0.475000X-0.250000X0*%
%TD*%
%TA.AperFunction,ComponentPad*%
%ADD41C,3.000000*%
%TD*%
%TA.AperFunction,ComponentPad*%
%ADD42C,2.500000*%
%TD*%
%TA.AperFunction,SMDPad,CuDef*%
%ADD43R,2.311400X2.311400*%
%TD*%
%TA.AperFunction,ComponentPad*%
%ADD44RoundRect,0.250001X1.149999X1.149999X-1.149999X1.149999X-1.149999X-1.149999X1.149999X-1.149999X0*%
%TD*%
%TA.AperFunction,ComponentPad*%
%ADD45C,2.800000*%
%TD*%
%TA.AperFunction,SMDPad,CuDef*%
%ADD46RoundRect,0.150000X-0.875000X-0.150000X0.875000X-0.150000X0.875000X0.150000X-0.875000X0.150000X0*%
%TD*%
%TA.AperFunction,SMDPad,CuDef*%
%ADD47RoundRect,0.225000X-0.225000X-0.250000X0.225000X-0.250000X0.225000X0.250000X-0.225000X0.250000X0*%
%TD*%
%TA.AperFunction,SMDPad,CuDef*%
%ADD48RoundRect,0.150000X-0.587500X-0.150000X0.587500X-0.150000X0.587500X0.150000X-0.587500X0.150000X0*%
%TD*%
%TA.AperFunction,SMDPad,CuDef*%
%ADD49RoundRect,0.225000X-0.250000X0.225000X-0.250000X-0.225000X0.250000X-0.225000X0.250000X0.225000X0*%
%TD*%
%TA.AperFunction,ComponentPad*%
%ADD50C,1.600000*%
%TD*%
%TA.AperFunction,SMDPad,CuDef*%
%ADD51RoundRect,0.225000X-0.225000X-0.375000X0.225000X-0.375000X0.225000X0.375000X-0.225000X0.375000X0*%
%TD*%
%TA.AperFunction,SMDPad,CuDef*%
%ADD52RoundRect,0.150000X-0.500000X0.150000X-0.500000X-0.150000X0.500000X-0.150000X0.500000X0.150000X0*%
%TD*%
%TA.AperFunction,SMDPad,CuDef*%
%ADD53RoundRect,0.075000X-0.575000X0.075000X-0.575000X-0.075000X0.575000X-0.075000X0.575000X0.075000X0*%
%TD*%
%TA.AperFunction,ComponentPad*%
%ADD54O,2.100000X1.000000*%
%TD*%
%TA.AperFunction,ComponentPad*%
%ADD55O,1.600000X1.000000*%
%TD*%
%TA.AperFunction,ViaPad*%
%ADD56C,0.500000*%
%TD*%
%TA.AperFunction,ViaPad*%
%ADD57C,0.600000*%
%TD*%
%TA.AperFunction,ViaPad*%
%ADD58C,0.250000*%
%TD*%
%TA.AperFunction,Conductor*%
%ADD59C,0.200000*%
%TD*%
%TA.AperFunction,Conductor*%
%ADD60C,0.300000*%
%TD*%
%TA.AperFunction,Conductor*%
%ADD61C,2.000000*%
%TD*%
%TA.AperFunction,Conductor*%
%ADD62C,0.175667*%
%TD*%
%TA.AperFunction,Conductor*%
%ADD63C,2.300000*%
%TD*%
G04 APERTURE END LIST*
D10*
%TO.P,U3,1,GND_1*%
%TO.N,GND*%
X88750000Y-66240000D03*
%TO.P,U3,2,3V3_2*%
%TO.N,+3.3V*%
X88750000Y-67510000D03*
%TO.P,U3,3,EN_3*%
%TO.N,CHIP-PU{slash}RST{slash}EN*%
X88750000Y-68780000D03*
%TO.P,U3,4,IO4_4*%
%TO.N,SL{slash}I04*%
X88750000Y-70050000D03*
%TO.P,U3,5,IO5_5*%
%TO.N,unconnected-(U3-IO5-Pad5)*%
X88750000Y-71320000D03*
%TO.P,U3,6,IO6_6*%
%TO.N,unconnected-(U3-IO6-Pad6)*%
X88750000Y-72590000D03*
%TO.P,U3,7,IO7_7*%
%TO.N,unconnected-(U3-IO7-Pad7)*%
X88750000Y-73860000D03*
%TO.P,U3,8,IO15_8*%
%TO.N,unconnected-(U3-IO15-Pad8)*%
X88750000Y-75130000D03*
%TO.P,U3,9,IO16_9*%
%TO.N,unconnected-(U3-IO16-Pad9)*%
X88750000Y-76400000D03*
%TO.P,U3,10,IO17_10*%
%TO.N,SDA2{slash}IO17*%
X88750000Y-77670000D03*
%TO.P,U3,11,IO18_11*%
%TO.N,SCL2{slash}IO18*%
X88750000Y-78940000D03*
%TO.P,U3,12,IO8_12*%
%TO.N,SDA{slash}IO8*%
X88750000Y-80210000D03*
%TO.P,U3,13,USB_D-_13*%
%TO.N,USB_D-*%
X88750000Y-81480000D03*
%TO.P,U3,14,USB_D+_14*%
%TO.N,USB_D+*%
X88750000Y-82750000D03*
D11*
%TO.P,U3,15,IO3_15*%
%TO.N,EL{slash}IO3*%
X90515000Y-84000000D03*
%TO.P,U3,16,IO46_16*%
%TO.N,unconnected-(U3-IO46-Pad16)*%
X91785000Y-84000000D03*
%TO.P,U3,17,IO9_17*%
%TO.N,SCL{slash}IO9*%
X93055000Y-84000000D03*
%TO.P,U3,18,IO10_18*%
%TO.N,unconnected-(U3-IO10-Pad18)*%
X94325000Y-84000000D03*
%TO.P,U3,19,IO11_19*%
%TO.N,SW1{slash}IO11*%
X95595000Y-84000000D03*
%TO.P,U3,20,IO12_20*%
%TO.N,SW2{slash}IO12*%
X96865000Y-84000000D03*
%TO.P,U3,21,IO13_21*%
%TO.N,SW3{slash}IO13*%
X98135000Y-84000000D03*
%TO.P,U3,22,IO14_22*%
%TO.N,SW4{slash}IO14*%
X99405000Y-84000000D03*
%TO.P,U3,23,IO21_23*%
%TO.N,unconnected-(U3-IO21-Pad23)*%
X100675000Y-84000000D03*
%TO.P,U3,24,IO47_24*%
%TO.N,unconnected-(U3-IO47-Pad24)*%
X101945000Y-84000000D03*
%TO.P,U3,25,IO48_25*%
%TO.N,unconnected-(U3-IO48-Pad25)*%
X103215000Y-84000000D03*
%TO.P,U3,26,IO45_26*%
%TO.N,unconnected-(U3-IO45-Pad26)*%
X104485000Y-84000000D03*
D10*
%TO.P,U3,27,IO0_27*%
%TO.N,BOOT*%
X106250000Y-82750000D03*
%TO.P,U3,28,IO35_28*%
%TO.N,unconnected-(U3-IO35-Pad28)*%
X106250000Y-81480000D03*
%TO.P,U3,29,IO36_29*%
%TO.N,unconnected-(U3-IO36-Pad29)*%
X106250000Y-80210000D03*
%TO.P,U3,30,IO37_30*%
%TO.N,unconnected-(U3-IO37-Pad30)*%
X106250000Y-78940000D03*
%TO.P,U3,31,IO38_31*%
%TO.N,unconnected-(U3-IO38-Pad31)*%
X106250000Y-77670000D03*
%TO.P,U3,32,IO39_32*%
%TO.N,unconnected-(U3-IO39-Pad32)*%
X106250000Y-76400000D03*
%TO.P,U3,33,IO40_33*%
%TO.N,unconnected-(U3-IO40-Pad33)*%
X106250000Y-75130000D03*
%TO.P,U3,34,IO41_34*%
%TO.N,unconnected-(U3-IO41-Pad34)*%
X106250000Y-73860000D03*
%TO.P,U3,35,IO42_35*%
%TO.N,unconnected-(U3-IO42-Pad35)*%
X106250000Y-72590000D03*
%TO.P,U3,36,RXD0_36*%
%TO.N,Net-(U3-RXD0)*%
X106250000Y-71320000D03*
%TO.P,U3,37,TXD0_37*%
%TO.N,Net-(U3-TXD0)*%
X106250000Y-70050000D03*
%TO.P,U3,38,IO2_38*%
%TO.N,RELAY{slash}IO2*%
X106250000Y-68780000D03*
%TO.P,U3,39,IO1_39*%
%TO.N,BUZZ{slash}IO1*%
X106250000Y-67510000D03*
%TO.P,U3,40,GND_40*%
%TO.N,GND*%
X106250000Y-66240000D03*
D12*
%TO.P,U3,41,GND_41*%
X94600000Y-73260000D03*
X94600000Y-74660000D03*
X95300000Y-72560000D03*
X95300000Y-73960000D03*
X95300000Y-75360000D03*
X96000000Y-73260000D03*
D13*
X96000000Y-73960000D03*
D12*
X96000000Y-74660000D03*
X96700000Y-72560000D03*
X96700000Y-73960000D03*
X96700000Y-75360000D03*
X97400000Y-73260000D03*
X97400000Y-74660000D03*
%TD*%
D14*
%TO.P,FID3,*%
%TO.N,*%
X164000000Y-59500000D03*
%TD*%
D15*
%TO.P,SW2,1,1_1*%
%TO.N,GND*%
X107750000Y-97250000D03*
X114250000Y-97250000D03*
%TO.P,SW2,2,2_2*%
%TO.N,BOOT*%
X107750000Y-101750000D03*
X114250000Y-101750000D03*
%TD*%
D16*
%TO.P,D4,1,K_1*%
%TO.N,/RELAY_LO*%
X129212500Y-81500000D03*
%TO.P,D4,2,A_2*%
%TO.N,Net-(D4-A)*%
X130787500Y-81500000D03*
%TD*%
D17*
%TO.P,R13,1*%
%TO.N,+3.3V*%
X81175000Y-105000000D03*
%TO.P,R13,2*%
%TO.N,SW1{slash}IO11*%
X82825000Y-105000000D03*
%TD*%
D18*
%TO.P,D3,1,K_1*%
%TO.N,+5V*%
X136650000Y-81500000D03*
%TO.P,D3,2,A_2*%
%TO.N,/RELAY_LO*%
X133350000Y-81500000D03*
%TD*%
D15*
%TO.P,C1,1*%
%TO.N,Net-(U1-AC{slash}L)*%
X151500000Y-80500000D03*
%TO.P,C1,2*%
%TO.N,NEUTRAL*%
X151500000Y-70500000D03*
%TD*%
D19*
%TO.P,D5,1,K_1*%
%TO.N,GND*%
X62135000Y-100500000D03*
D20*
%TO.P,D5,2,A_2*%
%TO.N,Net-(D5-A)*%
X64675000Y-100500000D03*
%TD*%
D21*
%TO.P,R17,1*%
%TO.N,+3.3V*%
X79490000Y-87650000D03*
%TO.P,R17,2*%
%TO.N,SCL{slash}IO9*%
X79490000Y-86000000D03*
%TD*%
D22*
%TO.P,R9,1*%
%TO.N,GND*%
X122325000Y-88000000D03*
%TO.P,R9,2*%
%TO.N,Net-(Q1-G)*%
X120675000Y-88000000D03*
%TD*%
D15*
%TO.P,SW5,1,1_1*%
%TO.N,GND*%
X96600000Y-114000000D03*
X96600000Y-107500000D03*
%TO.P,SW5,2,2_2*%
%TO.N,SW3{slash}IO13*%
X101100000Y-114000000D03*
X101100000Y-107500000D03*
%TD*%
D23*
%TO.P,U4,1,I/O1_1*%
%TO.N,/D-*%
X71150000Y-78462500D03*
D24*
%TO.P,U4,2,GND_2*%
%TO.N,GND*%
X71075000Y-79000000D03*
D23*
%TO.P,U4,3,I/O2_3*%
%TO.N,/D+*%
X71150000Y-79537500D03*
%TO.P,U4,4,I/O2_4*%
%TO.N,/P*%
X72850000Y-79537500D03*
D24*
%TO.P,U4,5,VBUS_5*%
%TO.N,VBUS*%
X72925000Y-79000000D03*
D23*
%TO.P,U4,6,I/O1_6*%
%TO.N,/N*%
X72850000Y-78462500D03*
%TD*%
D17*
%TO.P,R6,1*%
%TO.N,/N*%
X75675000Y-78990000D03*
%TO.P,R6,2*%
%TO.N,USB_D-*%
X77325000Y-78990000D03*
%TD*%
D25*
%TO.P,TP7,1,1_1*%
%TO.N,GND*%
X134275000Y-112775000D03*
%TD*%
D26*
%TO.P,C3,1*%
%TO.N,+5V*%
X121050000Y-93990000D03*
%TO.P,C3,2*%
%TO.N,GND*%
X122950000Y-93990000D03*
%TD*%
D15*
%TO.P,F1,1*%
%TO.N,LINE*%
X163550000Y-64110000D03*
%TO.P,F1,2*%
%TO.N,Net-(U1-AC{slash}L)*%
X163540000Y-69190000D03*
%TD*%
D17*
%TO.P,R3,1*%
%TO.N,+3.3V*%
X84175000Y-75000000D03*
%TO.P,R3,2*%
%TO.N,CHIP-PU{slash}RST{slash}EN*%
X85825000Y-75000000D03*
%TD*%
D27*
%TO.P,D2,1,K_1*%
%TO.N,+5V*%
X68500000Y-86150000D03*
%TO.P,D2,2,A_2*%
%TO.N,VBUS*%
X68500000Y-82850000D03*
%TD*%
D14*
%TO.P,FID2,*%
%TO.N,*%
X67350000Y-61000000D03*
%TD*%
D17*
%TO.P,R4,1*%
%TO.N,Net-(J2-CC1)*%
X72675000Y-75000000D03*
%TO.P,R4,2*%
%TO.N,GND*%
X74325000Y-75000000D03*
%TD*%
D21*
%TO.P,R22,1*%
%TO.N,+3.3V*%
X78020000Y-72650000D03*
%TO.P,R22,2*%
%TO.N,Net-(J3-Pin_2)*%
X78020000Y-71000000D03*
%TD*%
D28*
%TO.P,C2,1*%
%TO.N,+5V*%
X112000000Y-92250000D03*
%TO.P,C2,2*%
%TO.N,GND*%
X112000000Y-85750000D03*
%TD*%
D25*
%TO.P,TP4,1,1_1*%
%TO.N,+5V*%
X131000000Y-112500000D03*
%TD*%
%TO.P,TP3,1,1_1*%
%TO.N,+3.3V*%
X127450000Y-112500000D03*
%TD*%
D29*
%TO.P,J3,1,Pin_1_1*%
%TO.N,Net-(J3-Pin_1)*%
X70620000Y-67500000D03*
D30*
%TO.P,J3,2,Pin_2_2*%
%TO.N,Net-(J3-Pin_2)*%
X68080000Y-67500000D03*
%TO.P,J3,3,Pin_3_3*%
%TO.N,+3.3V*%
X65540000Y-67500000D03*
%TO.P,J3,4,Pin_4_4*%
%TO.N,GND*%
X63000000Y-67500000D03*
%TD*%
D31*
%TO.P,C14,1*%
%TO.N,VBUS*%
X64775000Y-83500000D03*
%TO.P,C14,2*%
%TO.N,GND*%
X63225000Y-83500000D03*
%TD*%
D32*
%TO.P,C9,1*%
%TO.N,+3.3V*%
X82500000Y-68775000D03*
%TO.P,C9,2*%
%TO.N,GND*%
X82500000Y-67225000D03*
%TD*%
D15*
%TO.P,SW4,1,1_1*%
%TO.N,GND*%
X88050000Y-114000000D03*
X88050000Y-107500000D03*
%TO.P,SW4,2,2_2*%
%TO.N,SW2{slash}IO12*%
X92550000Y-114000000D03*
X92550000Y-107500000D03*
%TD*%
D21*
%TO.P,R20,1*%
%TO.N,Net-(J3-Pin_1)*%
X73000000Y-72650000D03*
%TO.P,R20,2*%
%TO.N,SDA{slash}IO8*%
X73000000Y-71000000D03*
%TD*%
D19*
%TO.P,D1,1,K_1*%
%TO.N,GND*%
X62135000Y-93560000D03*
D20*
%TO.P,D1,2,A_2*%
%TO.N,Net-(D1-A)*%
X64675000Y-93560000D03*
%TD*%
D17*
%TO.P,R15,1*%
%TO.N,+3.3V*%
X98175000Y-105000000D03*
%TO.P,R15,2*%
%TO.N,SW3{slash}IO13*%
X99825000Y-105000000D03*
%TD*%
%TO.P,R2,1*%
%TO.N,+5V*%
X62350000Y-88000000D03*
%TO.P,R2,2*%
%TO.N,Net-(D1-A)*%
X64000000Y-88000000D03*
%TD*%
%TO.P,R8,1*%
%TO.N,Net-(Q1-G)*%
X120675000Y-86000000D03*
%TO.P,R8,2*%
%TO.N,RELAY{slash}IO2*%
X122325000Y-86000000D03*
%TD*%
%TO.P,R12,1*%
%TO.N,Net-(D6-A)*%
X62350000Y-104000000D03*
%TO.P,R12,2*%
%TO.N,EL{slash}IO3*%
X64000000Y-104000000D03*
%TD*%
D33*
%TO.P,R19,1*%
%TO.N,Net-(J3-Pin_2)*%
X80000000Y-74500000D03*
%TO.P,R19,2*%
%TO.N,SCL{slash}IO9*%
X80000000Y-76150000D03*
%TD*%
D15*
%TO.P,SW3,1,1_1*%
%TO.N,GND*%
X79500000Y-114000000D03*
X79500000Y-107500000D03*
%TO.P,SW3,2,2_2*%
%TO.N,SW1{slash}IO11*%
X84000000Y-114000000D03*
X84000000Y-107500000D03*
%TD*%
D17*
%TO.P,R16,1*%
%TO.N,+3.3V*%
X106675000Y-105000000D03*
%TO.P,R16,2*%
%TO.N,SW4{slash}IO14*%
X108325000Y-105000000D03*
%TD*%
D34*
%TO.P,U2,1,GND_1*%
%TO.N,GND*%
X116200000Y-111150000D03*
%TO.P,U2,2,VO_2*%
%TO.N,+3.3V*%
X118500000Y-111150000D03*
D35*
X118500000Y-104850000D03*
D34*
%TO.P,U2,3,VI_3*%
%TO.N,+5V*%
X120800000Y-111150000D03*
%TD*%
D32*
%TO.P,C8,1*%
%TO.N,+3.3V*%
X79500000Y-68775000D03*
%TO.P,C8,2*%
%TO.N,GND*%
X79500000Y-67225000D03*
%TD*%
D25*
%TO.P,TP1,1,1_1*%
%TO.N,Net-(U3-TXD0)*%
X105000000Y-87500000D03*
%TD*%
D32*
%TO.P,C10,1*%
%TO.N,+3.3V*%
X85500000Y-68775000D03*
%TO.P,C10,2*%
%TO.N,GND*%
X85500000Y-67225000D03*
%TD*%
D26*
%TO.P,C5,1*%
%TO.N,+3.3V*%
X121050000Y-97000000D03*
%TO.P,C5,2*%
%TO.N,GND*%
X122950000Y-97000000D03*
%TD*%
D36*
%TO.P,U1,1,AC/L_1*%
%TO.N,Net-(U1-AC{slash}L)*%
X161547500Y-100000000D03*
D37*
%TO.P,U1,2,AC/N_2*%
%TO.N,NEUTRAL*%
X161547500Y-94000000D03*
%TO.P,U1,3,-Vout_3*%
%TO.N,GND*%
X127947500Y-106000000D03*
%TO.P,U1,4,+Vout_4*%
%TO.N,+5V*%
X127947500Y-88000000D03*
%TD*%
D38*
%TO.P,BT1,N*%
%TO.N,GND*%
X100640000Y-95000000D03*
D39*
%TO.P,BT1,P*%
%TO.N,Net-(U5-VBAT)*%
X85170000Y-95000000D03*
%TD*%
D15*
%TO.P,SW6,1,1_1*%
%TO.N,GND*%
X105150000Y-114000000D03*
X105150000Y-107500000D03*
%TO.P,SW6,2,2_2*%
%TO.N,SW4{slash}IO14*%
X109650000Y-114000000D03*
X109650000Y-107500000D03*
%TD*%
D40*
%TO.P,C16,1*%
%TO.N,+3.3V*%
X67500000Y-95450000D03*
%TO.P,C16,2*%
%TO.N,GND*%
X67500000Y-93550000D03*
%TD*%
D17*
%TO.P,R7,1*%
%TO.N,/P*%
X75675000Y-81500000D03*
%TO.P,R7,2*%
%TO.N,USB_D+*%
X77325000Y-81500000D03*
%TD*%
D41*
%TO.P,K2,1*%
%TO.N,R-C*%
X130600000Y-77050000D03*
D42*
%TO.P,K2,2*%
%TO.N,/RELAY_LO*%
X136650000Y-75100000D03*
D41*
%TO.P,K2,3*%
%TO.N,R-NO*%
X136650000Y-62900000D03*
%TO.P,K2,4*%
%TO.N,unconnected-(K2-Pad4)*%
X124600000Y-62850000D03*
D42*
%TO.P,K2,5*%
%TO.N,+5V*%
X124650000Y-75100000D03*
%TD*%
D19*
%TO.P,D6,1,K_1*%
%TO.N,GND*%
X62135000Y-107500000D03*
D20*
%TO.P,D6,2,A_2*%
%TO.N,Net-(D6-A)*%
X64675000Y-107500000D03*
%TD*%
D21*
%TO.P,R21,1*%
%TO.N,+3.3V*%
X75510000Y-72650000D03*
%TO.P,R21,2*%
%TO.N,Net-(J3-Pin_1)*%
X75510000Y-71000000D03*
%TD*%
D43*
%TO.P,LS1,1,1_1*%
%TO.N,+5V*%
X112000000Y-73550001D03*
%TO.P,LS1,2,2_2*%
%TO.N,Net-(D7-A)*%
X119100002Y-73550001D03*
%TO.P,LS1,3*%
%TO.N,N/C*%
X112000000Y-66449999D03*
%TO.P,LS1,4*%
X119100002Y-66449999D03*
%TD*%
D25*
%TO.P,TP6,1,1_1*%
%TO.N,BOOT*%
X105000000Y-94500000D03*
%TD*%
D14*
%TO.P,FID1,*%
%TO.N,*%
X66100000Y-114850000D03*
%TD*%
D21*
%TO.P,R18,1*%
%TO.N,+3.3V*%
X82000000Y-87650000D03*
%TO.P,R18,2*%
%TO.N,SDA{slash}IO8*%
X82000000Y-86000000D03*
%TD*%
D17*
%TO.P,R5,1*%
%TO.N,Net-(J2-CC2)*%
X71675000Y-82500000D03*
%TO.P,R5,2*%
%TO.N,GND*%
X73325000Y-82500000D03*
%TD*%
D25*
%TO.P,TP5,1,1_1*%
%TO.N,CHIP-PU{slash}RST{slash}EN*%
X68500000Y-102000000D03*
%TD*%
D21*
%TO.P,R23,1*%
%TO.N,Net-(J3-Pin_2)*%
X80530000Y-72650000D03*
%TO.P,R23,2*%
%TO.N,SCL2{slash}IO18*%
X80530000Y-71000000D03*
%TD*%
D33*
%TO.P,R10,1*%
%TO.N,Net-(D4-A)*%
X126000000Y-80675000D03*
%TO.P,R10,2*%
%TO.N,+5V*%
X126000000Y-82325000D03*
%TD*%
D44*
%TO.P,J1,1,Pin_1_1*%
%TO.N,LINE*%
X157500000Y-62500000D03*
D45*
%TO.P,J1,2,Pin_2_2*%
%TO.N,NEUTRAL*%
X152500000Y-62500000D03*
%TO.P,J1,3,Pin_3_3*%
%TO.N,R-C*%
X147500000Y-62500000D03*
%TO.P,J1,4,Pin_4_4*%
%TO.N,R-NO*%
X142500000Y-62500000D03*
%TD*%
D17*
%TO.P,R14,1*%
%TO.N,+3.3V*%
X89175000Y-105000000D03*
%TO.P,R14,2*%
%TO.N,SW2{slash}IO12*%
X90825000Y-105000000D03*
%TD*%
D46*
%TO.P,U5,1,32KHZ_1*%
%TO.N,unconnected-(U5-32KHZ-Pad1)*%
X71850000Y-91055000D03*
%TO.P,U5,2,VCC_2*%
%TO.N,+3.3V*%
X71850000Y-92325000D03*
%TO.P,U5,3,~{INT}/SQW_3*%
%TO.N,unconnected-(U5-~{INT}{slash}SQW-Pad3)*%
X71850000Y-93595000D03*
%TO.P,U5,4,~{RST}_4*%
%TO.N,unconnected-(U5-~{RST}-Pad4)*%
X71850000Y-94865000D03*
%TO.P,U5,5,GND_5*%
%TO.N,GND*%
X71850000Y-96135000D03*
%TO.P,U5,6,GND_6*%
X71850000Y-97405000D03*
%TO.P,U5,7,GND_7*%
X71850000Y-98675000D03*
%TO.P,U5,8,GND_8*%
X71850000Y-99945000D03*
%TO.P,U5,9,GND_9*%
X81150000Y-99945000D03*
%TO.P,U5,10,GND_10*%
X81150000Y-98675000D03*
%TO.P,U5,11,GND_11*%
X81150000Y-97405000D03*
%TO.P,U5,12,GND_12*%
X81150000Y-96135000D03*
%TO.P,U5,13,GND_13*%
X81150000Y-94865000D03*
%TO.P,U5,14,VBAT_14*%
%TO.N,Net-(U5-VBAT)*%
X81150000Y-93595000D03*
%TO.P,U5,15,SDA_15*%
%TO.N,SDA{slash}IO8*%
X81150000Y-92325000D03*
%TO.P,U5,16,SCL_16*%
%TO.N,SCL{slash}IO9*%
X81150000Y-91055000D03*
%TD*%
D47*
%TO.P,C6,1*%
%TO.N,+3.3V*%
X116725000Y-96500000D03*
%TO.P,C6,2*%
%TO.N,GND*%
X118275000Y-96500000D03*
%TD*%
%TO.P,C12,1*%
%TO.N,GND*%
X103450000Y-98000000D03*
%TO.P,C12,2*%
%TO.N,BOOT*%
X105000000Y-98000000D03*
%TD*%
D22*
%TO.P,R26,1*%
%TO.N,Net-(Q2-G)*%
X110700001Y-80000000D03*
%TO.P,R26,2*%
%TO.N,BUZZ{slash}IO1*%
X109050001Y-80000000D03*
%TD*%
D20*
%TO.P,RV1,1*%
%TO.N,Net-(U1-AC{slash}L)*%
X156900000Y-78250000D03*
%TO.P,RV1,2*%
%TO.N,NEUTRAL*%
X159100000Y-70750000D03*
%TD*%
D15*
%TO.P,SW1,1,1_1*%
%TO.N,GND*%
X69000000Y-112500000D03*
X69000000Y-106000000D03*
%TO.P,SW1,2,2_2*%
%TO.N,CHIP-PU{slash}RST{slash}EN*%
X73500000Y-112500000D03*
X73500000Y-106000000D03*
%TD*%
D48*
%TO.P,Q1,1,G_1*%
%TO.N,Net-(Q1-G)*%
X120562500Y-81050000D03*
%TO.P,Q1,2,S_2*%
%TO.N,GND*%
X120562500Y-82950000D03*
%TO.P,Q1,3,D_3*%
%TO.N,/RELAY_LO*%
X122437500Y-82000000D03*
%TD*%
D49*
%TO.P,C15,1*%
%TO.N,GND*%
X69500000Y-93725000D03*
%TO.P,C15,2*%
%TO.N,+3.3V*%
X69500000Y-95275000D03*
%TD*%
D17*
%TO.P,R25,1*%
%TO.N,GND*%
X109050001Y-77990000D03*
%TO.P,R25,2*%
%TO.N,Net-(Q2-G)*%
X110700001Y-77990000D03*
%TD*%
D22*
%TO.P,R11,1*%
%TO.N,Net-(D5-A)*%
X64000000Y-97000000D03*
%TO.P,R11,2*%
%TO.N,SL{slash}I04*%
X62350000Y-97000000D03*
%TD*%
D50*
%TO.P,R1,1*%
%TO.N,Net-(U1-AC{slash}L)*%
X144500000Y-79810000D03*
%TO.P,R1,2*%
%TO.N,NEUTRAL*%
X144500000Y-72190000D03*
%TD*%
D48*
%TO.P,Q2,1,G_1*%
%TO.N,Net-(Q2-G)*%
X113612501Y-77500000D03*
%TO.P,Q2,2,S_2*%
%TO.N,GND*%
X113612501Y-79400000D03*
%TO.P,Q2,3,D_3*%
%TO.N,Net-(D7-A)*%
X115487501Y-78450000D03*
%TD*%
D51*
%TO.P,D7,1,K_1*%
%TO.N,+5V*%
X112850000Y-82000000D03*
%TO.P,D7,2,A_2*%
%TO.N,Net-(D7-A)*%
X116150000Y-82000000D03*
%TD*%
D52*
%TO.P,J2,A1,GND_A1*%
%TO.N,GND*%
X68745000Y-71800000D03*
%TO.P,J2,A4,VBUS_A4*%
%TO.N,VBUS*%
X68745000Y-72600000D03*
D53*
%TO.P,J2,A5,CC1_A5*%
%TO.N,Net-(J2-CC1)*%
X68745000Y-73750000D03*
%TO.P,J2,A6,D+_A6*%
%TO.N,/D+*%
X68745000Y-74750000D03*
%TO.P,J2,A7,D-_A7*%
%TO.N,/D-*%
X68745000Y-75250000D03*
%TO.P,J2,A8,SBU1_A8*%
%TO.N,unconnected-(J2-SBU1-PadA8)*%
X68745000Y-76250000D03*
D52*
%TO.P,J2,A9,VBUS_A9*%
%TO.N,VBUS*%
X68745000Y-77400000D03*
%TO.P,J2,A12,GND_A12*%
%TO.N,GND*%
X68745000Y-78200000D03*
%TO.P,J2,B1,GND_B1*%
X68745000Y-78200000D03*
%TO.P,J2,B4,VBUS_B4*%
%TO.N,VBUS*%
X68745000Y-77400000D03*
D53*
%TO.P,J2,B5,CC2_B5*%
%TO.N,Net-(J2-CC2)*%
X68745000Y-76750000D03*
%TO.P,J2,B6,D+_B6*%
%TO.N,/D+*%
X68745000Y-75750000D03*
%TO.P,J2,B7,D-_B7*%
%TO.N,/D-*%
X68745000Y-74250000D03*
%TO.P,J2,B8,SBU2_B8*%
%TO.N,unconnected-(J2-SBU2-PadB8)*%
X68745000Y-73250000D03*
D52*
%TO.P,J2,B9,VBUS_B9*%
%TO.N,VBUS*%
X68745000Y-72600000D03*
%TO.P,J2,B12,GND_B12*%
%TO.N,GND*%
X68745000Y-71800000D03*
D54*
%TO.P,J2,SH,SHIELD_SH*%
X68105000Y-70680000D03*
D55*
X63925000Y-70680000D03*
D54*
X68105000Y-79320000D03*
D55*
X63925000Y-79320000D03*
%TD*%
D47*
%TO.P,C11,1*%
%TO.N,GND*%
X72725000Y-103500000D03*
%TO.P,C11,2*%
%TO.N,CHIP-PU{slash}RST{slash}EN*%
X74275000Y-103500000D03*
%TD*%
D17*
%TO.P,R24,1*%
%TO.N,Net-(J3-Pin_1)*%
X76175000Y-75000000D03*
%TO.P,R24,2*%
%TO.N,SDA2{slash}IO17*%
X77825000Y-75000000D03*
%TD*%
D25*
%TO.P,TP2,1,1_1*%
%TO.N,Net-(U3-RXD0)*%
X105000000Y-91000000D03*
%TD*%
D47*
%TO.P,C13,1*%
%TO.N,GND*%
X84225000Y-72000000D03*
%TO.P,C13,2*%
%TO.N,CHIP-PU{slash}RST{slash}EN*%
X85775000Y-72000000D03*
%TD*%
%TO.P,C4,1*%
%TO.N,+5V*%
X116725000Y-93990000D03*
%TO.P,C4,2*%
%TO.N,GND*%
X118275000Y-93990000D03*
%TD*%
D40*
%TO.P,C7,1*%
%TO.N,+3.3V*%
X76500000Y-68950000D03*
%TO.P,C7,2*%
%TO.N,GND*%
X76500000Y-67050000D03*
%TD*%
D56*
%TO.N,GND*%
X84200000Y-72000000D03*
X100600000Y-95000000D03*
X120600000Y-83000000D03*
X81200000Y-99900000D03*
X74300000Y-75000000D03*
D57*
X109000000Y-77600000D03*
D56*
X111200000Y-71200000D03*
X134300000Y-112800000D03*
X76500000Y-67000000D03*
D57*
X112000000Y-85800000D03*
X109700000Y-76500000D03*
D56*
X116200000Y-111200000D03*
X67500000Y-93600000D03*
X82500000Y-67200000D03*
X112100000Y-75300000D03*
X73000000Y-104300000D03*
X73300000Y-82500000D03*
D57*
X71800000Y-96100000D03*
D56*
%TO.N,+3.3V*%
X76600000Y-70800000D03*
D57*
X79200000Y-87800000D03*
X77000000Y-91800000D03*
X79200000Y-68900000D03*
D56*
X66800000Y-65200000D03*
D57*
X117100000Y-102800000D03*
D56*
X76600000Y-69400000D03*
D57*
X82600000Y-103200000D03*
X83400000Y-104000000D03*
X92700000Y-80300000D03*
X83600000Y-84600000D03*
D56*
X116700000Y-97000000D03*
D57*
X77700000Y-89800000D03*
X117600000Y-101700000D03*
D56*
X116700000Y-99000000D03*
X70100000Y-94700000D03*
D57*
X79200000Y-70100000D03*
D56*
%TO.N,CHIP-PU{slash}RST{slash}EN*%
X70700000Y-102000000D03*
D57*
X94700000Y-86600000D03*
D56*
X88600000Y-69000000D03*
D57*
X94400000Y-82800000D03*
D56*
X85200000Y-74900000D03*
D57*
%TO.N,SDA{slash}IO8*%
X86100000Y-89200000D03*
D56*
X84900000Y-87800000D03*
%TO.N,SCL{slash}IO9*%
X92800000Y-84000000D03*
D57*
X82200000Y-76600000D03*
D56*
X79900000Y-76300000D03*
D57*
X87400000Y-87900000D03*
D56*
X89500000Y-84000000D03*
D57*
X90700000Y-82700000D03*
X86500000Y-86600000D03*
D56*
X81000000Y-91400000D03*
D57*
X82200000Y-82900000D03*
%TO.N,SW1{slash}IO11*%
X85900000Y-105600000D03*
X86000000Y-99800000D03*
X95300000Y-84500000D03*
X95200000Y-85700000D03*
%TO.N,SW2{slash}IO12*%
X90800000Y-103600000D03*
X96000000Y-85700000D03*
X90800000Y-104800000D03*
X96600000Y-83400000D03*
%TO.N,SW3{slash}IO13*%
X99600000Y-104800000D03*
X97800000Y-83400000D03*
X99600000Y-103600000D03*
X97500000Y-85700000D03*
%TO.N,SW4{slash}IO14*%
X105300000Y-104800000D03*
X99700000Y-84500000D03*
X99700000Y-86000000D03*
X105300000Y-103600000D03*
D56*
%TO.N,BOOT*%
X105000000Y-97700000D03*
D57*
X105800000Y-95900000D03*
D56*
X105000000Y-95000000D03*
D57*
%TO.N,Net-(U3-RXD0)*%
X102300000Y-82800000D03*
X102300000Y-85200000D03*
%TO.N,Net-(U3-TXD0)*%
X106800000Y-86200000D03*
X105600000Y-87400000D03*
%TO.N,/RELAY_LO*%
X131800000Y-81400000D03*
X129800000Y-81500000D03*
D56*
%TO.N,+5V*%
X88100000Y-85400000D03*
D57*
X121700000Y-93300000D03*
X62400000Y-87900000D03*
X71300000Y-84900000D03*
D56*
X89200000Y-86300000D03*
D57*
X107700000Y-87900000D03*
X72300000Y-85500000D03*
X122900000Y-92700000D03*
X111800000Y-83100000D03*
D56*
X63400000Y-87000000D03*
D57*
X104400000Y-89800000D03*
D56*
%TO.N,Net-(Q1-G)*%
X120700000Y-87700000D03*
X120700000Y-86300000D03*
D58*
%TO.N,/D-*%
X68750000Y-75175000D03*
D56*
X71200000Y-78300000D03*
D58*
X68750000Y-74325000D03*
D57*
%TO.N,VBUS*%
X70500000Y-75500000D03*
X73300000Y-83900000D03*
X74300000Y-82900000D03*
X68500000Y-77400000D03*
D56*
%TO.N,Net-(J3-Pin_2)*%
X79700000Y-71800000D03*
X78300000Y-71300000D03*
D57*
%TO.N,Net-(J3-Pin_1)*%
X74000000Y-71700000D03*
D56*
X73000000Y-72200000D03*
%TO.N,Net-(Q2-G)*%
X110700000Y-79700000D03*
X110700000Y-78300000D03*
%TD*%
%TO.N,GND*%
D59*
X114600000Y-77200000D02*
X114600000Y-77900000D01*
X68700000Y-78700000D02*
X68700000Y-78200000D01*
X67500000Y-93600000D02*
X67600000Y-93700000D01*
X109100000Y-78000000D02*
X108900000Y-77800000D01*
X112700000Y-75300000D02*
X114600000Y-77200000D01*
X113600000Y-79400000D02*
X113612501Y-79400000D01*
X108900000Y-77700000D02*
X109000000Y-77600000D01*
X85500000Y-67200000D02*
X85500000Y-67225000D01*
X115700000Y-95700000D02*
X117500000Y-95700000D01*
X71800000Y-98700000D02*
X71850000Y-98675000D01*
X81200000Y-97400000D02*
X81200000Y-96100000D01*
X117500000Y-95700000D02*
X118300000Y-94900000D01*
X82500000Y-67225000D02*
X82500000Y-67200000D01*
X73000000Y-104300000D02*
X72725000Y-103500000D01*
X122300000Y-88000000D02*
X122325000Y-88000000D01*
X71700000Y-79300000D02*
X71700000Y-80900000D01*
X69500000Y-93700000D02*
X69500000Y-93725000D01*
X118300000Y-94000000D02*
X119300000Y-95000000D01*
X71800000Y-96100000D02*
X71800000Y-97400000D01*
X81150000Y-99945000D02*
X81200000Y-99900000D01*
X123000000Y-94000000D02*
X122300000Y-93300000D01*
X63200000Y-83500000D02*
X63225000Y-83500000D01*
X85500000Y-67200000D02*
X86500000Y-66200000D01*
X71700000Y-80900000D02*
X73300000Y-82500000D01*
X112000000Y-85800000D02*
X112000000Y-85750000D01*
X123000000Y-97000000D02*
X122950000Y-97000000D01*
X63925000Y-79320000D02*
X63900000Y-79300000D01*
X114600000Y-77900000D02*
X113600000Y-78900000D01*
X122300000Y-93300000D02*
X122300000Y-88000000D01*
X123000000Y-94000000D02*
X122950000Y-93990000D01*
X68700000Y-78200000D02*
X68745000Y-78200000D01*
X68100000Y-70700000D02*
X68700000Y-71300000D01*
X113600000Y-78900000D02*
X113600000Y-79400000D01*
X114200000Y-97200000D02*
X115700000Y-95700000D01*
X73000000Y-104300000D02*
X72700000Y-104000000D01*
X71800000Y-99900000D02*
X71850000Y-99945000D01*
X119300000Y-95000000D02*
X122000000Y-95000000D01*
X71075000Y-79000000D02*
X71400000Y-79000000D01*
X118300000Y-94000000D02*
X118275000Y-93990000D01*
X71800000Y-96100000D02*
X71850000Y-96135000D01*
X81200000Y-96100000D02*
X81200000Y-94900000D01*
X71400000Y-79000000D02*
X71700000Y-79300000D01*
X103400000Y-98000000D02*
X103450000Y-98000000D01*
X114250000Y-97250000D02*
X114200000Y-97200000D01*
X86500000Y-66200000D02*
X88800000Y-66200000D01*
X112100000Y-75300000D02*
X112700000Y-75300000D01*
X109050001Y-77990000D02*
X109100000Y-78000000D01*
X63200000Y-80000000D02*
X63200000Y-83500000D01*
X71800000Y-98700000D02*
X71800000Y-99900000D01*
X122000000Y-95000000D02*
X123000000Y-94000000D01*
X71800000Y-97400000D02*
X71800000Y-98700000D01*
X79500000Y-67200000D02*
X79500000Y-67225000D01*
X122000000Y-95000000D02*
X123000000Y-96000000D01*
X123000000Y-96000000D02*
X123000000Y-97000000D01*
X103400000Y-97800000D02*
X103400000Y-98000000D01*
X68100000Y-79300000D02*
X68700000Y-78700000D01*
X117500000Y-95700000D02*
X118300000Y-96500000D01*
X81200000Y-99900000D02*
X81200000Y-98700000D01*
X72700000Y-104000000D02*
X72700000Y-103500000D01*
X81200000Y-98700000D02*
X81200000Y-97400000D01*
X68105000Y-79320000D02*
X68100000Y-79300000D01*
X81200000Y-97400000D02*
X81150000Y-97405000D01*
X118300000Y-94900000D02*
X118300000Y-94000000D01*
X108900000Y-77800000D02*
X108900000Y-77700000D01*
X68700000Y-71800000D02*
X68745000Y-71800000D01*
X71800000Y-97400000D02*
X71850000Y-97405000D01*
X81200000Y-98700000D02*
X81150000Y-98675000D01*
X109700000Y-76500000D02*
X109700000Y-69300000D01*
X106200000Y-66200000D02*
X106250000Y-66240000D01*
X81200000Y-94900000D02*
X81150000Y-94865000D01*
X67600000Y-93700000D02*
X69500000Y-93700000D01*
X68700000Y-71300000D02*
X68700000Y-71800000D01*
X109700000Y-69300000D02*
X106600000Y-66200000D01*
X68105000Y-70680000D02*
X68100000Y-70700000D01*
X118300000Y-96500000D02*
X118275000Y-96500000D01*
X88800000Y-66200000D02*
X88750000Y-66240000D01*
X67500000Y-93550000D02*
X67500000Y-93600000D01*
X100600000Y-95000000D02*
X103400000Y-97800000D01*
X63900000Y-79300000D02*
X63200000Y-80000000D01*
X82500000Y-67200000D02*
X79500000Y-67200000D01*
X106600000Y-66200000D02*
X106200000Y-66200000D01*
X72700000Y-103500000D02*
X72725000Y-103500000D01*
X82500000Y-67200000D02*
X85500000Y-67200000D01*
X81200000Y-96100000D02*
X81150000Y-96135000D01*
%TO.N,+3.3V*%
X120200000Y-112900000D02*
X127000000Y-112900000D01*
X85500000Y-68800000D02*
X85500000Y-68775000D01*
X71800000Y-92300000D02*
X71850000Y-92325000D01*
X77000000Y-97500000D02*
X81200000Y-101700000D01*
X70300000Y-94200000D02*
X69500000Y-95000000D01*
X75500000Y-72200000D02*
X75500000Y-72600000D01*
X79200000Y-68300000D02*
X76100000Y-65200000D01*
X76600000Y-70800000D02*
X76600000Y-71100000D01*
X118500000Y-111200000D02*
X118500000Y-111150000D01*
X82000000Y-87600000D02*
X82400000Y-87200000D01*
X76500000Y-71200000D02*
X77900000Y-72600000D01*
X97400000Y-104200000D02*
X98200000Y-105000000D01*
X69500000Y-95300000D02*
X69400000Y-95400000D01*
X116700000Y-97000000D02*
X117000000Y-97300000D01*
X90400000Y-104200000D02*
X97400000Y-104200000D01*
X88800000Y-68000000D02*
X88800000Y-67500000D01*
X82500000Y-68800000D02*
X82500000Y-68775000D01*
X69500000Y-95300000D02*
X69500000Y-95275000D01*
X89200000Y-105000000D02*
X89600000Y-105000000D01*
X67500000Y-95400000D02*
X67500000Y-95450000D01*
X85000000Y-72400000D02*
X84200000Y-73200000D01*
X106700000Y-105000000D02*
X106675000Y-105000000D01*
X75200000Y-92300000D02*
X71800000Y-92300000D01*
X117900000Y-104200000D02*
X118500000Y-104800000D01*
X79200000Y-70100000D02*
X79000000Y-69900000D01*
X79500000Y-68800000D02*
X79500000Y-68775000D01*
X81200000Y-101700000D02*
X81200000Y-105000000D01*
X78000000Y-72600000D02*
X78020000Y-72650000D01*
X82500000Y-68800000D02*
X79500000Y-68800000D01*
X92700000Y-80300000D02*
X92700000Y-71100000D01*
X79500000Y-68800000D02*
X79400000Y-68900000D01*
X106700000Y-105000000D02*
X107500000Y-104200000D01*
X98600000Y-105000000D02*
X99400000Y-104200000D01*
X116700000Y-100800000D02*
X116700000Y-96500000D01*
X85200000Y-88300000D02*
X85500000Y-88000000D01*
X127400000Y-112500000D02*
X127450000Y-112500000D01*
X117600000Y-101700000D02*
X116700000Y-100800000D01*
X79400000Y-68900000D02*
X79200000Y-68900000D01*
X79200000Y-68900000D02*
X79200000Y-68300000D01*
X71500000Y-92300000D02*
X70300000Y-93500000D01*
X76500000Y-69000000D02*
X76500000Y-68950000D01*
X79000000Y-69900000D02*
X77400000Y-69900000D01*
X116700000Y-103200000D02*
X117100000Y-102800000D01*
X84200000Y-75000000D02*
X84175000Y-75000000D01*
X84200000Y-73200000D02*
X84200000Y-75000000D01*
X89600000Y-105000000D02*
X90400000Y-104200000D01*
X81200000Y-104600000D02*
X82600000Y-103200000D01*
X127000000Y-112900000D02*
X127400000Y-112500000D01*
X87900000Y-68000000D02*
X84800000Y-71100000D01*
X88800000Y-67500000D02*
X88750000Y-67510000D01*
X77900000Y-72600000D02*
X78000000Y-72600000D01*
X85500000Y-88000000D02*
X85500000Y-86500000D01*
X81800000Y-87800000D02*
X79200000Y-87800000D01*
X89200000Y-105000000D02*
X89175000Y-105000000D01*
X69400000Y-95400000D02*
X67500000Y-95400000D01*
X92700000Y-71100000D02*
X89600000Y-68000000D01*
X99400000Y-104200000D02*
X105900000Y-104200000D01*
X89600000Y-68000000D02*
X87900000Y-68000000D01*
X116700000Y-96500000D02*
X116725000Y-96500000D01*
X118500000Y-104800000D02*
X118500000Y-111200000D01*
X76600000Y-69200000D02*
X76600000Y-69400000D01*
X70300000Y-93500000D02*
X70300000Y-94200000D01*
X116700000Y-104200000D02*
X116700000Y-103200000D01*
X85000000Y-71300000D02*
X85000000Y-72400000D01*
X76600000Y-71100000D02*
X75500000Y-72200000D01*
X71800000Y-92300000D02*
X71500000Y-92300000D01*
X83500000Y-88300000D02*
X85200000Y-88300000D01*
X85500000Y-86500000D02*
X83600000Y-84600000D01*
X76100000Y-65200000D02*
X66800000Y-65200000D01*
X86300000Y-69600000D02*
X85500000Y-68800000D01*
X70100000Y-94700000D02*
X69500000Y-95275000D01*
X82000000Y-87600000D02*
X81800000Y-87800000D01*
X77000000Y-91800000D02*
X77000000Y-97500000D01*
X82400000Y-87200000D02*
X83500000Y-88300000D01*
X98200000Y-105000000D02*
X98175000Y-105000000D01*
X75500000Y-72600000D02*
X75510000Y-72650000D01*
X98200000Y-105000000D02*
X98600000Y-105000000D01*
X118500000Y-111200000D02*
X120200000Y-112900000D01*
X82000000Y-87650000D02*
X82000000Y-87600000D01*
X76650000Y-69150000D02*
X76600000Y-69200000D01*
X84400000Y-105000000D02*
X89200000Y-105000000D01*
X84800000Y-71100000D02*
X85000000Y-71300000D01*
X118500000Y-104800000D02*
X118500000Y-104850000D01*
X81200000Y-105000000D02*
X81175000Y-105000000D01*
X83400000Y-104000000D02*
X84400000Y-105000000D01*
X77700000Y-89800000D02*
X75200000Y-92300000D01*
X107500000Y-104200000D02*
X117900000Y-104200000D01*
X117000000Y-97300000D02*
X120700000Y-97300000D01*
X77400000Y-69900000D02*
X76500000Y-69000000D01*
X69500000Y-95000000D02*
X69500000Y-95300000D01*
X121000000Y-97000000D02*
X121050000Y-97000000D01*
X120700000Y-97300000D02*
X121000000Y-97000000D01*
X85500000Y-68800000D02*
X82500000Y-68800000D01*
X105900000Y-104200000D02*
X106700000Y-105000000D01*
%TO.N,CHIP-PU{slash}RST{slash}EN*%
X76600000Y-105800000D02*
X81500000Y-105800000D01*
X85800000Y-75000000D02*
X85825000Y-75000000D01*
X90600000Y-70300000D02*
X89600000Y-69300000D01*
X87900000Y-69300000D02*
X85800000Y-71400000D01*
X73500000Y-104300000D02*
X73500000Y-106000000D01*
X90600000Y-79000000D02*
X90600000Y-70300000D01*
X74300000Y-103500000D02*
X76600000Y-105800000D01*
X74275000Y-103500000D02*
X74300000Y-103500000D01*
X73500000Y-106000000D02*
X73500000Y-112500000D01*
X74300000Y-103500000D02*
X73500000Y-104300000D01*
X74300000Y-103500000D02*
X72800000Y-102000000D01*
X94400000Y-82800000D02*
X90600000Y-79000000D01*
X89600000Y-69300000D02*
X87900000Y-69300000D01*
X94700000Y-91900000D02*
X94700000Y-86600000D01*
X72800000Y-102000000D02*
X68500000Y-102000000D01*
X81500000Y-105800000D02*
X82100000Y-105200000D01*
X85200000Y-74900000D02*
X85825000Y-75000000D01*
X85800000Y-71400000D02*
X85800000Y-75000000D01*
X82100000Y-104500000D02*
X94700000Y-91900000D01*
X82100000Y-105200000D02*
X82100000Y-104500000D01*
%TO.N,SL{slash}I04*%
X62350000Y-97000000D02*
X62400000Y-97000000D01*
X86500000Y-72000000D02*
X88100000Y-70400000D01*
X64100000Y-68000000D02*
X64100000Y-67400000D01*
X78600000Y-69500000D02*
X80200000Y-69500000D01*
X86500000Y-75500000D02*
X86500000Y-72000000D01*
X62400000Y-86900000D02*
X62400000Y-69700000D01*
X80200000Y-69500000D02*
X81300000Y-70600000D01*
X88750000Y-70050000D02*
X88800000Y-70000000D01*
X71200000Y-65900000D02*
X73200000Y-67900000D01*
X63300000Y-96100000D02*
X63300000Y-87800000D01*
X64100000Y-67400000D02*
X65600000Y-65900000D01*
X63300000Y-87800000D02*
X62400000Y-86900000D01*
X73200000Y-67900000D02*
X77000000Y-67900000D01*
X81300000Y-73300000D02*
X84800000Y-76800000D01*
X85200000Y-76800000D02*
X86500000Y-75500000D01*
X81300000Y-70600000D02*
X81300000Y-73300000D01*
X65600000Y-65900000D02*
X71200000Y-65900000D01*
X62400000Y-97000000D02*
X63300000Y-96100000D01*
X77000000Y-67900000D02*
X78600000Y-69500000D01*
X84800000Y-76800000D02*
X85200000Y-76800000D01*
X62400000Y-69700000D02*
X64100000Y-68000000D01*
%TO.N,SDA2{slash}IO17*%
X88000000Y-77200000D02*
X88100000Y-77320000D01*
X77800000Y-75100000D02*
X77800000Y-75000000D01*
X79900000Y-77200000D02*
X77800000Y-75100000D01*
X77800000Y-75000000D02*
X77825000Y-75000000D01*
X88000000Y-77200000D02*
X79900000Y-77200000D01*
X88750000Y-77670000D02*
X88800000Y-77700000D01*
%TO.N,SCL2{slash}IO18*%
X88300000Y-78400000D02*
X80100000Y-78400000D01*
X79700000Y-71000000D02*
X80530000Y-71000000D01*
X77100000Y-75400000D02*
X77100000Y-74600000D01*
X79200000Y-72700000D02*
X79200000Y-71500000D01*
X80100000Y-78400000D02*
X77100000Y-75400000D01*
X77100000Y-74600000D02*
X78400000Y-73300000D01*
X79200000Y-71500000D02*
X79700000Y-71000000D01*
X78600000Y-73300000D02*
X79200000Y-72700000D01*
X78400000Y-73300000D02*
X78600000Y-73300000D01*
X88750000Y-78940000D02*
X88800000Y-78900000D01*
X88800000Y-78900000D02*
X88300000Y-78400000D01*
%TO.N,SDA{slash}IO8*%
X73800000Y-73000000D02*
X73800000Y-72300000D01*
X83800000Y-87800000D02*
X84900000Y-87800000D01*
X82000000Y-86000000D02*
X83800000Y-87800000D01*
X76400000Y-78500000D02*
X76700000Y-78200000D01*
X73800000Y-72300000D02*
X73000000Y-71500000D01*
X79100000Y-86700000D02*
X76400000Y-84000000D01*
X81300000Y-86700000D02*
X79100000Y-86700000D01*
X76400000Y-78500000D02*
X73400000Y-75500000D01*
X77700000Y-78200000D02*
X79700000Y-80200000D01*
X73000000Y-71500000D02*
X73000000Y-71400000D01*
X73400000Y-73400000D02*
X73800000Y-73000000D01*
X76700000Y-78200000D02*
X77700000Y-78200000D01*
X76400000Y-84000000D02*
X76400000Y-78500000D01*
X86100000Y-89200000D02*
X83000000Y-92300000D01*
X83000000Y-92300000D02*
X81200000Y-92300000D01*
X79700000Y-80200000D02*
X88800000Y-80200000D01*
X81200000Y-92300000D02*
X81150000Y-92325000D01*
X82000000Y-86000000D02*
X81300000Y-86700000D01*
X73400000Y-75500000D02*
X73400000Y-73400000D01*
X88800000Y-80200000D02*
X88750000Y-80210000D01*
%TO.N,USB_D-*%
X79300000Y-81000000D02*
X77300000Y-79000000D01*
X88300000Y-81000000D02*
X79300000Y-81000000D01*
X88750000Y-81480000D02*
X88800000Y-81500000D01*
X88800000Y-81500000D02*
X88300000Y-81000000D01*
X77300000Y-79000000D02*
X77325000Y-78990000D01*
%TO.N,USB_D+*%
X88800000Y-82800000D02*
X88300000Y-82300000D01*
X77300000Y-81500000D02*
X77325000Y-81500000D01*
X88300000Y-82300000D02*
X78100000Y-82300000D01*
X88750000Y-82750000D02*
X88800000Y-82800000D01*
X78100000Y-82300000D02*
X77300000Y-81500000D01*
%TO.N,EL{slash}IO3*%
X72900000Y-95500000D02*
X70800000Y-95500000D01*
X77600000Y-90400000D02*
X73200000Y-94800000D01*
X73200000Y-94800000D02*
X73200000Y-95200000D01*
X90500000Y-84000000D02*
X84100000Y-90400000D01*
X84100000Y-90400000D02*
X77600000Y-90400000D01*
X73200000Y-95200000D02*
X72900000Y-95500000D01*
X65900000Y-100400000D02*
X65900000Y-102100000D01*
X65900000Y-102100000D02*
X64000000Y-104000000D01*
X70800000Y-95500000D02*
X65900000Y-100400000D01*
%TO.N,SCL{slash}IO9*%
X92100000Y-82700000D02*
X93100000Y-83700000D01*
X93100000Y-83700000D02*
X93100000Y-84000000D01*
X81500000Y-84000000D02*
X82200000Y-83300000D01*
X80700000Y-91100000D02*
X81200000Y-91100000D01*
X83200000Y-92900000D02*
X80100000Y-92900000D01*
X83900000Y-84000000D02*
X86500000Y-86600000D01*
X80000000Y-76200000D02*
X80000000Y-76150000D01*
X79800000Y-92000000D02*
X80700000Y-91100000D01*
X82200000Y-83300000D02*
X82200000Y-82900000D01*
X87400000Y-88700000D02*
X83200000Y-92900000D01*
X81200000Y-91100000D02*
X81150000Y-91055000D01*
X81500000Y-84000000D02*
X89500000Y-84000000D01*
X87400000Y-87900000D02*
X87400000Y-88700000D01*
X81800000Y-76200000D02*
X80000000Y-76200000D01*
X79800000Y-92600000D02*
X79800000Y-92000000D01*
X80100000Y-92900000D02*
X79800000Y-92600000D01*
X82200000Y-76600000D02*
X81800000Y-76200000D01*
X93100000Y-84000000D02*
X93055000Y-84000000D01*
X79500000Y-86000000D02*
X81500000Y-84000000D01*
X90700000Y-82700000D02*
X92100000Y-82700000D01*
%TO.N,SW1{slash}IO11*%
X85900000Y-105600000D02*
X84000000Y-107500000D01*
X95200000Y-85700000D02*
X94800000Y-85700000D01*
X94800000Y-85700000D02*
X87300000Y-93200000D01*
X84000000Y-107500000D02*
X82800000Y-106300000D01*
X82800000Y-105000000D02*
X82825000Y-105000000D01*
X87300000Y-98500000D02*
X86000000Y-99800000D01*
X84000000Y-107500000D02*
X84000000Y-114000000D01*
X87300000Y-93200000D02*
X87300000Y-98500000D01*
X82800000Y-106300000D02*
X82800000Y-105000000D01*
%TO.N,SW2{slash}IO12*%
X90800000Y-105000000D02*
X90825000Y-105000000D01*
X96000000Y-91100000D02*
X90800000Y-96300000D01*
X90800000Y-104800000D02*
X90800000Y-105000000D01*
X92600000Y-107500000D02*
X90800000Y-105700000D01*
X90800000Y-96300000D02*
X90800000Y-103600000D01*
X90800000Y-105700000D02*
X90800000Y-105000000D01*
X96000000Y-85700000D02*
X96000000Y-91100000D01*
X92600000Y-107500000D02*
X92600000Y-114000000D01*
%TO.N,SW3{slash}IO13*%
X101100000Y-107500000D02*
X101100000Y-114000000D01*
X99800000Y-105000000D02*
X99600000Y-104800000D01*
X97500000Y-101500000D02*
X97500000Y-85700000D01*
X101100000Y-107500000D02*
X99800000Y-106200000D01*
X99600000Y-103600000D02*
X97500000Y-101500000D01*
X99800000Y-106200000D02*
X99800000Y-105000000D01*
X99800000Y-105000000D02*
X99825000Y-105000000D01*
%TO.N,SW4{slash}IO14*%
X109600000Y-107500000D02*
X108300000Y-106200000D01*
X99700000Y-92200000D02*
X99700000Y-86000000D01*
X109600000Y-107500000D02*
X109600000Y-114000000D01*
X105300000Y-103600000D02*
X98200000Y-96500000D01*
X108300000Y-105000000D02*
X107900000Y-105000000D01*
X108300000Y-105000000D02*
X108325000Y-105000000D01*
X98200000Y-96500000D02*
X98200000Y-93700000D01*
X107100000Y-105800000D02*
X106300000Y-105800000D01*
X106300000Y-105800000D02*
X105300000Y-104800000D01*
X107900000Y-105000000D02*
X107100000Y-105800000D01*
X98200000Y-93700000D02*
X99700000Y-92200000D01*
X108300000Y-106200000D02*
X108300000Y-105000000D01*
%TO.N,BOOT*%
X107800000Y-100800000D02*
X107800000Y-101800000D01*
X105000000Y-94500000D02*
X106200000Y-93300000D01*
X107800000Y-101800000D02*
X114200000Y-101800000D01*
X105000000Y-98000000D02*
X107800000Y-100800000D01*
X105800000Y-95900000D02*
X105000000Y-96700000D01*
X105000000Y-96700000D02*
X105000000Y-98000000D01*
X106200000Y-93300000D02*
X106200000Y-82800000D01*
X106200000Y-82800000D02*
X106250000Y-82750000D01*
%TO.N,Net-(U3-RXD0)*%
X106200000Y-71300000D02*
X105700000Y-71800000D01*
X102300000Y-74900000D02*
X102300000Y-82800000D01*
X105000000Y-89000000D02*
X105000000Y-91000000D01*
X105700000Y-71800000D02*
X105400000Y-71800000D01*
X102300000Y-86300000D02*
X105000000Y-89000000D01*
X102300000Y-85200000D02*
X102300000Y-86300000D01*
X106250000Y-71320000D02*
X106200000Y-71300000D01*
X105400000Y-71800000D02*
X102300000Y-74900000D01*
%TO.N,Net-(U3-TXD0)*%
X105500000Y-87500000D02*
X105000000Y-87500000D01*
X107300000Y-70700000D02*
X107300000Y-85700000D01*
X107300000Y-85700000D02*
X106800000Y-86200000D01*
X106200000Y-70000000D02*
X106600000Y-70000000D01*
X106250000Y-70050000D02*
X106200000Y-70000000D01*
X106600000Y-70000000D02*
X107300000Y-70700000D01*
%TO.N,RELAY{slash}IO2*%
X108300000Y-70500000D02*
X108300000Y-80400000D01*
X120300000Y-86800000D02*
X121500000Y-86800000D01*
X106250000Y-68780000D02*
X106200000Y-68800000D01*
X106700000Y-69300000D02*
X107100000Y-69300000D01*
X111600000Y-83700000D02*
X117200000Y-83700000D01*
X117200000Y-83700000D02*
X120300000Y-86800000D01*
X108300000Y-80400000D02*
X111600000Y-83700000D01*
X106200000Y-68800000D02*
X106700000Y-69300000D01*
X122300000Y-86000000D02*
X122325000Y-86000000D01*
X107100000Y-69300000D02*
X108300000Y-70500000D01*
X121500000Y-86800000D02*
X122300000Y-86000000D01*
%TO.N,BUZZ{slash}IO1*%
X109100000Y-80000000D02*
X109050001Y-80000000D01*
X109100000Y-76800000D02*
X109800000Y-77500000D01*
X107100000Y-68000000D02*
X109100000Y-70000000D01*
X109800000Y-79300000D02*
X109100000Y-80000000D01*
X106250000Y-67510000D02*
X106200000Y-67500000D01*
X109800000Y-77500000D02*
X109800000Y-79300000D01*
X106700000Y-68000000D02*
X107100000Y-68000000D01*
X106200000Y-67500000D02*
X106700000Y-68000000D01*
X109100000Y-70000000D02*
X109100000Y-76800000D01*
%TO.N,/RELAY_LO*%
X127100000Y-82300000D02*
X126400000Y-81600000D01*
X129800000Y-81500000D02*
X129650000Y-81500000D01*
X131800000Y-81400000D02*
X136600000Y-76600000D01*
X133400000Y-81500000D02*
X132600000Y-82300000D01*
X129210000Y-81500000D02*
X129210000Y-82300000D01*
X129400000Y-81300000D02*
X129600000Y-81300000D01*
X122400000Y-82000000D02*
X122437500Y-82000000D01*
X132600000Y-82300000D02*
X127100000Y-82300000D01*
X133350000Y-81500000D02*
X133400000Y-81500000D01*
X129200000Y-81500000D02*
X129400000Y-81300000D01*
X136600000Y-76600000D02*
X136600000Y-75100000D01*
X122800000Y-81600000D02*
X122400000Y-82000000D01*
X129600000Y-81300000D02*
X129800000Y-81500000D01*
X126400000Y-81600000D02*
X122800000Y-81600000D01*
%TO.N,Net-(D4-A)*%
X130800000Y-81500000D02*
X130000000Y-80700000D01*
X126000000Y-80700000D02*
X126000000Y-80675000D01*
X130000000Y-80700000D02*
X126000000Y-80700000D01*
%TO.N,+5V*%
D60*
X126000000Y-82300000D02*
X126000000Y-82325000D01*
X121000000Y-94000000D02*
X121050000Y-93990000D01*
X120200000Y-93200000D02*
X121000000Y-94000000D01*
X112000000Y-73600000D02*
X112000000Y-73550001D01*
X117000000Y-94000000D02*
X117800000Y-93200000D01*
D59*
X120100000Y-103500000D02*
X120800000Y-104200000D01*
X113000000Y-97900000D02*
X118600000Y-103500000D01*
D60*
X126100000Y-82200000D02*
X126300000Y-82200000D01*
X126000000Y-86400000D02*
X126000000Y-82300000D01*
X126300000Y-82200000D02*
X126800000Y-82700000D01*
D59*
X75800000Y-89000000D02*
X85000000Y-89000000D01*
D60*
X112800000Y-82000000D02*
X112850000Y-82000000D01*
X135400000Y-82700000D02*
X136600000Y-81500000D01*
X112000000Y-92200000D02*
X112000000Y-92250000D01*
X72300000Y-85500000D02*
X69800000Y-88000000D01*
X99700000Y-85100000D02*
X104400000Y-89800000D01*
X112000000Y-92200000D02*
X113800000Y-94000000D01*
X113500000Y-72100000D02*
X112000000Y-73600000D01*
X65200000Y-88000000D02*
X64200000Y-87000000D01*
X112800000Y-82100000D02*
X112800000Y-82000000D01*
X120800000Y-111200000D02*
X120800000Y-111150000D01*
X116700000Y-94000000D02*
X117000000Y-94000000D01*
X120400000Y-72100000D02*
X113500000Y-72100000D01*
X116600000Y-82900000D02*
X120600000Y-78900000D01*
X120800000Y-111200000D02*
X129700000Y-111200000D01*
X69800000Y-88000000D02*
X65200000Y-88000000D01*
X120800000Y-104200000D02*
X120800000Y-111200000D01*
X68500000Y-86200000D02*
X69800000Y-84900000D01*
X69800000Y-84900000D02*
X71300000Y-84900000D01*
X126800000Y-82700000D02*
X135400000Y-82700000D01*
X68500000Y-86150000D02*
X68500000Y-86200000D01*
X129700000Y-111200000D02*
X131000000Y-112500000D01*
X116700000Y-94000000D02*
X116725000Y-93990000D01*
X121000000Y-94000000D02*
X121700000Y-93300000D01*
X117800000Y-93200000D02*
X120200000Y-93200000D01*
D59*
X115600000Y-94000000D02*
X113000000Y-96600000D01*
D60*
X121700000Y-93300000D02*
X121550000Y-93300000D01*
X90400000Y-85100000D02*
X99700000Y-85100000D01*
D59*
X113000000Y-96600000D02*
X113000000Y-97900000D01*
D60*
X111800000Y-83100000D02*
X112800000Y-82100000D01*
X72300000Y-85500000D02*
X75800000Y-89000000D01*
X122900000Y-92700000D02*
X127600000Y-88000000D01*
X136600000Y-81500000D02*
X136650000Y-81500000D01*
X113800000Y-94000000D02*
X116700000Y-94000000D01*
X120600000Y-72300000D02*
X120400000Y-72100000D01*
X112800000Y-82100000D02*
X113600000Y-82900000D01*
D59*
X85000000Y-89000000D02*
X88100000Y-85900000D01*
D60*
X120600000Y-78900000D02*
X120600000Y-72300000D01*
D59*
X118600000Y-103500000D02*
X120100000Y-103500000D01*
X88100000Y-85900000D02*
X88100000Y-85400000D01*
D60*
X113600000Y-82900000D02*
X116600000Y-82900000D01*
X127600000Y-88000000D02*
X126000000Y-86400000D01*
X89200000Y-86300000D02*
X90400000Y-85100000D01*
X120600000Y-75100000D02*
X124600000Y-75100000D01*
X107700000Y-87900000D02*
X112000000Y-92200000D01*
X64200000Y-87000000D02*
X63400000Y-87000000D01*
X126000000Y-82300000D02*
X126100000Y-82200000D01*
%TO.N,Net-(U1-AC{slash}L)*%
D61*
X154600000Y-80500000D02*
X156900000Y-78200000D01*
D60*
X164100000Y-69750000D02*
X163540000Y-69190000D01*
D61*
X151500000Y-80500000D02*
X154600000Y-80500000D01*
X161200000Y-78200000D02*
X163540000Y-75860000D01*
X161547500Y-100000000D02*
X154600000Y-93052500D01*
X154600000Y-93052500D02*
X154600000Y-80500000D01*
X156900000Y-78200000D02*
X161200000Y-78200000D01*
X163540000Y-75860000D02*
X163540000Y-69190000D01*
D60*
X150800000Y-79800000D02*
X151500000Y-80500000D01*
D61*
X144500000Y-79800000D02*
X150800000Y-79800000D01*
%TO.N,NEUTRAL*%
X144500000Y-72200000D02*
X150050000Y-72200000D01*
X158800000Y-70500000D02*
X151500000Y-70500000D01*
X150150000Y-72100000D02*
X150050000Y-72200000D01*
X150050000Y-72200000D02*
X150050000Y-71950000D01*
X150050000Y-71950000D02*
X151500000Y-70500000D01*
X152500000Y-70500000D02*
X152500000Y-62500000D01*
%TO.N,Net-(D5-A)*%
D59*
X64700000Y-100500000D02*
X64000000Y-99800000D01*
X64000000Y-99800000D02*
X64000000Y-97000000D01*
%TO.N,Net-(Q1-G)*%
X120600000Y-81000000D02*
X120700000Y-81100000D01*
X121600000Y-83300000D02*
X120700000Y-84200000D01*
X120700000Y-85200000D02*
X122700000Y-85200000D01*
X120700000Y-84200000D02*
X120700000Y-86000000D01*
X120800000Y-88000000D02*
X120675000Y-88000000D01*
X120562500Y-81050000D02*
X120600000Y-81000000D01*
X120700000Y-81100000D02*
X120700000Y-81700000D01*
X120700000Y-81700000D02*
X121600000Y-82600000D01*
X123000000Y-85500000D02*
X123000000Y-86500000D01*
X122300000Y-87200000D02*
X121600000Y-87200000D01*
X121600000Y-82600000D02*
X121600000Y-83300000D01*
X122700000Y-85200000D02*
X123000000Y-85500000D01*
X121600000Y-87200000D02*
X120800000Y-88000000D01*
X120700000Y-86000000D02*
X120675000Y-86000000D01*
X123000000Y-86500000D02*
X122300000Y-87200000D01*
%TO.N,/D-*%
X68700000Y-75200000D02*
X68800000Y-75300000D01*
X69500000Y-75300000D02*
X71200000Y-77000000D01*
X68745000Y-75250000D02*
X68700000Y-75200000D01*
X71200000Y-77000000D02*
X71200000Y-78500000D01*
X71200000Y-78500000D02*
X71150000Y-78462500D01*
X68800000Y-75300000D02*
X69500000Y-75300000D01*
%TO.N,/D+*%
D62*
X67800000Y-75500000D02*
X67800000Y-75000000D01*
X68700000Y-75800000D02*
X68600000Y-75700000D01*
D59*
X69500000Y-75800000D02*
X70400000Y-76700000D01*
D62*
X68600000Y-75700000D02*
X68000000Y-75700000D01*
D59*
X70700000Y-79500000D02*
X71200000Y-79500000D01*
X70400000Y-76700000D02*
X70400000Y-79200000D01*
D62*
X68000000Y-74800000D02*
X68200000Y-74800000D01*
D59*
X71200000Y-79500000D02*
X71150000Y-79537500D01*
X68745000Y-75750000D02*
X68700000Y-75800000D01*
X69150000Y-74750000D02*
X69200000Y-74800000D01*
D62*
X67800000Y-75000000D02*
X68000000Y-74800000D01*
X68000000Y-75700000D02*
X67800000Y-75500000D01*
D59*
X70400000Y-79200000D02*
X70700000Y-79500000D01*
X68700000Y-75800000D02*
X69500000Y-75800000D01*
%TO.N,/P*%
X72800000Y-79500000D02*
X74800000Y-81500000D01*
X72850000Y-79537500D02*
X72800000Y-79500000D01*
X74800000Y-81500000D02*
X75700000Y-81500000D01*
X75700000Y-81500000D02*
X75675000Y-81500000D01*
%TO.N,VBUS*%
D60*
X72600000Y-79000000D02*
X72300000Y-78700000D01*
X68500000Y-84800000D02*
X68500000Y-82800000D01*
X72300000Y-79100000D02*
X72300000Y-80300000D01*
X69400000Y-83900000D02*
X68500000Y-84800000D01*
X74300000Y-82300000D02*
X74300000Y-82900000D01*
X68745000Y-77400000D02*
X68500000Y-77400000D01*
X72300000Y-80300000D02*
X74300000Y-82300000D01*
X72300000Y-78700000D02*
X72300000Y-77300000D01*
X73300000Y-83900000D02*
X69400000Y-83900000D01*
X68500000Y-83500000D02*
X64775000Y-83500000D01*
X72300000Y-77300000D02*
X70500000Y-75500000D01*
X68500000Y-82800000D02*
X68500000Y-82850000D01*
D59*
X68700000Y-82600000D02*
X66800000Y-80700000D01*
D60*
X68500000Y-82800000D02*
X68700000Y-82600000D01*
X72500000Y-78900000D02*
X72300000Y-79100000D01*
X72925000Y-79000000D02*
X72600000Y-79000000D01*
X68200000Y-72600000D02*
X68745000Y-72600000D01*
X66800000Y-74000000D02*
X68200000Y-72600000D01*
D59*
X66800000Y-80700000D02*
X66800000Y-74000000D01*
%TO.N,/N*%
X73700000Y-79000000D02*
X75700000Y-79000000D01*
X73200000Y-78500000D02*
X73700000Y-79000000D01*
X73100000Y-78500000D02*
X73200000Y-78500000D01*
X72900000Y-78600000D02*
X73000000Y-78600000D01*
X75700000Y-79000000D02*
X75675000Y-78990000D01*
X72850000Y-78462500D02*
X72800000Y-78500000D01*
X72800000Y-78500000D02*
X72900000Y-78600000D01*
%TO.N,LINE*%
D61*
X161940000Y-62500000D02*
X158000000Y-62500000D01*
X163550000Y-64110000D02*
X161940000Y-62500000D01*
%TO.N,Net-(J2-CC1)*%
D59*
X72700000Y-75000000D02*
X71500000Y-73800000D01*
X68700000Y-73800000D02*
X68745000Y-73750000D01*
X72675000Y-75000000D02*
X72700000Y-75000000D01*
X71500000Y-73800000D02*
X68700000Y-73800000D01*
%TO.N,Net-(J3-Pin_2)*%
X68100000Y-67500000D02*
X70800000Y-70200000D01*
X80000000Y-73100000D02*
X80000000Y-74500000D01*
X70800000Y-70200000D02*
X77200000Y-70200000D01*
X80500000Y-72600000D02*
X80000000Y-73100000D01*
X79700000Y-71800000D02*
X80500000Y-72600000D01*
X77200000Y-70200000D02*
X78000000Y-71000000D01*
X80500000Y-72600000D02*
X80530000Y-72650000D01*
%TO.N,Net-(J3-Pin_1)*%
X74000000Y-71700000D02*
X74700000Y-71000000D01*
X73000000Y-72650000D02*
X73000000Y-72600000D01*
X66900000Y-68000000D02*
X66900000Y-67100000D01*
X71500000Y-71400000D02*
X68800000Y-68700000D01*
X73000000Y-72600000D02*
X71800000Y-71400000D01*
X74700000Y-72400000D02*
X74700000Y-73000000D01*
X76200000Y-74500000D02*
X76200000Y-75000000D01*
X67600000Y-68700000D02*
X66900000Y-68000000D01*
X76200000Y-75000000D02*
X76175000Y-75000000D01*
X71800000Y-71400000D02*
X71500000Y-71400000D01*
X66900000Y-67100000D02*
X67600000Y-66400000D01*
X68800000Y-68700000D02*
X67600000Y-68700000D01*
X69500000Y-66400000D02*
X70600000Y-67500000D01*
X67600000Y-66400000D02*
X69500000Y-66400000D01*
X74000000Y-71700000D02*
X74700000Y-72400000D01*
X74700000Y-73000000D02*
X76200000Y-74500000D01*
X74700000Y-71000000D02*
X75500000Y-71000000D01*
%TO.N,Net-(D1-A)*%
X64000000Y-92900000D02*
X64000000Y-88000000D01*
X64700000Y-93600000D02*
X64000000Y-92900000D01*
%TO.N,Net-(D6-A)*%
X62350000Y-104000000D02*
X62400000Y-104000000D01*
X62400000Y-104000000D02*
X64700000Y-106300000D01*
X64700000Y-106300000D02*
X64700000Y-107500000D01*
%TO.N,Net-(U5-VBAT)*%
X85170000Y-95000000D02*
X85200000Y-95000000D01*
X81200000Y-93600000D02*
X81150000Y-93595000D01*
X83500000Y-93900000D02*
X81500000Y-93900000D01*
%TO.N,R-NO*%
D63*
X137000000Y-62500000D02*
X142500000Y-62500000D01*
%TO.N,Net-(D7-A)*%
D59*
X115500000Y-78400000D02*
X116200000Y-79100000D01*
X115487501Y-78450000D02*
X115500000Y-78400000D01*
X116200000Y-79100000D02*
X116200000Y-82000000D01*
X116200000Y-82000000D02*
X116150000Y-82000000D01*
X119100000Y-73600000D02*
X119100002Y-73550001D01*
X119100000Y-74800000D02*
X119100000Y-73600000D01*
X115500000Y-78400000D02*
X119100000Y-74800000D01*
%TO.N,Net-(J2-CC2)*%
X69700000Y-77100000D02*
X69400000Y-76800000D01*
X69700000Y-80500000D02*
X69700000Y-77100000D01*
X71675000Y-82500000D02*
X71700000Y-82500000D01*
X71700000Y-82500000D02*
X69700000Y-80500000D01*
X68700000Y-76800000D02*
X68745000Y-76750000D01*
%TO.N,Net-(Q2-G)*%
X111200000Y-77500000D02*
X113600000Y-77500000D01*
X110700000Y-78300000D02*
X110700000Y-80000000D01*
X110700000Y-78000000D02*
X111200000Y-77500000D01*
%TD*%
M02*
